<svg width="194" height="37" viewBox="0 0 194 37" fill="none" xmlns="http://www.w3.org/2000/svg">
<path d="M6.454 12.2547H7.532V19.3667C7.532 19.6933 7.48533 19.9453 7.392 20.1227C7.308 20.2907 7.14467 20.4167 6.902 20.5007C6.66867 20.5847 6.356 20.6407 5.964 20.6687C5.572 20.6873 5.082 20.6967 4.494 20.6967C4.47533 20.5473 4.42867 20.37 4.354 20.1647C4.27933 19.9593 4.19533 19.782 4.102 19.6327C4.41933 19.6327 4.71333 19.6327 4.984 19.6327C5.264 19.6327 5.50667 19.6327 5.712 19.6327C5.91733 19.6327 6.062 19.6327 6.146 19.6327C6.26733 19.6327 6.34667 19.614 6.384 19.5767C6.43067 19.5393 6.454 19.4647 6.454 19.3527V12.2547ZM9.492 14.3687L10.444 13.8787C10.8547 14.3453 11.2607 14.854 11.662 15.4047C12.0633 15.9553 12.4273 16.5013 12.754 17.0427C13.0807 17.584 13.3327 18.0693 13.51 18.4987L12.46 19.0727C12.3013 18.6433 12.0633 18.158 11.746 17.6167C11.4287 17.066 11.074 16.506 10.682 15.9367C10.29 15.3673 9.89333 14.8447 9.492 14.3687ZM10.416 18.1907L11.508 18.5267C11.1813 19.516 10.752 20.3793 10.22 21.1167C9.688 21.854 9.03933 22.4887 8.274 23.0207C7.518 23.5527 6.63133 23.9913 5.614 24.3367C4.59667 24.682 3.43933 24.9527 2.142 25.1487C2.09533 24.99 2.016 24.8127 1.904 24.6167C1.80133 24.4207 1.694 24.2527 1.582 24.1127C2.82333 23.954 3.92467 23.7253 4.886 23.4267C5.84733 23.1187 6.68733 22.7313 7.406 22.2647C8.12467 21.7887 8.73133 21.2147 9.226 20.5427C9.72067 19.8707 10.1173 19.0867 10.416 18.1907ZM3.36 14.0187L4.508 14.2987C4.284 14.8587 4.01333 15.442 3.696 16.0487C3.37867 16.646 3.03333 17.2247 2.66 17.7847C2.28667 18.3353 1.89 18.8207 1.47 19.2407C1.386 19.1753 1.288 19.1053 1.176 19.0307C1.07333 18.9467 0.961333 18.8673 0.84 18.7927C0.728 18.718 0.625333 18.6573 0.532 18.6107C0.942667 18.2187 1.33 17.766 1.694 17.2527C2.058 16.73 2.38 16.1887 2.66 15.6287C2.94933 15.0687 3.18267 14.532 3.36 14.0187ZM15.358 15.1667C15.6193 15.204 15.8947 15.232 16.184 15.2507C16.4733 15.26 16.7673 15.2647 17.066 15.2647C17.5793 15.2647 18.1067 15.2413 18.648 15.1947C19.1987 15.148 19.754 15.0733 20.314 14.9707C20.874 14.8587 21.4247 14.714 21.966 14.5367L21.994 15.5867C21.5367 15.708 21.0327 15.82 20.482 15.9227C19.9407 16.0253 19.376 16.1093 18.788 16.1747C18.2093 16.2307 17.6353 16.2587 17.066 16.2587C16.814 16.2587 16.5433 16.2587 16.254 16.2587C15.974 16.2493 15.6987 16.2353 15.428 16.2167L15.358 15.1667ZM20.314 12.8847C20.258 13.1087 20.188 13.3933 20.104 13.7387C20.02 14.084 19.9267 14.448 19.824 14.8307C19.7307 15.204 19.628 15.5587 19.516 15.8947C19.292 16.5667 19.0073 17.276 18.662 18.0227C18.3167 18.76 17.948 19.4787 17.556 20.1787C17.164 20.8787 16.7767 21.49 16.394 22.0127L15.316 21.4527C15.624 21.0887 15.932 20.6733 16.24 20.2067C16.5573 19.74 16.8513 19.25 17.122 18.7367C17.402 18.2233 17.654 17.7193 17.878 17.2247C18.102 16.73 18.2887 16.2773 18.438 15.8667C18.5873 15.4187 18.7273 14.9147 18.858 14.3547C18.9887 13.7853 19.0633 13.258 19.082 12.7727L20.314 12.8847ZM23.618 17.2107C23.6087 17.5 23.5993 17.7613 23.59 17.9947C23.59 18.2187 23.5947 18.4613 23.604 18.7227C23.6133 18.9467 23.6227 19.236 23.632 19.5907C23.6507 19.936 23.6693 20.3047 23.688 20.6967C23.7067 21.0793 23.7207 21.448 23.73 21.8027C23.7487 22.1573 23.758 22.4513 23.758 22.6847C23.758 23.058 23.674 23.3987 23.506 23.7067C23.338 24.0147 23.072 24.2573 22.708 24.4347C22.3533 24.6213 21.8867 24.7147 21.308 24.7147C20.7947 24.7147 20.328 24.64 19.908 24.4907C19.488 24.3507 19.1473 24.1313 18.886 23.8327C18.634 23.534 18.508 23.156 18.508 22.6987C18.508 22.26 18.6293 21.8867 18.872 21.5787C19.124 21.2613 19.46 21.0187 19.88 20.8507C20.3093 20.6827 20.7853 20.5987 21.308 20.5987C22.092 20.5987 22.8107 20.7107 23.464 20.9347C24.1267 21.1493 24.7193 21.4247 25.242 21.7607C25.774 22.0967 26.2313 22.428 26.614 22.7547L26.012 23.7067C25.7413 23.464 25.438 23.212 25.102 22.9507C24.7753 22.6893 24.4113 22.4513 24.01 22.2367C23.6087 22.0127 23.1793 21.8307 22.722 21.6907C22.2647 21.5507 21.7793 21.4807 21.266 21.4807C20.7527 21.4807 20.3373 21.588 20.02 21.8027C19.7027 22.0173 19.544 22.2833 19.544 22.6007C19.544 22.9273 19.6793 23.1933 19.95 23.3987C20.2207 23.604 20.6267 23.7067 21.168 23.7067C21.56 23.7067 21.868 23.646 22.092 23.5247C22.316 23.394 22.4747 23.226 22.568 23.0207C22.6707 22.806 22.722 22.5727 22.722 22.3207C22.722 22.0593 22.7127 21.7187 22.694 21.2987C22.6847 20.8787 22.666 20.4307 22.638 19.9547C22.6193 19.4693 22.596 18.9887 22.568 18.5127C22.5493 18.0273 22.5353 17.5933 22.526 17.2107H23.618ZM26.418 17.5887C26.166 17.3647 25.8487 17.1313 25.466 16.8887C25.0833 16.646 24.6867 16.4173 24.276 16.2027C23.8747 15.9787 23.52 15.7967 23.212 15.6567L23.786 14.8027C24.038 14.9147 24.318 15.05 24.626 15.2087C24.934 15.3673 25.242 15.5353 25.55 15.7127C25.858 15.89 26.1427 16.0627 26.404 16.2307C26.6747 16.3893 26.8893 16.534 27.048 16.6647L26.418 17.5887ZM31.122 14.2287C31.1033 14.3407 31.0847 14.4807 31.066 14.6487C31.0567 14.8167 31.0427 14.9847 31.024 15.1527C31.0147 15.3207 31.01 15.4653 31.01 15.5867C31.0007 15.876 30.996 16.2073 30.996 16.5807C31.0053 16.9447 31.0147 17.3273 31.024 17.7287C31.0427 18.1207 31.0707 18.5127 31.108 18.9047C31.1827 19.6793 31.3087 20.3607 31.486 20.9487C31.6633 21.5273 31.878 21.98 32.13 22.3067C32.3913 22.6333 32.6853 22.7967 33.012 22.7967C33.1893 22.7967 33.362 22.7173 33.53 22.5587C33.698 22.3907 33.8567 22.1713 34.006 21.9007C34.1647 21.6207 34.3047 21.3127 34.426 20.9767C34.5567 20.6313 34.664 20.286 34.748 19.9407L35.63 20.9347C35.35 21.728 35.0653 22.358 34.776 22.8247C34.496 23.282 34.2067 23.6133 33.908 23.8187C33.6187 24.024 33.3153 24.1267 32.998 24.1267C32.5593 24.1267 32.1347 23.968 31.724 23.6507C31.3133 23.324 30.9587 22.8013 30.66 22.0827C30.3613 21.3547 30.1467 20.3887 30.016 19.1847C29.9693 18.774 29.932 18.3307 29.904 17.8547C29.8853 17.3787 29.8713 16.926 29.862 16.4967C29.862 16.0673 29.862 15.7173 29.862 15.4467C29.862 15.288 29.8573 15.0827 29.848 14.8307C29.8387 14.5787 29.8107 14.3687 29.764 14.2007L31.122 14.2287ZM38.416 14.6207C38.668 14.938 38.906 15.3113 39.13 15.7407C39.3633 16.1607 39.5733 16.6133 39.76 17.0987C39.956 17.5747 40.1287 18.0693 40.278 18.5827C40.4367 19.096 40.5627 19.6093 40.656 20.1227C40.7587 20.6267 40.8333 21.112 40.88 21.5787L39.76 22.0407C39.704 21.406 39.606 20.762 39.466 20.1087C39.326 19.446 39.1533 18.8067 38.948 18.1907C38.7427 17.5653 38.5047 16.9773 38.234 16.4267C37.9633 15.876 37.66 15.4 37.324 14.9987L38.416 14.6207Z" fill="black"/>
<path d="M137.452 1.5294C139.459 1.18082 141.541 1.18082 143.548 1.5294V1.5294C145.543 1.87585 147.497 2.5785 149.258 3.5794V3.5794C151.008 4.57437 152.603 5.89346 153.909 7.42569V7.42569C155.21 8.95342 156.248 10.7213 156.944 12.6039V12.6039C157.641 14.4892 158 16.4907 158 18.5008V18.5008C158 20.5108 157.641 22.5123 156.944 24.3977V24.3977C156.248 26.2803 155.21 28.0481 153.909 29.5759V29.5759C152.603 31.1081 151.008 32.4272 149.258 33.4221V33.4221C147.497 34.423 145.543 35.1257 143.548 35.4721V35.4721C141.541 35.8207 139.459 35.8207 137.452 35.4721V35.4721C135.457 35.1257 133.503 34.423 131.742 33.4221V33.4221C129.992 32.4272 128.397 31.1081 127.091 29.5758V29.5758C125.79 28.0481 124.752 26.2803 124.056 24.3977V24.3977C123.359 22.5123 123 20.5108 123 18.5008V18.5008C123 16.4907 123.359 14.4892 124.056 12.6039V12.6039C124.752 10.7213 125.79 8.95342 127.091 7.42569V7.42569C128.397 5.89346 129.992 4.57437 131.742 3.5794V3.5794C133.503 2.5785 135.457 1.87585 137.452 1.5294V1.5294Z" stroke="black"/>
<path d="M56.8736 9.49453C57.9473 9.28095 59.0527 9.28095 60.1264 9.49453V9.49453C61.2002 9.70812 62.2213 10.1311 63.1316 10.7393V10.7393C64.0419 11.3476 64.8235 12.1291 65.4317 13.0394V13.0394C66.0399 13.9497 66.4629 14.9709 66.6765 16.0446V16.0446C66.8901 17.1184 66.8901 18.2237 66.6765 19.2974V19.2974C66.4629 20.3712 66.0399 21.3923 65.4317 22.3026V22.3026C64.8235 23.2129 64.0419 23.9945 63.1316 24.6027V24.6027C62.2213 25.2109 61.2002 25.6339 60.1264 25.8475V25.8475C59.0527 26.0611 57.9473 26.0611 56.8736 25.8475V25.8475C55.7998 25.6339 54.7787 25.2109 53.8684 24.6027V24.6027C52.9581 23.9945 52.1765 23.2129 51.5683 22.3026V22.3026C50.9601 21.3923 50.5371 20.3712 50.3235 19.2974V19.2974C50.1099 18.2237 50.1099 17.1184 50.3235 16.0446V16.0446C50.5371 14.9709 50.9601 13.9497 51.5683 13.0394V13.0394C52.1765 12.1291 52.9581 11.3476 53.8684 10.7393V10.7393C54.7787 10.1311 55.7998 9.70812 56.8736 9.49453V9.49453Z" stroke="black"/>
<path d="M113.354 18.5247C113.549 18.3294 113.549 18.0129 113.354 17.8176L110.172 14.6356C109.976 14.4403 109.66 14.4403 109.464 14.6356C109.269 14.8309 109.269 15.1475 109.464 15.3427L112.293 18.1711L109.464 20.9996C109.269 21.1948 109.269 21.5114 109.464 21.7067C109.66 21.9019 109.976 21.9019 110.172 21.7067L113.354 18.5247ZM75 18.1711V18.6711H113V18.1711V17.6711H75V18.1711Z" fill="black"/>
<path d="M169.514 15.3347L170.228 14.7187C170.573 14.8773 170.933 15.064 171.306 15.2787C171.689 15.4933 172.043 15.7127 172.37 15.9367C172.706 16.1607 172.981 16.3707 173.196 16.5667L172.454 17.2527C172.249 17.0567 171.983 16.8467 171.656 16.6227C171.329 16.3893 170.979 16.1607 170.606 15.9367C170.233 15.7033 169.869 15.5027 169.514 15.3347ZM175.996 13.4167H176.206L176.388 13.3747L177.06 13.7807C176.603 14.5927 176.019 15.33 175.31 15.9927C174.601 16.646 173.807 17.2247 172.93 17.7287C172.062 18.2233 171.152 18.648 170.2 19.0027C169.257 19.348 168.324 19.6233 167.4 19.8287C167.353 19.6887 167.283 19.53 167.19 19.3527C167.097 19.166 167.003 19.012 166.91 18.8907C167.797 18.732 168.693 18.4987 169.598 18.1907C170.503 17.8733 171.371 17.4907 172.202 17.0427C173.033 16.5853 173.775 16.0673 174.428 15.4887C175.091 14.91 175.613 14.2753 175.996 13.5847V13.4167ZM171.306 13.4167H176.248V14.3127H171.306V13.4167ZM172.342 12.2127L173.532 12.4647C172.879 13.2113 172.071 13.9207 171.11 14.5927C170.158 15.2647 169.033 15.862 167.736 16.3847C167.689 16.3007 167.624 16.2073 167.54 16.1047C167.456 16.002 167.367 15.9087 167.274 15.8247C167.181 15.7313 167.092 15.6567 167.008 15.6007C167.857 15.302 168.623 14.966 169.304 14.5927C169.985 14.2193 170.583 13.8273 171.096 13.4167C171.609 13.006 172.025 12.6047 172.342 12.2127ZM171.306 20.4587L172.09 19.8567C172.454 20.0433 172.832 20.2627 173.224 20.5147C173.625 20.7573 173.999 21.0093 174.344 21.2707C174.689 21.5227 174.974 21.7653 175.198 21.9987L174.372 22.6707C174.167 22.4373 173.891 22.1947 173.546 21.9427C173.21 21.6813 172.846 21.42 172.454 21.1587C172.062 20.8973 171.679 20.664 171.306 20.4587ZM178.026 18.3167H178.25L178.446 18.2747L179.132 18.6527C178.684 19.67 178.091 20.552 177.354 21.2987C176.617 22.0453 175.772 22.6753 174.82 23.1887C173.868 23.6927 172.846 24.1033 171.754 24.4207C170.671 24.738 169.561 24.9807 168.422 25.1487C168.385 25.0087 168.319 24.8407 168.226 24.6447C168.142 24.458 168.053 24.3087 167.96 24.1967C169.043 24.066 170.102 23.8607 171.138 23.5807C172.183 23.2913 173.154 22.918 174.05 22.4607C174.955 22.0033 175.749 21.448 176.43 20.7947C177.121 20.132 177.653 19.362 178.026 18.4847V18.3167ZM173.49 18.3167H178.306V19.2267H173.49V18.3167ZM174.61 17.0147L175.786 17.2807C175.077 18.102 174.167 18.8813 173.056 19.6187C171.945 20.356 170.62 20.9953 169.08 21.5367C169.043 21.4527 168.982 21.3593 168.898 21.2567C168.823 21.154 168.744 21.056 168.66 20.9627C168.585 20.86 168.511 20.7807 168.436 20.7247C169.416 20.4073 170.307 20.048 171.11 19.6467C171.913 19.2453 172.608 18.816 173.196 18.3587C173.784 17.9013 174.255 17.4533 174.61 17.0147ZM183.122 14.2287C183.103 14.3407 183.085 14.4807 183.066 14.6487C183.057 14.8167 183.043 14.9847 183.024 15.1527C183.015 15.3207 183.01 15.4653 183.01 15.5867C183.001 15.876 182.996 16.2073 182.996 16.5807C183.005 16.9447 183.015 17.3273 183.024 17.7287C183.043 18.1207 183.071 18.5127 183.108 18.9047C183.183 19.6793 183.309 20.3607 183.486 20.9487C183.663 21.5273 183.878 21.98 184.13 22.3067C184.391 22.6333 184.685 22.7967 185.012 22.7967C185.189 22.7967 185.362 22.7173 185.53 22.5587C185.698 22.3907 185.857 22.1713 186.006 21.9007C186.165 21.6207 186.305 21.3127 186.426 20.9767C186.557 20.6313 186.664 20.286 186.748 19.9407L187.63 20.9347C187.35 21.728 187.065 22.358 186.776 22.8247C186.496 23.282 186.207 23.6133 185.908 23.8187C185.619 24.024 185.315 24.1267 184.998 24.1267C184.559 24.1267 184.135 23.968 183.724 23.6507C183.313 23.324 182.959 22.8013 182.66 22.0827C182.361 21.3547 182.147 20.3887 182.016 19.1847C181.969 18.774 181.932 18.3307 181.904 17.8547C181.885 17.3787 181.871 16.926 181.862 16.4967C181.862 16.0673 181.862 15.7173 181.862 15.4467C181.862 15.288 181.857 15.0827 181.848 14.8307C181.839 14.5787 181.811 14.3687 181.764 14.2007L183.122 14.2287ZM190.416 14.6207C190.668 14.938 190.906 15.3113 191.13 15.7407C191.363 16.1607 191.573 16.6133 191.76 17.0987C191.956 17.5747 192.129 18.0693 192.278 18.5827C192.437 19.096 192.563 19.6093 192.656 20.1227C192.759 20.6267 192.833 21.112 192.88 21.5787L191.76 22.0407C191.704 21.406 191.606 20.762 191.466 20.1087C191.326 19.446 191.153 18.8067 190.948 18.1907C190.743 17.5653 190.505 16.9773 190.234 16.4267C189.963 15.876 189.66 15.4 189.324 14.9987L190.416 14.6207Z" fill="black"/>
</svg>
