<svg width="292" height="37" viewBox="0 0 292 37" fill="none" xmlns="http://www.w3.org/2000/svg">
<path d="M4.494 13.7947H13.468V14.7607H4.494V13.7947ZM5.88 17.0147V19.1147H11.998V17.0147H5.88ZM4.9 16.1327H13.006V20.0107H4.9V16.1327ZM5.782 20.2907C6.22067 21.028 6.818 21.6627 7.574 22.1947C8.33933 22.7267 9.23067 23.1607 10.248 23.4967C11.2747 23.8327 12.3947 24.066 13.608 24.1967C13.5333 24.2713 13.454 24.3647 13.37 24.4767C13.286 24.5887 13.2113 24.7007 13.146 24.8127C13.0807 24.934 13.0247 25.046 12.978 25.1487C11.7367 24.962 10.598 24.6727 9.562 24.2807C8.526 23.898 7.616 23.4033 6.832 22.7967C6.048 22.1807 5.404 21.4433 4.9 20.5847L5.782 20.2907ZM8.386 12.2967H9.408V18.4847C9.408 19.026 9.38 19.5627 9.324 20.0947C9.268 20.6267 9.15133 21.14 8.974 21.6347C8.79667 22.1293 8.53067 22.596 8.176 23.0347C7.82133 23.4733 7.35467 23.8747 6.776 24.2387C6.20667 24.6027 5.488 24.9107 4.62 25.1627C4.57333 25.088 4.51267 24.9947 4.438 24.8827C4.36333 24.78 4.28867 24.6727 4.214 24.5607C4.13933 24.4487 4.06 24.36 3.976 24.2947C4.816 24.08 5.50667 23.8187 6.048 23.5107C6.58933 23.2027 7.014 22.8573 7.322 22.4747C7.63933 22.0827 7.87267 21.672 8.022 21.2427C8.17133 20.804 8.26933 20.3513 8.316 19.8847C8.36267 19.418 8.386 18.9513 8.386 18.4847V12.2967ZM3.892 12.2127L4.872 12.5207C4.55467 13.3047 4.18133 14.0793 3.752 14.8447C3.332 15.61 2.87467 16.3287 2.38 17.0007C1.89467 17.6727 1.39533 18.27 0.882 18.7927C0.844667 18.7087 0.788667 18.6013 0.714 18.4707C0.648667 18.34 0.578667 18.2093 0.504 18.0787C0.429333 17.948 0.359333 17.8407 0.294 17.7567C0.760667 17.3087 1.218 16.7907 1.666 16.2027C2.114 15.6053 2.52933 14.9707 2.912 14.2987C3.29467 13.6173 3.62133 12.922 3.892 12.2127ZM2.422 15.8667L3.402 14.8727L3.43 14.8867V25.1767H2.422V15.8667ZM16.744 13.2207H25.802V14.2287H16.744V13.2207ZM16.744 16.4827H25.774V17.4767H16.744V16.4827ZM16.66 19.8287H25.802V20.8227H16.66V19.8287ZM16.142 13.2207H17.178V18.3027C17.178 18.8347 17.1547 19.404 17.108 20.0107C17.0613 20.6173 16.9727 21.2333 16.842 21.8587C16.7207 22.4747 16.5293 23.0673 16.268 23.6367C16.016 24.206 15.68 24.724 15.26 25.1907C15.2133 25.116 15.1387 25.032 15.036 24.9387C14.9333 24.8547 14.8307 24.7707 14.728 24.6867C14.6253 24.6027 14.532 24.542 14.448 24.5047C14.84 24.066 15.148 23.59 15.372 23.0767C15.596 22.5633 15.764 22.036 15.876 21.4947C15.988 20.944 16.058 20.398 16.086 19.8567C16.1233 19.3153 16.142 18.7973 16.142 18.3027V13.2207ZM25.382 13.2207H26.418V23.6927C26.418 24.0287 26.3667 24.2853 26.264 24.4627C26.1707 24.64 26.0073 24.7753 25.774 24.8687C25.5407 24.9527 25.214 25.004 24.794 25.0227C24.374 25.0413 23.8327 25.046 23.17 25.0367C23.142 24.906 23.0907 24.738 23.016 24.5327C22.9507 24.3367 22.8807 24.1687 22.806 24.0287C23.1327 24.038 23.4453 24.0427 23.744 24.0427C24.052 24.052 24.318 24.052 24.542 24.0427C24.766 24.0427 24.92 24.0427 25.004 24.0427C25.144 24.0333 25.242 24.0053 25.298 23.9587C25.354 23.912 25.382 23.8233 25.382 23.6927V13.2207ZM20.538 13.5987H21.602V24.9947H20.538V13.5987ZM29.652 13.4167H33.516V22.5167H29.652V21.5647H32.536V14.3687H29.652V13.4167ZM29.694 17.4347H32.9V18.3727H29.694V17.4347ZM29.134 13.4167H30.142V23.6507H29.134V13.4167ZM34.16 15.0407H41.468V16.0907H34.16V15.0407ZM38.696 12.3107H39.76V23.5387C39.76 23.9213 39.704 24.2013 39.592 24.3787C39.4893 24.5653 39.312 24.7007 39.06 24.7847C38.808 24.878 38.4533 24.934 37.996 24.9527C37.5387 24.9713 36.96 24.9807 36.26 24.9807C36.232 24.8313 36.1807 24.6493 36.106 24.4347C36.0313 24.2293 35.952 24.052 35.868 23.9027C36.2413 23.912 36.5913 23.9213 36.918 23.9307C37.254 23.94 37.5433 23.9447 37.786 23.9447C38.0287 23.9353 38.2013 23.926 38.304 23.9167C38.444 23.9167 38.542 23.8887 38.598 23.8327C38.6633 23.7767 38.696 23.6787 38.696 23.5387V12.3107ZM34.636 17.6727L35.504 17.2107C35.756 17.5653 36.022 17.948 36.302 18.3587C36.582 18.7693 36.8433 19.166 37.086 19.5487C37.338 19.9313 37.5433 20.2673 37.702 20.5567L36.778 21.0887C36.6287 20.7993 36.4327 20.4587 36.19 20.0667C35.9567 19.6653 35.7 19.2547 35.42 18.8347C35.1493 18.4147 34.888 18.0273 34.636 17.6727ZM45.332 25.0367C45.3133 24.9433 45.276 24.8407 45.22 24.7287C45.1733 24.6167 45.122 24.5 45.066 24.3787C45.0193 24.2667 44.9633 24.1733 44.898 24.0987C45.0193 24.052 45.1453 23.9633 45.276 23.8327C45.4067 23.702 45.472 23.5013 45.472 23.2307V12.3107H46.564V24.0987C46.564 24.0987 46.522 24.1173 46.438 24.1547C46.354 24.2013 46.2513 24.2573 46.13 24.3227C46.0087 24.388 45.8873 24.458 45.766 24.5327C45.6447 24.6167 45.542 24.7007 45.458 24.7847C45.374 24.878 45.332 24.962 45.332 25.0367ZM45.332 25.0367L45.262 24.0847L45.808 23.6507L49.938 22.6427C49.938 22.792 49.9473 22.9647 49.966 23.1607C49.994 23.3473 50.0173 23.5013 50.036 23.6227C49.0747 23.884 48.3 24.094 47.712 24.2527C47.1333 24.4113 46.6853 24.5373 46.368 24.6307C46.06 24.7333 45.8313 24.8127 45.682 24.8687C45.5327 24.9247 45.416 24.9807 45.332 25.0367ZM42.784 17.7147H55.216V18.7647H42.784V17.7147ZM49.63 18.2047C49.9567 19.1007 50.3953 19.9127 50.946 20.6407C51.4967 21.3687 52.1593 21.994 52.934 22.5167C53.7087 23.0393 54.5767 23.4407 55.538 23.7207C55.454 23.7953 55.3653 23.8887 55.272 24.0007C55.1787 24.122 55.09 24.2433 55.006 24.3647C54.922 24.486 54.852 24.6027 54.796 24.7147C53.7973 24.3787 52.9013 23.9167 52.108 23.3287C51.324 22.7407 50.6427 22.036 50.064 21.2147C49.4947 20.3933 49.0233 19.474 48.65 18.4567L49.63 18.2047ZM52.766 12.5487L53.816 12.9967C53.3587 13.538 52.8267 14.056 52.22 14.5507C51.6227 15.036 50.9973 15.4887 50.344 15.9087C49.6907 16.3193 49.0467 16.6833 48.412 17.0007C48.3467 16.9167 48.2627 16.8233 48.16 16.7207C48.0573 16.618 47.95 16.5153 47.838 16.4127C47.726 16.3007 47.6233 16.212 47.53 16.1467C48.1927 15.876 48.846 15.554 49.49 15.1807C50.1433 14.8073 50.75 14.3967 51.31 13.9487C51.8793 13.4913 52.3647 13.0247 52.766 12.5487ZM56.91 12.9827H69.09V13.9347H56.91V12.9827ZM62.538 13.3887H63.63V18.8207C63.63 19.362 63.588 19.8893 63.504 20.4027C63.42 20.9067 63.2567 21.392 63.014 21.8587C62.7713 22.3253 62.4167 22.764 61.95 23.1747C61.4833 23.5853 60.8673 23.954 60.102 24.2807C59.346 24.6073 58.408 24.892 57.288 25.1347C57.2507 25.0507 57.1947 24.9527 57.12 24.8407C57.0453 24.7287 56.966 24.612 56.882 24.4907C56.8073 24.3787 56.7327 24.2853 56.658 24.2107C57.75 24.0053 58.6553 23.7627 59.374 23.4827C60.0927 23.2027 60.662 22.89 61.082 22.5447C61.5113 22.19 61.8287 21.8167 62.034 21.4247C62.2393 21.0233 62.3747 20.6033 62.44 20.1647C62.5053 19.726 62.538 19.2733 62.538 18.8067V13.3887ZM59.192 18.2467V19.6747H67.172V18.2467H59.192ZM59.192 16.0067V17.4067H67.172V16.0067H59.192ZM58.184 15.1247H68.222V20.5427H58.184V15.1247ZM59.528 20.6687C59.976 21.3593 60.5127 21.9193 61.138 22.3487C61.7633 22.778 62.4867 23.1093 63.308 23.3427C64.1387 23.576 65.072 23.744 66.108 23.8467C67.144 23.94 68.2967 24.0053 69.566 24.0427C69.4727 24.164 69.3793 24.3227 69.286 24.5187C69.202 24.7147 69.146 24.9013 69.118 25.0787C67.8207 25.0227 66.6353 24.9247 65.562 24.7847C64.4887 24.654 63.518 24.444 62.65 24.1547C61.782 23.8747 61.012 23.4827 60.34 22.9787C59.668 22.4747 59.0987 21.826 58.632 21.0327L59.528 20.6687ZM76.454 12.2547H77.532V19.3667C77.532 19.6933 77.4853 19.9453 77.392 20.1227C77.308 20.2907 77.1447 20.4167 76.902 20.5007C76.6687 20.5847 76.356 20.6407 75.964 20.6687C75.572 20.6873 75.082 20.6967 74.494 20.6967C74.4753 20.5473 74.4287 20.37 74.354 20.1647C74.2793 19.9593 74.1953 19.782 74.102 19.6327C74.4193 19.6327 74.7133 19.6327 74.984 19.6327C75.264 19.6327 75.5067 19.6327 75.712 19.6327C75.9173 19.6327 76.062 19.6327 76.146 19.6327C76.2673 19.6327 76.3467 19.614 76.384 19.5767C76.4307 19.5393 76.454 19.4647 76.454 19.3527V12.2547ZM79.492 14.3687L80.444 13.8787C80.8547 14.3453 81.2607 14.854 81.662 15.4047C82.0633 15.9553 82.4273 16.5013 82.754 17.0427C83.0807 17.584 83.3327 18.0693 83.51 18.4987L82.46 19.0727C82.3013 18.6433 82.0633 18.158 81.746 17.6167C81.4287 17.066 81.074 16.506 80.682 15.9367C80.29 15.3673 79.8933 14.8447 79.492 14.3687ZM80.416 18.1907L81.508 18.5267C81.1813 19.516 80.752 20.3793 80.22 21.1167C79.688 21.854 79.0393 22.4887 78.274 23.0207C77.518 23.5527 76.6313 23.9913 75.614 24.3367C74.5967 24.682 73.4393 24.9527 72.142 25.1487C72.0953 24.99 72.016 24.8127 71.904 24.6167C71.8013 24.4207 71.694 24.2527 71.582 24.1127C72.8233 23.954 73.9247 23.7253 74.886 23.4267C75.8473 23.1187 76.6873 22.7313 77.406 22.2647C78.1247 21.7887 78.7313 21.2147 79.226 20.5427C79.7207 19.8707 80.1173 19.0867 80.416 18.1907ZM73.36 14.0187L74.508 14.2987C74.284 14.8587 74.0133 15.442 73.696 16.0487C73.3787 16.646 73.0333 17.2247 72.66 17.7847C72.2867 18.3353 71.89 18.8207 71.47 19.2407C71.386 19.1753 71.288 19.1053 71.176 19.0307C71.0733 18.9467 70.9613 18.8673 70.84 18.7927C70.728 18.718 70.6253 18.6573 70.532 18.6107C70.9427 18.2187 71.33 17.766 71.694 17.2527C72.058 16.73 72.38 16.1887 72.66 15.6287C72.9493 15.0687 73.1827 14.532 73.36 14.0187Z" fill="black"/>
<path d="M179.452 1.52943C181.459 1.18085 183.541 1.18085 185.548 1.52943V1.52943C187.543 1.87588 189.497 2.57853 191.258 3.57943V3.57943C193.008 4.5744 194.603 5.89349 195.909 7.42572V7.42572C197.21 8.95345 198.248 10.7213 198.944 12.6039V12.6039C199.641 14.4893 200 16.4908 200 18.5008V18.5008C200 20.5108 199.641 22.5123 198.944 24.3977V24.3977C198.248 26.2803 197.21 28.0482 195.909 29.5759V29.5759C194.603 31.1081 193.008 32.4272 191.258 33.4222V33.4222C189.497 34.4231 187.543 35.1257 185.548 35.4722V35.4722C183.541 35.8207 181.459 35.8207 179.452 35.4722V35.4722C177.457 35.1257 175.503 34.4231 173.742 33.4222V33.4222C171.992 32.4272 170.397 31.1081 169.091 29.5759V29.5759C167.79 28.0481 166.752 26.2803 166.056 24.3977V24.3977C165.359 22.5123 165 20.5108 165 18.5008V18.5008C165 16.4908 165.359 14.4893 166.056 12.6039V12.6039C166.752 10.7213 167.79 8.95345 169.091 7.42572V7.42572C170.397 5.89349 171.992 4.5744 173.742 3.57943V3.57943C175.503 2.57853 177.457 1.87588 179.452 1.52943V1.52943Z" stroke="black"/>
<path d="M98.8736 9.49453C99.9473 9.28095 101.053 9.28095 102.126 9.49453V9.49453C103.2 9.70812 104.221 10.1311 105.132 10.7393V10.7393C106.042 11.3476 106.823 12.1291 107.432 13.0394V13.0394C108.04 13.9497 108.463 14.9709 108.676 16.0446V16.0446C108.89 17.1184 108.89 18.2237 108.676 19.2974V19.2974C108.463 20.3712 108.04 21.3923 107.432 22.3026V22.3026C106.823 23.2129 106.042 23.9945 105.132 24.6027V24.6027C104.221 25.2109 103.2 25.6339 102.126 25.8475V25.8475C101.053 26.0611 99.9473 26.0611 98.8736 25.8475V25.8475C97.7998 25.6339 96.7787 25.2109 95.8684 24.6027V24.6027C94.9581 23.9945 94.1765 23.2129 93.5683 22.3026V22.3026C92.9601 21.3923 92.5371 20.3712 92.3235 19.2974V19.2974C92.1099 18.2237 92.1099 17.1184 92.3235 16.0446V16.0446C92.5371 14.9709 92.9601 13.9497 93.5683 13.0394V13.0394C94.1765 12.1291 94.9581 11.3476 95.8684 10.7393V10.7393C96.7787 10.1311 97.7998 9.70812 98.8736 9.49453V9.49453Z" stroke="black"/>
<path d="M155.354 18.5247C155.549 18.3294 155.549 18.0129 155.354 17.8176L152.172 14.6356C151.976 14.4403 151.66 14.4403 151.464 14.6356C151.269 14.8309 151.269 15.1475 151.464 15.3427L154.293 18.1711L151.464 20.9996C151.269 21.1948 151.269 21.5114 151.464 21.7067C151.66 21.9019 151.976 21.9019 152.172 21.7067L155.354 18.5247ZM117 18.1711V18.6711H155V18.1711V17.6711H117V18.1711Z" fill="black"/>
<path d="M212.494 13.7947H221.468V14.7607H212.494V13.7947ZM213.88 17.0147V19.1147H219.998V17.0147H213.88ZM212.9 16.1327H221.006V20.0107H212.9V16.1327ZM213.782 20.2907C214.221 21.028 214.818 21.6627 215.574 22.1947C216.339 22.7267 217.231 23.1607 218.248 23.4967C219.275 23.8327 220.395 24.066 221.608 24.1967C221.533 24.2713 221.454 24.3647 221.37 24.4767C221.286 24.5887 221.211 24.7007 221.146 24.8127C221.081 24.934 221.025 25.046 220.978 25.1487C219.737 24.962 218.598 24.6727 217.562 24.2807C216.526 23.898 215.616 23.4033 214.832 22.7967C214.048 22.1807 213.404 21.4433 212.9 20.5847L213.782 20.2907ZM216.386 12.2967H217.408V18.4847C217.408 19.026 217.38 19.5627 217.324 20.0947C217.268 20.6267 217.151 21.14 216.974 21.6347C216.797 22.1293 216.531 22.596 216.176 23.0347C215.821 23.4733 215.355 23.8747 214.776 24.2387C214.207 24.6027 213.488 24.9107 212.62 25.1627C212.573 25.088 212.513 24.9947 212.438 24.8827C212.363 24.78 212.289 24.6727 212.214 24.5607C212.139 24.4487 212.06 24.36 211.976 24.2947C212.816 24.08 213.507 23.8187 214.048 23.5107C214.589 23.2027 215.014 22.8573 215.322 22.4747C215.639 22.0827 215.873 21.672 216.022 21.2427C216.171 20.804 216.269 20.3513 216.316 19.8847C216.363 19.418 216.386 18.9513 216.386 18.4847V12.2967ZM211.892 12.2127L212.872 12.5207C212.555 13.3047 212.181 14.0793 211.752 14.8447C211.332 15.61 210.875 16.3287 210.38 17.0007C209.895 17.6727 209.395 18.27 208.882 18.7927C208.845 18.7087 208.789 18.6013 208.714 18.4707C208.649 18.34 208.579 18.2093 208.504 18.0787C208.429 17.948 208.359 17.8407 208.294 17.7567C208.761 17.3087 209.218 16.7907 209.666 16.2027C210.114 15.6053 210.529 14.9707 210.912 14.2987C211.295 13.6173 211.621 12.922 211.892 12.2127ZM210.422 15.8667L211.402 14.8727L211.43 14.8867V25.1767H210.422V15.8667ZM224.744 13.2207H233.802V14.2287H224.744V13.2207ZM224.744 16.4827H233.774V17.4767H224.744V16.4827ZM224.66 19.8287H233.802V20.8227H224.66V19.8287ZM224.142 13.2207H225.178V18.3027C225.178 18.8347 225.155 19.404 225.108 20.0107C225.061 20.6173 224.973 21.2333 224.842 21.8587C224.721 22.4747 224.529 23.0673 224.268 23.6367C224.016 24.206 223.68 24.724 223.26 25.1907C223.213 25.116 223.139 25.032 223.036 24.9387C222.933 24.8547 222.831 24.7707 222.728 24.6867C222.625 24.6027 222.532 24.542 222.448 24.5047C222.84 24.066 223.148 23.59 223.372 23.0767C223.596 22.5633 223.764 22.036 223.876 21.4947C223.988 20.944 224.058 20.398 224.086 19.8567C224.123 19.3153 224.142 18.7973 224.142 18.3027V13.2207ZM233.382 13.2207H234.418V23.6927C234.418 24.0287 234.367 24.2853 234.264 24.4627C234.171 24.64 234.007 24.7753 233.774 24.8687C233.541 24.9527 233.214 25.004 232.794 25.0227C232.374 25.0413 231.833 25.046 231.17 25.0367C231.142 24.906 231.091 24.738 231.016 24.5327C230.951 24.3367 230.881 24.1687 230.806 24.0287C231.133 24.038 231.445 24.0427 231.744 24.0427C232.052 24.052 232.318 24.052 232.542 24.0427C232.766 24.0427 232.92 24.0427 233.004 24.0427C233.144 24.0333 233.242 24.0053 233.298 23.9587C233.354 23.912 233.382 23.8233 233.382 23.6927V13.2207ZM228.538 13.5987H229.602V24.9947H228.538V13.5987ZM237.652 13.4167H241.516V22.5167H237.652V21.5647H240.536V14.3687H237.652V13.4167ZM237.694 17.4347H240.9V18.3727H237.694V17.4347ZM237.134 13.4167H238.142V23.6507H237.134V13.4167ZM242.16 15.0407H249.468V16.0907H242.16V15.0407ZM246.696 12.3107H247.76V23.5387C247.76 23.9213 247.704 24.2013 247.592 24.3787C247.489 24.5653 247.312 24.7007 247.06 24.7847C246.808 24.878 246.453 24.934 245.996 24.9527C245.539 24.9713 244.96 24.9807 244.26 24.9807C244.232 24.8313 244.181 24.6493 244.106 24.4347C244.031 24.2293 243.952 24.052 243.868 23.9027C244.241 23.912 244.591 23.9213 244.918 23.9307C245.254 23.94 245.543 23.9447 245.786 23.9447C246.029 23.9353 246.201 23.926 246.304 23.9167C246.444 23.9167 246.542 23.8887 246.598 23.8327C246.663 23.7767 246.696 23.6787 246.696 23.5387V12.3107ZM242.636 17.6727L243.504 17.2107C243.756 17.5653 244.022 17.948 244.302 18.3587C244.582 18.7693 244.843 19.166 245.086 19.5487C245.338 19.9313 245.543 20.2673 245.702 20.5567L244.778 21.0887C244.629 20.7993 244.433 20.4587 244.19 20.0667C243.957 19.6653 243.7 19.2547 243.42 18.8347C243.149 18.4147 242.888 18.0273 242.636 17.6727ZM253.332 25.0367C253.313 24.9433 253.276 24.8407 253.22 24.7287C253.173 24.6167 253.122 24.5 253.066 24.3787C253.019 24.2667 252.963 24.1733 252.898 24.0987C253.019 24.052 253.145 23.9633 253.276 23.8327C253.407 23.702 253.472 23.5013 253.472 23.2307V12.3107H254.564V24.0987C254.564 24.0987 254.522 24.1173 254.438 24.1547C254.354 24.2013 254.251 24.2573 254.13 24.3227C254.009 24.388 253.887 24.458 253.766 24.5327C253.645 24.6167 253.542 24.7007 253.458 24.7847C253.374 24.878 253.332 24.962 253.332 25.0367ZM253.332 25.0367L253.262 24.0847L253.808 23.6507L257.938 22.6427C257.938 22.792 257.947 22.9647 257.966 23.1607C257.994 23.3473 258.017 23.5013 258.036 23.6227C257.075 23.884 256.3 24.094 255.712 24.2527C255.133 24.4113 254.685 24.5373 254.368 24.6307C254.06 24.7333 253.831 24.8127 253.682 24.8687C253.533 24.9247 253.416 24.9807 253.332 25.0367ZM250.784 17.7147H263.216V18.7647H250.784V17.7147ZM257.63 18.2047C257.957 19.1007 258.395 19.9127 258.946 20.6407C259.497 21.3687 260.159 21.994 260.934 22.5167C261.709 23.0393 262.577 23.4407 263.538 23.7207C263.454 23.7953 263.365 23.8887 263.272 24.0007C263.179 24.122 263.09 24.2433 263.006 24.3647C262.922 24.486 262.852 24.6027 262.796 24.7147C261.797 24.3787 260.901 23.9167 260.108 23.3287C259.324 22.7407 258.643 22.036 258.064 21.2147C257.495 20.3933 257.023 19.474 256.65 18.4567L257.63 18.2047ZM260.766 12.5487L261.816 12.9967C261.359 13.538 260.827 14.056 260.22 14.5507C259.623 15.036 258.997 15.4887 258.344 15.9087C257.691 16.3193 257.047 16.6833 256.412 17.0007C256.347 16.9167 256.263 16.8233 256.16 16.7207C256.057 16.618 255.95 16.5153 255.838 16.4127C255.726 16.3007 255.623 16.212 255.53 16.1467C256.193 15.876 256.846 15.554 257.49 15.1807C258.143 14.8073 258.75 14.3967 259.31 13.9487C259.879 13.4913 260.365 13.0247 260.766 12.5487ZM264.91 12.9827H277.09V13.9347H264.91V12.9827ZM270.538 13.3887H271.63V18.8207C271.63 19.362 271.588 19.8893 271.504 20.4027C271.42 20.9067 271.257 21.392 271.014 21.8587C270.771 22.3253 270.417 22.764 269.95 23.1747C269.483 23.5853 268.867 23.954 268.102 24.2807C267.346 24.6073 266.408 24.892 265.288 25.1347C265.251 25.0507 265.195 24.9527 265.12 24.8407C265.045 24.7287 264.966 24.612 264.882 24.4907C264.807 24.3787 264.733 24.2853 264.658 24.2107C265.75 24.0053 266.655 23.7627 267.374 23.4827C268.093 23.2027 268.662 22.89 269.082 22.5447C269.511 22.19 269.829 21.8167 270.034 21.4247C270.239 21.0233 270.375 20.6033 270.44 20.1647C270.505 19.726 270.538 19.2733 270.538 18.8067V13.3887ZM267.192 18.2467V19.6747H275.172V18.2467H267.192ZM267.192 16.0067V17.4067H275.172V16.0067H267.192ZM266.184 15.1247H276.222V20.5427H266.184V15.1247ZM267.528 20.6687C267.976 21.3593 268.513 21.9193 269.138 22.3487C269.763 22.778 270.487 23.1093 271.308 23.3427C272.139 23.576 273.072 23.744 274.108 23.8467C275.144 23.94 276.297 24.0053 277.566 24.0427C277.473 24.164 277.379 24.3227 277.286 24.5187C277.202 24.7147 277.146 24.9013 277.118 25.0787C275.821 25.0227 274.635 24.9247 273.562 24.7847C272.489 24.654 271.518 24.444 270.65 24.1547C269.782 23.8747 269.012 23.4827 268.34 22.9787C267.668 22.4747 267.099 21.826 266.632 21.0327L267.528 20.6687ZM281.514 15.3347L282.228 14.7187C282.573 14.8773 282.933 15.064 283.306 15.2787C283.689 15.4933 284.043 15.7127 284.37 15.9367C284.706 16.1607 284.981 16.3707 285.196 16.5667L284.454 17.2527C284.249 17.0567 283.983 16.8467 283.656 16.6227C283.329 16.3893 282.979 16.1607 282.606 15.9367C282.233 15.7033 281.869 15.5027 281.514 15.3347ZM287.996 13.4167H288.206L288.388 13.3747L289.06 13.7807C288.603 14.5927 288.019 15.33 287.31 15.9927C286.601 16.646 285.807 17.2247 284.93 17.7287C284.062 18.2233 283.152 18.648 282.2 19.0027C281.257 19.348 280.324 19.6233 279.4 19.8287C279.353 19.6887 279.283 19.53 279.19 19.3527C279.097 19.166 279.003 19.012 278.91 18.8907C279.797 18.732 280.693 18.4987 281.598 18.1907C282.503 17.8733 283.371 17.4907 284.202 17.0427C285.033 16.5853 285.775 16.0673 286.428 15.4887C287.091 14.91 287.613 14.2753 287.996 13.5847V13.4167ZM283.306 13.4167H288.248V14.3127H283.306V13.4167ZM284.342 12.2127L285.532 12.4647C284.879 13.2113 284.071 13.9207 283.11 14.5927C282.158 15.2647 281.033 15.862 279.736 16.3847C279.689 16.3007 279.624 16.2073 279.54 16.1047C279.456 16.002 279.367 15.9087 279.274 15.8247C279.181 15.7313 279.092 15.6567 279.008 15.6007C279.857 15.302 280.623 14.966 281.304 14.5927C281.985 14.2193 282.583 13.8273 283.096 13.4167C283.609 13.006 284.025 12.6047 284.342 12.2127ZM283.306 20.4587L284.09 19.8567C284.454 20.0433 284.832 20.2627 285.224 20.5147C285.625 20.7573 285.999 21.0093 286.344 21.2707C286.689 21.5227 286.974 21.7653 287.198 21.9987L286.372 22.6707C286.167 22.4373 285.891 22.1947 285.546 21.9427C285.21 21.6813 284.846 21.42 284.454 21.1587C284.062 20.8973 283.679 20.664 283.306 20.4587ZM290.026 18.3167H290.25L290.446 18.2747L291.132 18.6527C290.684 19.67 290.091 20.552 289.354 21.2987C288.617 22.0453 287.772 22.6753 286.82 23.1887C285.868 23.6927 284.846 24.1033 283.754 24.4207C282.671 24.738 281.561 24.9807 280.422 25.1487C280.385 25.0087 280.319 24.8407 280.226 24.6447C280.142 24.458 280.053 24.3087 279.96 24.1967C281.043 24.066 282.102 23.8607 283.138 23.5807C284.183 23.2913 285.154 22.918 286.05 22.4607C286.955 22.0033 287.749 21.448 288.43 20.7947C289.121 20.132 289.653 19.362 290.026 18.4847V18.3167ZM285.49 18.3167H290.306V19.2267H285.49V18.3167ZM286.61 17.0147L287.786 17.2807C287.077 18.102 286.167 18.8813 285.056 19.6187C283.945 20.356 282.62 20.9953 281.08 21.5367C281.043 21.4527 280.982 21.3593 280.898 21.2567C280.823 21.154 280.744 21.056 280.66 20.9627C280.585 20.86 280.511 20.7807 280.436 20.7247C281.416 20.4073 282.307 20.048 283.11 19.6467C283.913 19.2453 284.608 18.816 285.196 18.3587C285.784 17.9013 286.255 17.4533 286.61 17.0147Z" fill="black"/>
</svg>
