<svg width="264" height="37" viewBox="0 0 264 37" fill="none" xmlns="http://www.w3.org/2000/svg">
<path d="M1.596 24.0007V14.2007H2.632V23.1047H8.12V24.0007H1.596ZM12.6428 24.0707C11.8774 24.0707 11.2054 23.912 10.6268 23.5947C10.0481 23.268 9.59543 22.8247 9.26877 22.2647C8.9421 21.6953 8.77877 21.0467 8.77877 20.3187C8.77877 19.5907 8.93277 18.9467 9.24077 18.3867C9.5581 17.8267 9.98743 17.388 10.5288 17.0707C11.0794 16.744 11.6954 16.5807 12.3768 16.5807C13.0674 16.5807 13.6788 16.7393 14.2108 17.0567C14.7521 17.3647 15.1768 17.8033 15.4848 18.3727C15.7928 18.9327 15.9468 19.5813 15.9468 20.3187C15.9468 20.3653 15.9421 20.4167 15.9328 20.4727C15.9328 20.5193 15.9328 20.5707 15.9328 20.6267H9.53477V19.8847H15.4008L15.0088 20.1787C15.0088 19.6467 14.8921 19.1753 14.6588 18.7647C14.4348 18.3447 14.1268 18.018 13.7348 17.7847C13.3428 17.5513 12.8901 17.4347 12.3768 17.4347C11.8728 17.4347 11.4201 17.5513 11.0188 17.7847C10.6174 18.018 10.3048 18.3447 10.0808 18.7647C9.85677 19.1847 9.74477 19.6653 9.74477 20.2067V20.3607C9.74477 20.9207 9.8661 21.4153 10.1088 21.8447C10.3608 22.2647 10.7061 22.596 11.1448 22.8387C11.5928 23.072 12.1014 23.1887 12.6708 23.1887C13.1188 23.1887 13.5341 23.1093 13.9168 22.9507C14.3088 22.792 14.6448 22.5493 14.9248 22.2227L15.4848 22.8667C15.1581 23.2587 14.7474 23.5573 14.2528 23.7627C13.7674 23.968 13.2308 24.0707 12.6428 24.0707ZM19.944 24.0707C19.3373 24.0707 18.7633 23.9867 18.222 23.8187C17.6807 23.6413 17.256 23.422 16.948 23.1607L17.396 22.3767C17.6947 22.6007 18.0773 22.7967 18.544 22.9647C19.0107 23.1233 19.5007 23.2027 20.014 23.2027C20.714 23.2027 21.218 23.0953 21.526 22.8807C21.834 22.6567 21.988 22.3627 21.988 21.9987C21.988 21.728 21.8993 21.518 21.722 21.3687C21.554 21.21 21.33 21.0933 21.05 21.0187C20.77 20.9347 20.4573 20.8647 20.112 20.8087C19.7667 20.7527 19.4213 20.6873 19.076 20.6127C18.74 20.538 18.432 20.4307 18.152 20.2907C17.872 20.1413 17.6433 19.9407 17.466 19.6887C17.298 19.4367 17.214 19.1007 17.214 18.6807C17.214 18.2793 17.326 17.92 17.55 17.6027C17.774 17.2853 18.1007 17.038 18.53 16.8607C18.9687 16.674 19.5007 16.5807 20.126 16.5807C20.602 16.5807 21.078 16.646 21.554 16.7767C22.03 16.898 22.422 17.0613 22.73 17.2667L22.296 18.0647C21.9693 17.8407 21.6193 17.682 21.246 17.5887C20.8727 17.486 20.4993 17.4347 20.126 17.4347C19.4633 17.4347 18.9733 17.5513 18.656 17.7847C18.348 18.0087 18.194 18.298 18.194 18.6527C18.194 18.9327 18.278 19.152 18.446 19.3107C18.6233 19.4693 18.852 19.5953 19.132 19.6887C19.4213 19.7727 19.734 19.8427 20.07 19.8987C20.4153 19.9547 20.756 20.0247 21.092 20.1087C21.4373 20.1833 21.75 20.2907 22.03 20.4307C22.3193 20.5613 22.548 20.7527 22.716 21.0047C22.8933 21.2473 22.982 21.5693 22.982 21.9707C22.982 22.4 22.8607 22.7733 22.618 23.0907C22.3847 23.3987 22.0393 23.6413 21.582 23.8187C21.134 23.9867 20.588 24.0707 19.944 24.0707ZM26.7799 24.0707C26.1733 24.0707 25.5993 23.9867 25.0579 23.8187C24.5166 23.6413 24.0919 23.422 23.7839 23.1607L24.2319 22.3767C24.5306 22.6007 24.9133 22.7967 25.3799 22.9647C25.8466 23.1233 26.3366 23.2027 26.8499 23.2027C27.5499 23.2027 28.0539 23.0953 28.3619 22.8807C28.6699 22.6567 28.8239 22.3627 28.8239 21.9987C28.8239 21.728 28.7353 21.518 28.5579 21.3687C28.3899 21.21 28.1659 21.0933 27.8859 21.0187C27.6059 20.9347 27.2933 20.8647 26.9479 20.8087C26.6026 20.7527 26.2573 20.6873 25.9119 20.6127C25.5759 20.538 25.2679 20.4307 24.9879 20.2907C24.7079 20.1413 24.4793 19.9407 24.3019 19.6887C24.1339 19.4367 24.0499 19.1007 24.0499 18.6807C24.0499 18.2793 24.1619 17.92 24.3859 17.6027C24.6099 17.2853 24.9366 17.038 25.3659 16.8607C25.8046 16.674 26.3366 16.5807 26.9619 16.5807C27.4379 16.5807 27.9139 16.646 28.3899 16.7767C28.8659 16.898 29.2579 17.0613 29.5659 17.2667L29.1319 18.0647C28.8053 17.8407 28.4553 17.682 28.0819 17.5887C27.7086 17.486 27.3353 17.4347 26.9619 17.4347C26.2993 17.4347 25.8093 17.5513 25.4919 17.7847C25.1839 18.0087 25.0299 18.298 25.0299 18.6527C25.0299 18.9327 25.1139 19.152 25.2819 19.3107C25.4593 19.4693 25.6879 19.5953 25.9679 19.6887C26.2573 19.7727 26.5699 19.8427 26.9059 19.8987C27.2513 19.9547 27.5919 20.0247 27.9279 20.1087C28.2733 20.1833 28.5859 20.2907 28.8659 20.4307C29.1553 20.5613 29.3839 20.7527 29.5519 21.0047C29.7293 21.2473 29.8179 21.5693 29.8179 21.9707C29.8179 22.4 29.6966 22.7733 29.4539 23.0907C29.2206 23.3987 28.8753 23.6413 28.4179 23.8187C27.9699 23.9867 27.4239 24.0707 26.7799 24.0707ZM37.6299 24.0707C36.9393 24.0707 36.4073 23.884 36.0339 23.5107C35.6606 23.1373 35.4739 22.61 35.4739 21.9287V15.0267H36.4679V21.8727C36.4679 22.302 36.5753 22.6333 36.7899 22.8667C37.0139 23.1 37.3313 23.2167 37.7419 23.2167C38.1806 23.2167 38.5446 23.0907 38.8339 22.8387L39.1839 23.5527C38.9879 23.73 38.7499 23.8607 38.4699 23.9447C38.1993 24.0287 37.9193 24.0707 37.6299 24.0707ZM34.1579 17.4767V16.6507H38.7079V17.4767H34.1579ZM40.9934 24.0007V16.6507H41.9874V24.0007H40.9934ZM41.4974 15.0267C41.2921 15.0267 41.1194 14.9567 40.9794 14.8167C40.8394 14.6767 40.7694 14.5087 40.7694 14.3127C40.7694 14.1167 40.8394 13.9533 40.9794 13.8227C41.1194 13.6827 41.2921 13.6127 41.4974 13.6127C41.7028 13.6127 41.8754 13.678 42.0154 13.8087C42.1554 13.9393 42.2254 14.1027 42.2254 14.2987C42.2254 14.504 42.1554 14.6767 42.0154 14.8167C41.8848 14.9567 41.7121 15.0267 41.4974 15.0267ZM44.7532 24.0007V16.6507H45.7052V18.6387L45.5512 18.2887C45.7752 17.7567 46.1345 17.3413 46.6292 17.0427C47.1332 16.7347 47.7259 16.5807 48.4072 16.5807C49.1259 16.5807 49.7372 16.7627 50.2412 17.1267C50.7452 17.4813 51.0719 18.018 51.2212 18.7367L50.8292 18.5827C51.0439 17.9853 51.4219 17.5047 51.9632 17.1407C52.5139 16.7673 53.1719 16.5807 53.9372 16.5807C54.5345 16.5807 55.0525 16.6973 55.4912 16.9307C55.9392 17.1547 56.2845 17.5 56.5272 17.9667C56.7792 18.4333 56.9052 19.0213 56.9052 19.7307V24.0007H55.9112V19.8287C55.9112 19.054 55.7245 18.4707 55.3512 18.0787C54.9872 17.6773 54.4692 17.4767 53.7972 17.4767C53.2932 17.4767 52.8545 17.584 52.4812 17.7987C52.1172 18.004 51.8325 18.3073 51.6272 18.7087C51.4312 19.1007 51.3332 19.5767 51.3332 20.1367V24.0007H50.3392V19.8287C50.3392 19.054 50.1525 18.4707 49.7792 18.0787C49.4059 17.6773 48.8832 17.4767 48.2112 17.4767C47.7165 17.4767 47.2825 17.584 46.9092 17.7987C46.5359 18.004 46.2465 18.3073 46.0412 18.7087C45.8452 19.1007 45.7472 19.5767 45.7472 20.1367V24.0007H44.7532ZM62.7228 24.0707C61.9575 24.0707 61.2855 23.912 60.7068 23.5947C60.1282 23.268 59.6755 22.8247 59.3488 22.2647C59.0222 21.6953 58.8588 21.0467 58.8588 20.3187C58.8588 19.5907 59.0128 18.9467 59.3208 18.3867C59.6382 17.8267 60.0675 17.388 60.6088 17.0707C61.1595 16.744 61.7755 16.5807 62.4568 16.5807C63.1475 16.5807 63.7588 16.7393 64.2908 17.0567C64.8322 17.3647 65.2568 17.8033 65.5648 18.3727C65.8728 18.9327 66.0268 19.5813 66.0268 20.3187C66.0268 20.3653 66.0222 20.4167 66.0128 20.4727C66.0128 20.5193 66.0128 20.5707 66.0128 20.6267H59.6148V19.8847H65.4808L65.0888 20.1787C65.0888 19.6467 64.9722 19.1753 64.7388 18.7647C64.5148 18.3447 64.2068 18.018 63.8148 17.7847C63.4228 17.5513 62.9702 17.4347 62.4568 17.4347C61.9528 17.4347 61.5002 17.5513 61.0988 17.7847C60.6975 18.018 60.3848 18.3447 60.1608 18.7647C59.9368 19.1847 59.8248 19.6653 59.8248 20.2067V20.3607C59.8248 20.9207 59.9462 21.4153 60.1888 21.8447C60.4408 22.2647 60.7862 22.596 61.2248 22.8387C61.6728 23.072 62.1815 23.1887 62.7508 23.1887C63.1988 23.1887 63.6142 23.1093 63.9968 22.9507C64.3888 22.792 64.7248 22.5493 65.0048 22.2227L65.5648 22.8667C65.2382 23.2587 64.8275 23.5573 64.3328 23.7627C63.8475 23.968 63.3108 24.0707 62.7228 24.0707Z" fill="black"/>
<path d="M162.452 1.5294C164.459 1.18082 166.541 1.18082 168.548 1.5294V1.5294C170.543 1.87585 172.497 2.5785 174.258 3.5794V3.5794C176.008 4.57437 177.603 5.89346 178.909 7.42569V7.42569C180.21 8.95342 181.248 10.7213 181.944 12.6039V12.6039C182.641 14.4892 183 16.4907 183 18.5008V18.5008C183 20.5108 182.641 22.5123 181.944 24.3977V24.3977C181.248 26.2803 180.21 28.0481 178.909 29.5759V29.5759C177.603 31.1081 176.008 32.4272 174.258 33.4221V33.4221C172.497 34.423 170.543 35.1257 168.548 35.4721V35.4721C166.541 35.8207 164.459 35.8207 162.452 35.4721V35.4721C160.457 35.1257 158.503 34.423 156.742 33.4221V33.4221C154.992 32.4272 153.397 31.1081 152.091 29.5758V29.5758C150.79 28.0481 149.752 26.2803 149.056 24.3977V24.3977C148.359 22.5123 148 20.5108 148 18.5008V18.5008C148 16.4907 148.359 14.4892 149.056 12.6039V12.6039C149.752 10.7213 150.79 8.95342 152.091 7.42569V7.42569C153.397 5.89346 154.992 4.57437 156.742 3.5794V3.5794C158.503 2.5785 160.457 1.87585 162.452 1.5294V1.5294Z" stroke="black"/>
<path d="M81.8736 9.49453C82.9473 9.28095 84.0527 9.28095 85.1264 9.49453V9.49453C86.2002 9.70812 87.2213 10.1311 88.1316 10.7393V10.7393C89.0419 11.3476 89.8235 12.1291 90.4317 13.0394V13.0394C91.0399 13.9497 91.4629 14.9709 91.6765 16.0446V16.0446C91.8901 17.1184 91.8901 18.2237 91.6765 19.2974V19.2974C91.4629 20.3712 91.0399 21.3923 90.4317 22.3026V22.3026C89.8235 23.2129 89.0419 23.9945 88.1316 24.6027V24.6027C87.2213 25.2109 86.2002 25.6339 85.1264 25.8475V25.8475C84.0527 26.0611 82.9473 26.0611 81.8736 25.8475V25.8475C80.7998 25.6339 79.7787 25.2109 78.8684 24.6027V24.6027C77.9581 23.9945 77.1765 23.2129 76.5683 22.3026V22.3026C75.9601 21.3923 75.5371 20.3712 75.3235 19.2974V19.2974C75.1099 18.2237 75.1099 17.1184 75.3235 16.0446V16.0446C75.5371 14.9709 75.9601 13.9497 76.5683 13.0394V13.0394C77.1765 12.1291 77.9581 11.3476 78.8684 10.7393V10.7393C79.7787 10.1311 80.7998 9.70812 81.8736 9.49453V9.49453Z" stroke="black"/>
<path d="M138.354 18.5247C138.549 18.3294 138.549 18.0129 138.354 17.8176L135.172 14.6356C134.976 14.4403 134.66 14.4403 134.464 14.6356C134.269 14.8309 134.269 15.1475 134.464 15.3427L137.293 18.1711L134.464 20.9996C134.269 21.1948 134.269 21.5114 134.464 21.7067C134.66 21.9019 134.976 21.9019 135.172 21.7067L138.354 18.5247ZM100 18.1711V18.6711H138V18.1711V17.6711H100V18.1711Z" fill="black"/>
<path d="M192.596 24.0007V14.2007H193.45L197.93 21.8447H197.482L201.92 14.2007H202.774V24.0007H201.78V15.7547H202.018L197.93 22.7547H197.44L193.324 15.7547H193.59V24.0007H192.596ZM208.753 24.0707C208.044 24.0707 207.404 23.912 206.835 23.5947C206.275 23.268 205.832 22.8247 205.505 22.2647C205.178 21.6953 205.015 21.0467 205.015 20.3187C205.015 19.5813 205.178 18.9327 205.505 18.3727C205.832 17.8127 206.275 17.374 206.835 17.0567C207.395 16.7393 208.034 16.5807 208.753 16.5807C209.481 16.5807 210.125 16.7393 210.685 17.0567C211.254 17.374 211.698 17.8127 212.015 18.3727C212.342 18.9327 212.505 19.5813 212.505 20.3187C212.505 21.0467 212.342 21.6953 212.015 22.2647C211.698 22.8247 211.254 23.268 210.685 23.5947C210.116 23.912 209.472 24.0707 208.753 24.0707ZM208.753 23.1887C209.285 23.1887 209.756 23.072 210.167 22.8387C210.578 22.596 210.9 22.26 211.133 21.8307C211.376 21.392 211.497 20.888 211.497 20.3187C211.497 19.74 211.376 19.236 211.133 18.8067C210.9 18.3773 210.578 18.046 210.167 17.8127C209.756 17.57 209.29 17.4487 208.767 17.4487C208.244 17.4487 207.778 17.57 207.367 17.8127C206.956 18.046 206.63 18.3773 206.387 18.8067C206.144 19.236 206.023 19.74 206.023 20.3187C206.023 20.888 206.144 21.392 206.387 21.8307C206.63 22.26 206.956 22.596 207.367 22.8387C207.778 23.072 208.24 23.1887 208.753 23.1887ZM214.534 24.0007V16.6507H215.486V18.6527L215.388 18.3027C215.594 17.7427 215.939 17.318 216.424 17.0287C216.91 16.73 217.512 16.5807 218.23 16.5807V17.5467C218.193 17.5467 218.156 17.5467 218.118 17.5467C218.081 17.5373 218.044 17.5327 218.006 17.5327C217.232 17.5327 216.625 17.7707 216.186 18.2467C215.748 18.7133 215.528 19.3807 215.528 20.2487V24.0007H214.534ZM223.098 24.0707C222.333 24.0707 221.661 23.912 221.082 23.5947C220.503 23.268 220.051 22.8247 219.724 22.2647C219.397 21.6953 219.234 21.0467 219.234 20.3187C219.234 19.5907 219.388 18.9467 219.696 18.3867C220.013 17.8267 220.443 17.388 220.984 17.0707C221.535 16.744 222.151 16.5807 222.832 16.5807C223.523 16.5807 224.134 16.7393 224.666 17.0567C225.207 17.3647 225.632 17.8033 225.94 18.3727C226.248 18.9327 226.402 19.5813 226.402 20.3187C226.402 20.3653 226.397 20.4167 226.388 20.4727C226.388 20.5193 226.388 20.5707 226.388 20.6267H219.99V19.8847H225.856L225.464 20.1787C225.464 19.6467 225.347 19.1753 225.114 18.7647C224.89 18.3447 224.582 18.018 224.19 17.7847C223.798 17.5513 223.345 17.4347 222.832 17.4347C222.328 17.4347 221.875 17.5513 221.474 17.7847C221.073 18.018 220.76 18.3447 220.536 18.7647C220.312 19.1847 220.2 19.6653 220.2 20.2067V20.3607C220.2 20.9207 220.321 21.4153 220.564 21.8447C220.816 22.2647 221.161 22.596 221.6 22.8387C222.048 23.072 222.557 23.1887 223.126 23.1887C223.574 23.1887 223.989 23.1093 224.372 22.9507C224.764 22.792 225.1 22.5493 225.38 22.2227L225.94 22.8667C225.613 23.2587 225.203 23.5573 224.708 23.7627C224.223 23.968 223.686 24.0707 223.098 24.0707ZM234.413 24.0707C233.722 24.0707 233.19 23.884 232.817 23.5107C232.444 23.1373 232.257 22.61 232.257 21.9287V15.0267H233.251V21.8727C233.251 22.302 233.358 22.6333 233.573 22.8667C233.797 23.1 234.114 23.2167 234.525 23.2167C234.964 23.2167 235.328 23.0907 235.617 22.8387L235.967 23.5527C235.771 23.73 235.533 23.8607 235.253 23.9447C234.982 24.0287 234.702 24.0707 234.413 24.0707ZM230.941 17.4767V16.6507H235.491V17.4767H230.941ZM237.777 24.0007V16.6507H238.771V24.0007H237.777ZM238.281 15.0267C238.075 15.0267 237.903 14.9567 237.763 14.8167C237.623 14.6767 237.553 14.5087 237.553 14.3127C237.553 14.1167 237.623 13.9533 237.763 13.8227C237.903 13.6827 238.075 13.6127 238.281 13.6127C238.486 13.6127 238.659 13.678 238.799 13.8087C238.939 13.9393 239.009 14.1027 239.009 14.2987C239.009 14.504 238.939 14.6767 238.799 14.8167C238.668 14.9567 238.495 15.0267 238.281 15.0267ZM241.536 24.0007V16.6507H242.488V18.6387L242.334 18.2887C242.558 17.7567 242.918 17.3413 243.412 17.0427C243.916 16.7347 244.509 16.5807 245.19 16.5807C245.909 16.5807 246.52 16.7627 247.024 17.1267C247.528 17.4813 247.855 18.018 248.004 18.7367L247.612 18.5827C247.827 17.9853 248.205 17.5047 248.746 17.1407C249.297 16.7673 249.955 16.5807 250.72 16.5807C251.318 16.5807 251.836 16.6973 252.274 16.9307C252.722 17.1547 253.068 17.5 253.31 17.9667C253.562 18.4333 253.688 19.0213 253.688 19.7307V24.0007H252.694V19.8287C252.694 19.054 252.508 18.4707 252.134 18.0787C251.77 17.6773 251.252 17.4767 250.58 17.4767C250.076 17.4767 249.638 17.584 249.264 17.7987C248.9 18.004 248.616 18.3073 248.41 18.7087C248.214 19.1007 248.116 19.5767 248.116 20.1367V24.0007H247.122V19.8287C247.122 19.054 246.936 18.4707 246.562 18.0787C246.189 17.6773 245.666 17.4767 244.994 17.4767C244.5 17.4767 244.066 17.584 243.692 17.7987C243.319 18.004 243.03 18.3073 242.824 18.7087C242.628 19.1007 242.53 19.5767 242.53 20.1367V24.0007H241.536ZM259.506 24.0707C258.741 24.0707 258.069 23.912 257.49 23.5947C256.911 23.268 256.459 22.8247 256.132 22.2647C255.805 21.6953 255.642 21.0467 255.642 20.3187C255.642 19.5907 255.796 18.9467 256.104 18.3867C256.421 17.8267 256.851 17.388 257.392 17.0707C257.943 16.744 258.559 16.5807 259.24 16.5807C259.931 16.5807 260.542 16.7393 261.074 17.0567C261.615 17.3647 262.04 17.8033 262.348 18.3727C262.656 18.9327 262.81 19.5813 262.81 20.3187C262.81 20.3653 262.805 20.4167 262.796 20.4727C262.796 20.5193 262.796 20.5707 262.796 20.6267H256.398V19.8847H262.264L261.872 20.1787C261.872 19.6467 261.755 19.1753 261.522 18.7647C261.298 18.3447 260.99 18.018 260.598 17.7847C260.206 17.5513 259.753 17.4347 259.24 17.4347C258.736 17.4347 258.283 17.5513 257.882 17.7847C257.481 18.018 257.168 18.3447 256.944 18.7647C256.72 19.1847 256.608 19.6653 256.608 20.2067V20.3607C256.608 20.9207 256.729 21.4153 256.972 21.8447C257.224 22.2647 257.569 22.596 258.008 22.8387C258.456 23.072 258.965 23.1887 259.534 23.1887C259.982 23.1887 260.397 23.1093 260.78 22.9507C261.172 22.792 261.508 22.5493 261.788 22.2227L262.348 22.8667C262.021 23.2587 261.611 23.5573 261.116 23.7627C260.631 23.968 260.094 24.0707 259.506 24.0707Z" fill="black"/>
</svg>
