<svg width="210" height="37" viewBox="0 0 210 37" fill="none" xmlns="http://www.w3.org/2000/svg">
<path d="M1.33 21.0047H2.296C3.08933 21.0047 3.79867 20.9953 4.424 20.9767C5.04933 20.9487 5.642 20.9067 6.202 20.8507C6.77133 20.7947 7.34533 20.7107 7.924 20.5987L8.064 21.5507C7.45733 21.672 6.86467 21.7607 6.286 21.8167C5.70733 21.8727 5.10067 21.9147 4.466 21.9427C3.83133 21.9707 3.108 21.9847 2.296 21.9847H1.33V21.0047ZM1.33 13.6267H7.084V14.5927H2.492V21.3547H1.33V13.6267ZM9.968 12.4227H11.13V25.1067H9.968V12.4227ZM6.342 17.0147H10.458V17.9807H6.342V17.0147ZM20.463 13.7107H21.415V14.7467C21.415 15.512 21.2656 16.2307 20.967 16.9027C20.6776 17.5747 20.267 18.1627 19.735 18.6667C19.203 19.1613 18.587 19.5393 17.887 19.8007L17.285 18.8767C17.7516 18.7087 18.1763 18.4847 18.559 18.2047C18.951 17.9247 19.2916 17.6027 19.581 17.2387C19.8703 16.8653 20.0896 16.4687 20.239 16.0487C20.3883 15.6193 20.463 15.1853 20.463 14.7467V13.7107ZM20.687 13.7107H21.639V14.7327C21.639 15.274 21.765 15.8013 22.017 16.3147C22.269 16.8187 22.6283 17.2713 23.095 17.6727C23.5616 18.0647 24.0983 18.3727 24.705 18.5967L24.117 19.5067C23.4263 19.2547 22.8243 18.8907 22.311 18.4147C21.7976 17.9387 21.3963 17.3833 21.107 16.7487C20.827 16.114 20.687 15.442 20.687 14.7327V13.7107ZM24.019 15.7267H26.833V16.6927H24.019V15.7267ZM17.649 13.2907H24.411V14.2427H17.649V13.2907ZM19.203 20.6827H27.659V25.0927H26.497V21.6347H19.203V20.6827ZM26.497 12.4227H27.659V19.9967H26.497V12.4227ZM35.8339 12.7027C36.7485 12.7027 37.5372 12.8007 38.1999 12.9967C38.8719 13.1833 39.3852 13.454 39.7399 13.8087C40.1039 14.1633 40.2859 14.5973 40.2859 15.1107C40.2859 15.6053 40.1039 16.0347 39.7399 16.3987C39.3852 16.7533 38.8719 17.024 38.1999 17.2107C37.5372 17.3973 36.7485 17.4907 35.8339 17.4907C34.9285 17.4907 34.1399 17.3973 33.4679 17.2107C32.8052 17.024 32.2919 16.7533 31.9279 16.3987C31.5639 16.0347 31.3819 15.6053 31.3819 15.1107C31.3819 14.5973 31.5639 14.1633 31.9279 13.8087C32.2919 13.454 32.8052 13.1833 33.4679 12.9967C34.1399 12.8007 34.9285 12.7027 35.8339 12.7027ZM35.8339 13.6267C35.1712 13.6267 34.5925 13.6873 34.0979 13.8087C33.6125 13.9207 33.2345 14.0887 32.9639 14.3127C32.7025 14.5273 32.5719 14.7933 32.5719 15.1107C32.5719 15.4093 32.7025 15.6707 32.9639 15.8947C33.2345 16.1093 33.6125 16.2773 34.0979 16.3987C34.5925 16.5107 35.1712 16.5667 35.8339 16.5667C36.5059 16.5667 37.0845 16.5107 37.5699 16.3987C38.0645 16.2773 38.4425 16.1093 38.7039 15.8947C38.9652 15.6707 39.0959 15.4093 39.0959 15.1107C39.0959 14.7933 38.9652 14.5273 38.7039 14.3127C38.4425 14.0887 38.0645 13.9207 37.5699 13.8087C37.0845 13.6873 36.5059 13.6267 35.8339 13.6267ZM31.5219 20.7527H40.1599V24.9247H31.5219V20.7527ZM39.0259 21.6907H32.6559V23.9727H39.0259V21.6907ZM30.1219 18.5687H41.5599V19.5207H30.1219V18.5687Z" fill="black"/>
<path d="M138.452 1.52943C140.459 1.18085 142.541 1.18085 144.548 1.52943V1.52943C146.543 1.87588 148.497 2.57853 150.258 3.57943V3.57943C152.008 4.5744 153.603 5.89349 154.909 7.42572V7.42572C156.21 8.95345 157.248 10.7213 157.944 12.6039V12.6039C158.641 14.4893 159 16.4908 159 18.5008V18.5008C159 20.5108 158.641 22.5123 157.944 24.3977V24.3977C157.248 26.2803 156.21 28.0482 154.909 29.5759V29.5759C153.603 31.1081 152.008 32.4272 150.258 33.4222V33.4222C148.497 34.4231 146.543 35.1257 144.548 35.4722V35.4722C142.541 35.8207 140.459 35.8207 138.452 35.4722V35.4722C136.457 35.1257 134.503 34.4231 132.742 33.4222V33.4222C130.992 32.4272 129.397 31.1081 128.091 29.5759V29.5759C126.79 28.0481 125.752 26.2803 125.056 24.3977V24.3977C124.359 22.5123 124 20.5108 124 18.5008V18.5008C124 16.4908 124.359 14.4893 125.056 12.6039V12.6039C125.752 10.7213 126.79 8.95345 128.091 7.42572V7.42572C129.397 5.89349 130.992 4.5744 132.742 3.57943V3.57943C134.503 2.57853 136.457 1.87588 138.452 1.52943V1.52943Z" stroke="black"/>
<path d="M57.8736 9.49453C58.9473 9.28095 60.0527 9.28095 61.1264 9.49453V9.49453C62.2002 9.70812 63.2213 10.1311 64.1316 10.7393V10.7393C65.0419 11.3476 65.8235 12.1291 66.4317 13.0394V13.0394C67.0399 13.9497 67.4629 14.9709 67.6765 16.0446V16.0446C67.8901 17.1184 67.8901 18.2237 67.6765 19.2974V19.2974C67.4629 20.3712 67.0399 21.3923 66.4317 22.3026V22.3026C65.8235 23.2129 65.0419 23.9945 64.1316 24.6027V24.6027C63.2213 25.2109 62.2002 25.6339 61.1264 25.8475V25.8475C60.0527 26.0611 58.9473 26.0611 57.8736 25.8475V25.8475C56.7998 25.6339 55.7787 25.2109 54.8684 24.6027V24.6027C53.9581 23.9945 53.1765 23.2129 52.5683 22.3026V22.3026C51.9601 21.3923 51.5371 20.3712 51.3235 19.2974V19.2974C51.1099 18.2237 51.1099 17.1184 51.3235 16.0446V16.0446C51.5371 14.9709 51.9601 13.9497 52.5683 13.0394V13.0394C53.1765 12.1291 53.9581 11.3476 54.8684 10.7393V10.7393C55.7787 10.1311 56.7998 9.70812 57.8736 9.49453V9.49453Z" stroke="black"/>
<path d="M114.354 18.5247C114.549 18.3294 114.549 18.0129 114.354 17.8176L111.172 14.6356C110.976 14.4403 110.66 14.4403 110.464 14.6356C110.269 14.8309 110.269 15.1475 110.464 15.3427L113.293 18.1711L110.464 20.9996C110.269 21.1948 110.269 21.5114 110.464 21.7067C110.66 21.9019 110.976 21.9019 111.172 21.7067L114.354 18.5247ZM76 18.1711V18.6711H114V18.1711V17.6711H76V18.1711Z" fill="black"/>
<path d="M168.33 21.0047H169.296C170.089 21.0047 170.799 20.9953 171.424 20.9767C172.049 20.9487 172.642 20.9067 173.202 20.8507C173.771 20.7947 174.345 20.7107 174.924 20.5987L175.064 21.5507C174.457 21.672 173.865 21.7607 173.286 21.8167C172.707 21.8727 172.101 21.9147 171.466 21.9427C170.831 21.9707 170.108 21.9847 169.296 21.9847H168.33V21.0047ZM168.33 13.6267H174.084V14.5927H169.492V21.3547H168.33V13.6267ZM176.968 12.4227H178.13V25.1067H176.968V12.4227ZM173.342 17.0147H177.458V17.9807H173.342V17.0147ZM192.909 12.4227H194.071V18.8907H192.909V12.4227ZM193.567 15.2787H195.933V16.2447H193.567V15.2787ZM184.761 13.2627H190.585V18.4287H184.761V13.2627ZM189.451 14.1867H185.895V17.4907H189.451V14.1867ZM185.559 23.8047H186.175C186.427 23.8047 186.721 23.7953 187.057 23.7767C187.393 23.7487 187.748 23.7067 188.121 23.6507C188.494 23.5853 188.863 23.492 189.227 23.3707L189.409 24.2947C189.008 24.4253 188.611 24.5233 188.219 24.5887C187.836 24.654 187.472 24.696 187.127 24.7147C186.782 24.7427 186.464 24.7567 186.175 24.7567H185.559V23.8047ZM185.559 20.0387H186.693V24.0567H185.559V20.0387ZM188.961 20.1787H195.303V21.0467H188.961V20.1787ZM192.139 21.5087C192.83 21.5087 193.39 21.672 193.819 21.9987C194.258 22.316 194.477 22.7453 194.477 23.2867C194.477 23.8373 194.258 24.2713 193.819 24.5887C193.39 24.906 192.83 25.0647 192.139 25.0647C191.448 25.0647 190.884 24.906 190.445 24.5887C190.006 24.2713 189.787 23.8373 189.787 23.2867C189.787 22.7453 190.006 22.316 190.445 21.9987C190.884 21.672 191.448 21.5087 192.139 21.5087ZM192.139 22.3347C191.756 22.3347 191.439 22.4233 191.187 22.6007C190.944 22.7687 190.823 22.9973 190.823 23.2867C190.823 23.576 190.944 23.8093 191.187 23.9867C191.439 24.164 191.756 24.2527 192.139 24.2527C192.522 24.2527 192.834 24.164 193.077 23.9867C193.32 23.8093 193.441 23.576 193.441 23.2867C193.441 22.9973 193.32 22.7687 193.077 22.6007C192.834 22.4233 192.522 22.3347 192.139 22.3347ZM191.579 19.0587H192.713V20.7947H191.579V19.0587ZM202.834 12.7027C203.749 12.7027 204.537 12.8007 205.2 12.9967C205.872 13.1833 206.385 13.454 206.74 13.8087C207.104 14.1633 207.286 14.5973 207.286 15.1107C207.286 15.6053 207.104 16.0347 206.74 16.3987C206.385 16.7533 205.872 17.024 205.2 17.2107C204.537 17.3973 203.749 17.4907 202.834 17.4907C201.929 17.4907 201.14 17.3973 200.468 17.2107C199.805 17.024 199.292 16.7533 198.928 16.3987C198.564 16.0347 198.382 15.6053 198.382 15.1107C198.382 14.5973 198.564 14.1633 198.928 13.8087C199.292 13.454 199.805 13.1833 200.468 12.9967C201.14 12.8007 201.929 12.7027 202.834 12.7027ZM202.834 13.6267C202.171 13.6267 201.593 13.6873 201.098 13.8087C200.613 13.9207 200.235 14.0887 199.964 14.3127C199.703 14.5273 199.572 14.7933 199.572 15.1107C199.572 15.4093 199.703 15.6707 199.964 15.8947C200.235 16.1093 200.613 16.2773 201.098 16.3987C201.593 16.5107 202.171 16.5667 202.834 16.5667C203.506 16.5667 204.085 16.5107 204.57 16.3987C205.065 16.2773 205.443 16.1093 205.704 15.8947C205.965 15.6707 206.096 15.4093 206.096 15.1107C206.096 14.7933 205.965 14.5273 205.704 14.3127C205.443 14.0887 205.065 13.9207 204.57 13.8087C204.085 13.6873 203.506 13.6267 202.834 13.6267ZM198.522 20.7527H207.16V24.9247H198.522V20.7527ZM206.026 21.6907H199.656V23.9727H206.026V21.6907ZM197.122 18.5687H208.56V19.5207H197.122V18.5687Z" fill="black"/>
</svg>
