<svg width="35" height="35" viewBox="0 0 35 35" fill="none" xmlns="http://www.w3.org/2000/svg">
<circle cx="17.5" cy="17.5" r="17.5" fill="#16D2FF"/>
<mask id="mask0_2117_379" style="mask-type:alpha" maskUnits="userSpaceOnUse" x="5" y="4" width="25" height="25">
<rect x="5.52631" y="4.91211" width="23.9474" height="23.9474" fill="#D9D9D9"/>
</mask>
<g mask="url(#mask0_2117_379)">
<path d="M17.5002 24.8687C16.702 24.2368 15.8372 23.7462 14.9059 23.397C13.9746 23.0477 13.0101 22.8731 12.0123 22.8731C11.3138 22.8731 10.6278 22.9646 9.95431 23.1475C9.28079 23.3304 8.63638 23.5882 8.02106 23.9208C7.67183 24.1037 7.33507 24.0954 7.01078 23.8959C6.6865 23.6963 6.52435 23.4053 6.52435 23.0228V10.9992C6.52435 10.8163 6.57009 10.6417 6.66155 10.4754C6.75302 10.3091 6.89022 10.1843 7.07315 10.1012C7.83813 9.70206 8.63638 9.40272 9.46788 9.20316C10.2994 9.0036 11.1475 8.90382 12.0123 8.90382C13.2429 8.90382 14.2906 9.04517 15.1554 9.32788C16.0201 9.6106 16.9514 10.043 17.9492 10.625C18.1322 10.7248 18.2694 10.8412 18.3608 10.9743C18.4523 11.1073 18.498 11.2819 18.498 11.4981V21.9252C19.2298 21.576 19.9656 21.314 20.7057 21.1394C21.4457 20.9648 22.2066 20.8775 22.9882 20.8775C23.5869 20.8775 24.1731 20.9274 24.7468 21.0272C25.3205 21.127 25.8984 21.2766 26.4805 21.4762V9.47756C26.7299 9.56071 26.9752 9.65217 27.2164 9.75195C27.4575 9.85173 27.6945 9.96814 27.9273 10.1012C28.1102 10.1843 28.2474 10.3091 28.3389 10.4754C28.4304 10.6417 28.4761 10.8163 28.4761 10.9992V23.0228C28.4761 23.4053 28.314 23.6963 27.9897 23.8959C27.6654 24.0954 27.3286 24.1037 26.9794 23.9208C26.3641 23.5882 25.7197 23.3304 25.0461 23.1475C24.3726 22.9646 23.6866 22.8731 22.9882 22.8731C21.9904 22.8731 21.0258 23.0477 20.0945 23.397C19.1632 23.7462 18.2985 24.2368 17.5002 24.8687ZM20.9926 18.8819V7.90601L23.986 6.9082V17.8841L20.9926 18.8819Z" fill="#0280FB"/>
</g>
</svg>
