<svg width="35" height="35" viewBox="0 0 35 35" fill="none" xmlns="http://www.w3.org/2000/svg">
<circle cx="17.5" cy="17.5" r="17.5" fill="#16D2FF"/>
<mask id="mask0_2117_385" style="mask-type:alpha" maskUnits="userSpaceOnUse" x="4" y="3" width="27" height="27">
<rect x="4.29822" y="3.68457" width="25.7895" height="25.7895" fill="#D9D9D9"/>
</mask>
<g mask="url(#mask0_2117_385)">
<path d="M5.3728 25.1754V22.1666C5.3728 21.5577 5.52951 20.998 5.84292 20.4876C6.15634 19.9772 6.57273 19.5877 7.0921 19.319C8.20248 18.7639 9.33077 18.3475 10.477 18.0699C11.6232 17.7923 12.7873 17.6535 13.9693 17.6535C15.1513 17.6535 16.3154 17.7923 17.4616 18.0699C18.6078 18.3475 19.7361 18.7639 20.8465 19.319C21.3659 19.5877 21.7823 19.9772 22.0957 20.4876C22.4091 20.998 22.5658 21.5577 22.5658 22.1666V25.1754H5.3728ZM24.7149 25.1754V21.9517C24.7149 21.1637 24.4955 20.407 24.0567 19.6817C23.618 18.9564 22.9956 18.334 22.1897 17.8147C23.1031 17.9221 23.9627 18.1057 24.7686 18.3654C25.5746 18.6251 26.3267 18.9429 27.0252 19.319C27.67 19.6772 28.1625 20.0757 28.5027 20.5145C28.843 20.9533 29.0132 21.4323 29.0132 21.9517V25.1754H24.7149ZM13.9693 16.5789C12.7873 16.5789 11.7754 16.158 10.9337 15.3163C10.0919 14.4746 9.67105 13.4627 9.67105 12.2807C9.67105 11.0986 10.0919 10.0868 10.9337 9.24503C11.7754 8.40329 12.7873 7.98242 13.9693 7.98242C15.1513 7.98242 16.1632 8.40329 17.0049 9.24503C17.8467 10.0868 18.2675 11.0986 18.2675 12.2807C18.2675 13.4627 17.8467 14.4746 17.0049 15.3163C16.1632 16.158 15.1513 16.5789 13.9693 16.5789ZM24.7149 12.2807C24.7149 13.4627 24.294 14.4746 23.4523 15.3163C22.6106 16.158 21.5987 16.5789 20.4167 16.5789C20.2197 16.5789 19.9689 16.5565 19.6645 16.5118C19.36 16.467 19.1093 16.4177 18.9123 16.364C19.3958 15.7909 19.7674 15.1551 20.0271 14.4567C20.2868 13.7582 20.4167 13.0329 20.4167 12.2807C20.4167 11.5285 20.2868 10.8031 20.0271 10.1047C19.7674 9.40622 19.3958 8.77043 18.9123 8.19733C19.163 8.10779 19.4137 8.04958 19.6645 8.02272C19.9152 7.99585 20.1659 7.98242 20.4167 7.98242C21.5987 7.98242 22.6106 8.40329 23.4523 9.24503C24.294 10.0868 24.7149 11.0986 24.7149 12.2807Z" fill="#0280FB"/>
</g>
</svg>
