<svg width="35" height="35" viewBox="0 0 35 35" fill="none" xmlns="http://www.w3.org/2000/svg">
<circle cx="17.5" cy="17.5" r="17.5" fill="#16D2FF"/>
<mask id="mask0_2117_383" style="mask-type:alpha" maskUnits="userSpaceOnUse" x="9" y="9" width="40" height="40">
<rect x="9" y="9" width="40" height="40" fill="#D9D9D9"/>
</mask>
<g mask="url(#mask0_2117_383)">
<path d="M21.0818 20.6734L22.2587 16.4264L18.6257 13.9191L17.4488 18.1661L21.0818 20.6734ZM9.61984 24.7926L8.77554 24.3832C8.24679 24.1615 7.8886 23.782 7.70098 23.2447C7.51336 22.7074 7.53894 22.1744 7.77773 21.6457L9.61984 17.6544V24.7926ZM13.7134 27.0185C13.1505 27.0185 12.6687 26.8138 12.2679 26.4044C11.867 25.9951 11.6666 25.509 11.6666 24.9461V18.8313L14.4042 26.3533C14.4554 26.4727 14.498 26.5878 14.5321 26.6987C14.5662 26.8095 14.6259 26.9161 14.7112 27.0185H13.7134ZM18.9839 26.8906C18.4551 27.0782 17.9264 27.0526 17.3976 26.8138C16.8689 26.575 16.5107 26.1912 16.3231 25.6625L11.7945 13.1515C11.6069 12.6228 11.6325 12.0983 11.8713 11.5781C12.1101 11.0578 12.4939 10.7039 13.0226 10.5163L20.7236 7.70196C21.2524 7.51433 21.7769 7.53992 22.2971 7.77871C22.8173 8.0175 23.1713 8.40127 23.3589 8.93003L27.913 21.441C28.1006 21.9697 28.075 22.4942 27.8362 23.0145C27.5974 23.5347 27.2136 23.8886 26.6849 24.0762L18.9839 26.8906Z" fill="#0280FB"/>
</g>
</svg>
