<svg width="35" height="35" viewBox="0 0 35 35" fill="none" xmlns="http://www.w3.org/2000/svg">
<circle cx="17.5" cy="17.5" r="17.5" fill="#16D2FF"/>
<mask id="mask0_2117_390" style="mask-type:alpha" maskUnits="userSpaceOnUse" x="6" y="7" width="24" height="24">
<rect x="6.75439" y="7.36816" width="22.7193" height="22.7193" fill="#D9D9D9"/>
</mask>
<g mask="url(#mask0_2117_390)">
<path d="M17.1674 27.3587L14.4221 24.6134H10.5409V20.7322L7.79565 17.9869L10.5409 15.2417V11.3605H14.4221L17.1674 8.61523L19.9126 11.3605H23.7938V15.2417L26.5391 17.9869L23.7938 20.7322L26.5154 26.0807C26.6258 26.2858 26.6574 26.487 26.6101 26.6842C26.5627 26.8814 26.476 27.0431 26.3497 27.1693C26.2235 27.2955 26.0618 27.3823 25.8646 27.4297C25.6674 27.477 25.4662 27.4454 25.2611 27.335L19.9126 24.6134L17.1674 27.3587Z" fill="#0280FB"/>
</g>
</svg>
