<svg width="35" height="35" viewBox="0 0 35 35" fill="none" xmlns="http://www.w3.org/2000/svg">
<circle cx="17.5" cy="17.5" r="17.5" fill="#16D2FF"/>
<mask id="mask0_2117_389" style="mask-type:alpha" maskUnits="userSpaceOnUse" x="4" y="6" width="25" height="25">
<rect x="4.29822" y="6.14062" width="24.1855" height="24.1855" fill="#D9D9D9"/>
</mask>
<g mask="url(#mask0_2117_389)">
<path d="M23.4451 18.1828C23.4451 16.2178 22.7606 14.5508 21.3918 13.182C20.023 11.8132 18.356 11.1287 16.391 11.1287V9.11328C17.6506 9.11328 18.8305 9.35262 19.9306 9.83129C21.0307 10.31 21.988 10.9566 22.8026 11.7712C23.6172 12.5857 24.2638 13.5431 24.7425 14.6432C25.2212 15.7433 25.4605 16.9232 25.4605 18.1828H23.4451ZM19.4141 18.1828C19.4141 17.3431 19.1202 16.6293 18.5324 16.0414C17.9445 15.4536 17.2307 15.1596 16.391 15.1596V13.1442C17.785 13.1442 18.9733 13.6355 19.9558 14.618C20.9383 15.6005 21.4296 16.7888 21.4296 18.1828H19.4141ZM24.4024 27.3028C22.303 27.3028 20.2287 26.8451 18.1797 25.9297C16.1306 25.0144 14.2663 23.7169 12.5868 22.0374C10.9072 20.3578 9.60979 18.4935 8.69444 16.4445C7.77909 14.3955 7.32141 12.3212 7.32141 10.2218C7.32141 9.91946 7.42218 9.66753 7.62373 9.46599C7.82528 9.26444 8.07721 9.16367 8.37953 9.16367H12.4608C12.696 9.16367 12.9059 9.24345 13.0907 9.403C13.2754 9.56256 13.3846 9.75151 13.4182 9.96985L14.0732 13.4969C14.1068 13.7656 14.0984 13.9924 14.048 14.1771C13.9976 14.3619 13.9052 14.5214 13.7709 14.6558L11.3271 17.1247C11.663 17.7461 12.0619 18.3466 12.5238 18.926C12.9857 19.5055 13.4937 20.0639 14.048 20.6014C14.5687 21.122 15.1145 21.6049 15.6856 22.05C16.2566 22.4951 16.8612 22.9024 17.4995 23.2719L19.8676 20.9037C20.0188 20.7525 20.2161 20.6392 20.4597 20.5636C20.7032 20.488 20.9425 20.467 21.1777 20.5006L24.6543 21.206C24.8895 21.2732 25.0826 21.395 25.2338 21.5713C25.3849 21.7477 25.4605 21.945 25.4605 22.1634V26.2447C25.4605 26.547 25.3597 26.7989 25.1582 27.0004C24.9566 27.202 24.7047 27.3028 24.4024 27.3028Z" fill="#0280FB"/>
</g>
</svg>
