<svg width="35" height="35" viewBox="0 0 35 35" fill="none" xmlns="http://www.w3.org/2000/svg">
<circle cx="17.5" cy="17.5" r="17.5" fill="#16D2FF"/>
<mask id="mask0_2117_363" style="mask-type:alpha" maskUnits="userSpaceOnUse" x="4" y="6" width="26" height="26">
<rect x="4.91235" y="6.75391" width="24.5614" height="24.5614" fill="#D9D9D9"/>
</mask>
<g mask="url(#mask0_2117_363)">
<path d="M17.1931 28.2289L15.9991 27.1543C14.2196 25.534 12.7499 24.1353 11.5901 22.9584C10.4302 21.7815 9.50637 20.7283 8.81848 19.7987C8.13042 18.8691 7.64857 18.0235 7.37293 17.2617C7.09713 16.4998 6.95923 15.7265 6.95923 14.9419C6.95923 13.3842 7.48227 12.0822 8.52834 11.0359C9.57459 9.98984 10.8709 9.4668 12.4172 9.4668C13.3611 9.4668 14.2425 9.68282 15.0612 10.1149C15.8799 10.5471 16.5905 11.1668 17.1931 11.9741C17.864 11.1327 18.6002 10.5044 19.4019 10.0893C20.2035 9.67429 21.0593 9.4668 21.9691 9.4668C23.5154 9.4668 24.8117 9.98984 25.858 11.0359C26.904 12.0822 27.4271 13.3842 27.4271 14.9419C27.4271 15.7265 27.2892 16.4998 27.0134 17.2617C26.7377 18.0235 26.2559 18.8691 25.5678 19.7987C24.8799 20.7283 23.9561 21.7815 22.7962 22.9584C21.6364 24.1353 20.1667 25.534 18.3872 27.1543L17.1931 28.2289Z" fill="#0280FB"/>
</g>
</svg>
