<svg width="35" height="35" viewBox="0 0 35 35" fill="none" xmlns="http://www.w3.org/2000/svg">
<circle cx="17.5" cy="17.5" r="17.5" fill="#16D2FF"/>
<mask id="mask0_2117_370" style="mask-type:alpha" maskUnits="userSpaceOnUse" x="5" y="4" width="26" height="26">
<rect x="5.52637" y="4.91211" width="24.5614" height="24.5614" fill="#D9D9D9"/>
</mask>
<g mask="url(#mask0_2117_370)">
<path d="M15.2997 20.6042L22.2417 16.1696L15.2997 11.7349V20.6042ZM13.8841 26.4035V24.3567H9.27886C8.81833 24.3567 8.41887 24.1876 8.08047 23.8493C7.74224 23.5109 7.57312 23.1115 7.57312 22.651V9.68816C7.57312 9.22763 7.74224 8.82817 8.08047 8.48977C8.41887 8.15154 8.81833 7.98242 9.27886 7.98242H26.3352C26.7957 7.98242 27.1952 8.15154 27.5336 8.48977C27.8718 8.82817 28.041 9.22763 28.041 9.68816V22.651C28.041 23.1115 27.8718 23.5109 27.5336 23.8493C27.1952 24.1876 26.7957 24.3567 26.3352 24.3567H21.73V26.4035H13.8841Z" fill="#0280FB"/>
</g>
</svg>
