<svg width="35" height="35" viewBox="0 0 35 35" fill="none" xmlns="http://www.w3.org/2000/svg">
<circle cx="17.5" cy="17.5" r="17.5" fill="#16D2FF"/>
<mask id="mask0_2117_362" style="mask-type:alpha" maskUnits="userSpaceOnUse" x="5" y="5" width="26" height="26">
<rect x="5.52637" y="5.52637" width="24.5614" height="24.5614" fill="#D9D9D9"/>
</mask>
<g mask="url(#mask0_2117_362)">
<path d="M9.27898 27.0177C8.81845 27.0177 8.41899 26.8486 8.08059 26.5103C7.74236 26.1719 7.57324 25.7725 7.57324 25.3119V20.6898H15.2658V22.3953H20.3828V20.6898H28.0411V25.3119C28.0411 25.7725 27.872 26.1719 27.5337 26.5103C27.1953 26.8486 26.7959 27.0177 26.3353 27.0177H9.27898ZM16.9713 20.6898V18.9841H18.677V20.6898H16.9713ZM7.57324 18.9841V13.3725C7.57324 12.912 7.74236 12.5126 8.08059 12.1742C8.41899 11.8359 8.81845 11.6668 9.27898 11.6668H13.7136V9.27898C13.7136 8.81845 13.8827 8.41899 14.2209 8.08059C14.5593 7.74236 14.9588 7.57324 15.4193 7.57324H20.195C20.6555 7.57324 21.055 7.74236 21.3934 8.08059C21.7316 8.41899 21.9007 8.81845 21.9007 9.27898V11.6668H26.3353C26.7959 11.6668 27.1953 11.8359 27.5337 12.1742C27.872 12.5126 28.0411 12.912 28.0411 13.3725V18.9841H20.3828V17.2783H15.2658V18.9841H7.57324ZM15.4193 11.6668H20.195V9.27898H15.4193V11.6668Z" fill="#0280FB"/>
</g>
</svg>
