<svg width="35" height="35" viewBox="0 0 35 35" fill="none" xmlns="http://www.w3.org/2000/svg">
<circle cx="17.5" cy="17.5" r="17.5" fill="#16D2FF"/>
<path d="M9.58584 24.3568C8.86367 24.3568 8.3008 24.1109 7.89725 23.6192C7.49352 23.1273 7.34564 22.4805 7.45361 21.6788L8.63051 13.4065C8.77276 12.4628 9.20633 11.6639 9.93124 11.01C10.6561 10.3562 11.4905 10.0293 12.4342 10.0293H23.197C24.1407 10.0293 24.975 10.3562 25.6999 11.01C26.4248 11.6639 26.8583 12.4628 27.0004 13.4065L28.1604 21.6788C28.2684 22.4805 28.1205 23.1273 27.7168 23.6192C27.3132 24.1109 26.7503 24.3568 26.0282 24.3568C25.6473 24.3568 25.3147 24.2928 25.0304 24.1649C24.7462 24.037 24.4989 23.8679 24.2884 23.6575L21.7471 21.116H13.8669L11.3256 23.6575C11.1151 23.8679 10.8678 24.037 10.5836 24.1649C10.2993 24.2928 9.96671 24.3568 9.58584 24.3568ZM23.265 18.2164C23.5437 18.2164 23.784 18.1155 23.9857 17.9138C24.1875 17.7118 24.2884 17.4716 24.2884 17.193C24.2884 16.9145 24.1875 16.6743 23.9857 16.4723C23.784 16.2705 23.5437 16.1696 23.265 16.1696C22.9865 16.1696 22.7463 16.2705 22.5445 16.4723C22.3426 16.6743 22.2416 16.9145 22.2416 17.193C22.2416 17.4716 22.3426 17.7118 22.5445 17.9138C22.7463 18.1155 22.9865 18.2164 23.265 18.2164ZM21.133 14.9756C21.4116 14.9756 21.6518 14.8747 21.8538 14.6729C22.0555 14.4712 22.1564 14.2309 22.1564 13.9522C22.1564 13.6737 22.0555 13.4335 21.8538 13.2317C21.6518 13.0298 21.4116 12.9288 21.133 12.9288C20.8545 12.9288 20.6143 13.0298 20.4123 13.2317C20.2105 13.4335 20.1096 13.6737 20.1096 13.9522C20.1096 14.2309 20.2105 14.4712 20.4123 14.6729C20.6143 14.8747 20.8545 14.9756 21.133 14.9756ZM13.2869 18.1312H14.6516V16.2548H16.5278V14.8904H14.6516V13.0143H13.2869V14.8904H11.4108V16.2548H13.2869V18.1312Z" fill="#0280FB"/>
</svg>
