<svg width="35" height="35" viewBox="0 0 35 35" fill="none" xmlns="http://www.w3.org/2000/svg">
<circle cx="17.5" cy="17.5" r="17.5" fill="#16D2FF"/>
<mask id="mask0_2117_369" style="mask-type:alpha" maskUnits="userSpaceOnUse" x="5" y="4" width="26" height="26">
<rect x="5.52637" y="4.91211" width="24.5614" height="24.5614" fill="#D9D9D9"/>
</mask>
<g mask="url(#mask0_2117_369)">
<path d="M7.57312 16.3403V10.7116C7.57312 10.2511 7.74224 9.85161 8.08047 9.51321C8.41887 9.17498 8.81833 9.00586 9.27886 9.00586H26.3352C26.7957 9.00586 27.1952 9.17498 27.5336 9.51321C27.8718 9.85161 28.041 10.2511 28.041 10.7116V17.9094C27.751 17.7785 27.4568 17.6805 27.1583 17.6151C26.8598 17.5498 26.557 17.5172 26.25 17.5172C25.8463 17.5172 25.4483 17.574 25.056 17.6875C24.6637 17.8013 24.2941 17.9634 23.9474 18.1737C23.7598 18.0543 23.5693 17.9548 23.3761 17.8753C23.1827 17.7957 22.9751 17.7303 22.7533 17.6791V16.3403H19.3677L17.5512 12.7072C17.4773 12.5593 17.3693 12.4541 17.227 12.3915C17.0849 12.3291 16.9372 12.2979 16.7836 12.2979C16.6301 12.2979 16.4823 12.3291 16.3403 12.3915C16.198 12.4541 16.09 12.5593 16.0161 12.7072L12.6901 19.3761L11.4108 16.8008C11.337 16.6473 11.2289 16.5321 11.0867 16.4554C10.9446 16.3786 10.7968 16.3403 10.6433 16.3403H7.57312ZM9.27886 25.3801C8.81833 25.3801 8.41887 25.211 8.08047 24.8728C7.74224 24.5344 7.57312 24.1349 7.57312 23.6744V18.0457H10.106L11.9225 21.6788C11.9964 21.8323 12.1044 21.9474 12.2467 22.0242C12.3888 22.1009 12.5366 22.1393 12.6901 22.1393C12.8436 22.1393 12.9914 22.1009 13.1335 22.0242C13.2757 21.9474 13.3838 21.8323 13.4576 21.6788L16.7836 15.0098L18.0629 17.5852C18.1367 17.7275 18.2376 17.837 18.3656 17.9137C18.4935 17.9905 18.6314 18.0345 18.7793 18.0457H19.6832C18.9214 18.3983 18.3046 18.9299 17.8326 19.6407C17.3607 20.3513 17.1247 21.1557 17.1247 22.0541C17.1247 22.7705 17.2484 23.3774 17.4957 23.875C17.743 24.3723 18.1112 24.8741 18.6002 25.3801H9.27886ZM21.6448 19.2398C22.1053 19.2398 22.5317 19.3421 22.924 19.5468C23.3163 19.7515 23.6574 20.05 23.9474 20.4423C24.2374 20.05 24.5785 19.7515 24.9708 19.5468C25.3631 19.3421 25.7895 19.2398 26.25 19.2398C27.0346 19.2398 27.6998 19.5127 28.2456 20.0585C28.7914 20.6043 29.0643 21.2695 29.0643 22.0541C29.0643 22.6681 28.8426 23.2609 28.3991 23.8322C27.9557 24.4036 26.9835 25.329 25.4825 26.6082L23.9474 27.9386L22.4123 26.6082C20.9113 25.329 19.9391 24.4036 19.4956 23.8322C19.0522 23.2609 18.8304 22.6681 18.8304 22.0541C18.8304 21.2695 19.1033 20.6043 19.6491 20.0585C20.195 19.5127 20.8602 19.2398 21.6448 19.2398Z" fill="#0280FB"/>
</g>
</svg>
