<svg width="35" height="35" viewBox="0 0 35 35" fill="none" xmlns="http://www.w3.org/2000/svg">
<circle cx="17.5" cy="17.5" r="17.5" fill="#16D2FF"/>
<mask id="mask0_2117_377" style="mask-type:alpha" maskUnits="userSpaceOnUse" x="6" y="6" width="24" height="24">
<rect x="6.14038" y="6.14062" width="23.3333" height="23.3333" fill="#D9D9D9"/>
</mask>
<g mask="url(#mask0_2117_377)">
<path d="M17.807 27.5294C17.2723 27.5294 16.8146 27.339 16.4338 26.9582C16.053 26.5774 15.8626 26.1197 15.8626 25.585H19.7515C19.7515 26.1197 19.5611 26.5774 19.1803 26.9582C18.7995 27.339 18.3418 27.5294 17.807 27.5294ZM13.9182 24.6127V22.6683H21.6959V24.6127H13.9182ZM14.1612 21.6961C13.0432 21.0317 12.156 20.1405 11.4998 19.0225C10.8435 17.9044 10.5154 16.6891 10.5154 15.3766C10.5154 13.3512 11.2243 11.6295 12.6421 10.2117C14.0599 8.79387 15.7816 8.08496 17.807 8.08496C19.8325 8.08496 21.5542 8.79387 22.972 10.2117C24.3898 11.6295 25.0987 13.3512 25.0987 15.3766C25.0987 16.6891 24.7706 17.9044 24.1143 19.0225C23.4581 20.1405 22.5709 21.0317 21.4529 21.6961H14.1612Z" fill="#0280FB"/>
</g>
</svg>
