<svg width="35" height="35" viewBox="0 0 35 35" fill="none" xmlns="http://www.w3.org/2000/svg">
<circle cx="17.5" cy="17.5" r="17.5" fill="#16D2FF"/>
<path d="M18.1074 20.3787C18.7432 20.3787 19.2806 20.1592 19.7196 19.7202C20.1586 19.2812 20.3781 18.7438 20.3781 18.108V13.1126H23.1028V11.2961H19.4698V16.2915C19.273 16.1401 19.0611 16.0266 18.834 15.9509C18.607 15.8752 18.3648 15.8374 18.1074 15.8374C17.4716 15.8374 16.9342 16.0569 16.4952 16.4959C16.0563 16.9349 15.8368 17.4722 15.8368 18.108C15.8368 18.7438 16.0563 19.2812 16.4952 19.7202C16.9342 20.1592 17.4716 20.3787 18.1074 20.3787ZM14.0202 23.1035C13.5207 23.1035 13.0931 22.9256 12.7373 22.5699C12.3816 22.2141 12.2037 21.7865 12.2037 21.2869V10.3878C12.2037 9.88827 12.3816 9.46063 12.7373 9.10489C13.0931 8.74916 13.5207 8.57129 14.0202 8.57129H24.9194C25.4189 8.57129 25.8465 8.74916 26.2023 9.10489C26.558 9.46063 26.7359 9.88827 26.7359 10.3878V21.2869C26.7359 21.7865 26.558 22.2141 26.2023 22.5699C25.8465 22.9256 25.4189 23.1035 24.9194 23.1035H14.0202ZM10.3872 26.7365C9.88766 26.7365 9.46002 26.5586 9.10428 26.2029C8.74855 25.8472 8.57068 25.4195 8.57068 24.92V12.2043H10.3872V24.92H23.1028V26.7365H10.3872Z" fill="#0280FB"/>
</svg>
