<svg width="35" height="35" viewBox="0 0 35 35" fill="none" xmlns="http://www.w3.org/2000/svg">
<circle cx="17.5" cy="17.5" r="17.5" fill="#16D2FF"/>
<mask id="mask0_2117_381" style="mask-type:alpha" maskUnits="userSpaceOnUse" x="4" y="4" width="27" height="27">
<rect x="4.41528" y="4.67871" width="26.0233" height="26.0233" fill="#D9D9D9"/>
</mask>
<g mask="url(#mask0_2117_381)">
<path d="M8.7526 27.4491C8.15623 27.4491 7.6457 27.2368 7.22101 26.8121C6.79633 26.3874 6.58398 25.8769 6.58398 25.2805V7.93164L8.4002 9.74785L10.1893 7.93164L12.0055 9.74785L13.8217 7.93164L15.6108 9.74785L17.427 7.93164L19.2433 9.74785L21.0324 7.93164L22.8486 9.74785L24.6648 7.93164L26.4539 9.74785L28.2701 7.93164V25.2805C28.2701 25.8769 28.0578 26.3874 27.6331 26.8121C27.2084 27.2368 26.6979 27.4491 26.1015 27.4491H8.7526ZM8.7526 25.2805H16.3427V18.7747H8.7526V25.2805ZM18.5113 25.2805H26.1015V23.1119H18.5113V25.2805ZM18.5113 20.9433H26.1015V18.7747H18.5113V20.9433ZM8.7526 16.6061H26.1015V13.3532H8.7526V16.6061Z" fill="#0280FB"/>
</g>
</svg>
