<svg width="35" height="35" viewBox="0 0 35 35" fill="none" xmlns="http://www.w3.org/2000/svg">
<circle cx="17.5" cy="17.5" r="17.5" fill="#16D2FF"/>
<mask id="mask0_2117_365" style="mask-type:alpha" maskUnits="userSpaceOnUse" x="4" y="5" width="26" height="26">
<rect x="4.91223" y="5.52637" width="24.5614" height="24.5614" fill="#D9D9D9"/>
</mask>
<g mask="url(#mask0_2117_365)">
<path d="M10.3703 24.9024V26.1648C10.3703 26.4063 10.2886 26.6088 10.1251 26.7724C9.96175 26.9358 9.7592 27.0175 9.51751 27.0175H8.83516C8.59364 27.0175 8.3911 26.9358 8.22752 26.7724C8.06412 26.6088 7.98242 26.4063 7.98242 26.1648V17.9093L10.1487 11.496C10.2169 11.2345 10.3656 11.027 10.5946 10.8735C10.8237 10.72 11.0787 10.6432 11.3596 10.6432H14.3786V8.68164H20.0413V10.6432H23.0263C23.3072 10.6432 23.5622 10.72 23.7913 10.8735C24.0203 11.027 24.169 11.2345 24.2372 11.496L26.4035 17.9093V26.1648C26.4035 26.4063 26.3218 26.6088 26.1584 26.7724C25.9948 26.9358 25.7923 27.0175 25.5507 27.0175H24.8512C24.6097 27.0175 24.4072 26.9358 24.2436 26.7724C24.0802 26.6088 23.9985 26.4063 23.9985 26.1648V24.9024H10.3703ZM10.3534 16.2036H24.0325L22.7364 12.349H11.6495L10.3534 16.2036ZM12.3449 22.0029C12.7512 22.0029 13.0922 21.8636 13.368 21.5851C13.6438 21.3064 13.7817 20.9681 13.7817 20.5701C13.7817 20.1626 13.6424 19.8163 13.3637 19.5311C13.0851 19.2459 12.7469 19.1034 12.349 19.1034C11.9415 19.1034 11.5952 19.2455 11.31 19.5298C11.0246 19.8144 10.8819 20.1597 10.8819 20.566C10.8819 20.9725 11.0242 21.3135 11.3087 21.5892C11.5932 21.865 11.9386 22.0029 12.3449 22.0029ZM22.0541 22.0029C22.4615 22.0029 22.8079 21.8636 23.0931 21.5851C23.3782 21.3064 23.5208 20.9681 23.5208 20.5701C23.5208 20.1626 23.3787 19.8163 23.0943 19.5311C22.8098 19.2459 22.4644 19.1034 22.0582 19.1034C21.6517 19.1034 21.3107 19.2455 21.035 19.5298C20.7592 19.8144 20.6213 20.1597 20.6213 20.566C20.6213 20.9725 20.7606 21.3135 21.0391 21.5892C21.3178 21.865 21.6561 22.0029 22.0541 22.0029Z" fill="#0280FB"/>
</g>
</svg>
