<svg width="35" height="35" viewBox="0 0 35 35" fill="none" xmlns="http://www.w3.org/2000/svg">
<circle cx="17.5" cy="17.5" r="17.5" fill="#16D2FF"/>
<mask id="mask0_2117_380" style="mask-type:alpha" maskUnits="userSpaceOnUse" x="4" y="4" width="27" height="27">
<rect x="4.91229" y="4.91211" width="25.7895" height="25.7895" fill="#D9D9D9"/>
</mask>
<g mask="url(#mask0_2117_380)">
<path d="M11.3594 26.4039C10.7684 26.4039 10.2624 26.1935 9.84157 25.7726C9.4207 25.3517 9.21027 24.8458 9.21027 24.2548C9.21027 23.6638 9.4207 23.1578 9.84157 22.737C10.2624 22.3161 10.7684 22.1057 11.3594 22.1057C11.9504 22.1057 12.4563 22.3161 12.8772 22.737C13.2981 23.1578 13.5085 23.6638 13.5085 24.2548C13.5085 24.8458 13.2981 25.3517 12.8772 25.7726C12.4563 26.1935 11.9504 26.4039 11.3594 26.4039ZM17.8068 26.4039C17.2157 26.4039 16.7098 26.1935 16.2889 25.7726C15.8681 25.3517 15.6576 24.8458 15.6576 24.2548C15.6576 23.6638 15.8681 23.1578 16.2889 22.737C16.7098 22.3161 17.2157 22.1057 17.8068 22.1057C18.3978 22.1057 18.9037 22.3161 19.3246 22.737C19.7454 23.1578 19.9559 23.6638 19.9559 24.2548C19.9559 24.8458 19.7454 25.3517 19.3246 25.7726C18.9037 26.1935 18.3978 26.4039 17.8068 26.4039ZM24.2541 26.4039C23.6631 26.4039 23.1572 26.1935 22.7363 25.7726C22.3154 25.3517 22.105 24.8458 22.105 24.2548C22.105 23.6638 22.3154 23.1578 22.7363 22.737C23.1572 22.3161 23.6631 22.1057 24.2541 22.1057C24.8451 22.1057 25.3511 22.3161 25.7719 22.737C26.1928 23.1578 26.4032 23.6638 26.4032 24.2548C26.4032 24.8458 26.1928 25.3517 25.7719 25.7726C25.3511 26.1935 24.8451 26.4039 24.2541 26.4039ZM11.3594 19.9566C10.7684 19.9566 10.2624 19.7461 9.84157 19.3252C9.4207 18.9044 9.21027 18.3984 9.21027 17.8074C9.21027 17.2164 9.4207 16.7105 9.84157 16.2896C10.2624 15.8687 10.7684 15.6583 11.3594 15.6583C11.9504 15.6583 12.4563 15.8687 12.8772 16.2896C13.2981 16.7105 13.5085 17.2164 13.5085 17.8074C13.5085 18.3984 13.2981 18.9044 12.8772 19.3252C12.4563 19.7461 11.9504 19.9566 11.3594 19.9566ZM17.8068 19.9566C17.2157 19.9566 16.7098 19.7461 16.2889 19.3252C15.8681 18.9044 15.6576 18.3984 15.6576 17.8074C15.6576 17.2164 15.8681 16.7105 16.2889 16.2896C16.7098 15.8687 17.2157 15.6583 17.8068 15.6583C18.3978 15.6583 18.9037 15.8687 19.3246 16.2896C19.7454 16.7105 19.9559 17.2164 19.9559 17.8074C19.9559 18.3984 19.7454 18.9044 19.3246 19.3252C18.9037 19.7461 18.3978 19.9566 17.8068 19.9566ZM24.2541 19.9566C23.6631 19.9566 23.1572 19.7461 22.7363 19.3252C22.3154 18.9044 22.105 18.3984 22.105 17.8074C22.105 17.2164 22.3154 16.7105 22.7363 16.2896C23.1572 15.8687 23.6631 15.6583 24.2541 15.6583C24.8451 15.6583 25.3511 15.8687 25.7719 16.2896C26.1928 16.7105 26.4032 17.2164 26.4032 17.8074C26.4032 18.3984 26.1928 18.9044 25.7719 19.3252C25.3511 19.7461 24.8451 19.9566 24.2541 19.9566ZM11.3594 13.5092C10.7684 13.5092 10.2624 13.2987 9.84157 12.8779C9.4207 12.457 9.21027 11.9511 9.21027 11.3601C9.21027 10.7691 9.4207 10.2631 9.84157 9.84224C10.2624 9.42137 10.7684 9.21094 11.3594 9.21094C11.9504 9.21094 12.4563 9.42137 12.8772 9.84224C13.2981 10.2631 13.5085 10.7691 13.5085 11.3601C13.5085 11.9511 13.2981 12.457 12.8772 12.8779C12.4563 13.2987 11.9504 13.5092 11.3594 13.5092ZM17.8068 13.5092C17.2157 13.5092 16.7098 13.2987 16.2889 12.8779C15.8681 12.457 15.6576 11.9511 15.6576 11.3601C15.6576 10.7691 15.8681 10.2631 16.2889 9.84224C16.7098 9.42137 17.2157 9.21094 17.8068 9.21094C18.3978 9.21094 18.9037 9.42137 19.3246 9.84224C19.7454 10.2631 19.9559 10.7691 19.9559 11.3601C19.9559 11.9511 19.7454 12.457 19.3246 12.8779C18.9037 13.2987 18.3978 13.5092 17.8068 13.5092ZM24.2541 13.5092C23.6631 13.5092 23.1572 13.2987 22.7363 12.8779C22.3154 12.457 22.105 11.9511 22.105 11.3601C22.105 10.7691 22.3154 10.2631 22.7363 9.84224C23.1572 9.42137 23.6631 9.21094 24.2541 9.21094C24.8451 9.21094 25.3511 9.42137 25.7719 9.84224C26.1928 10.2631 26.4032 10.7691 26.4032 11.3601C26.4032 11.9511 26.1928 12.457 25.7719 12.8779C25.3511 13.2987 24.8451 13.5092 24.2541 13.5092Z" fill="#0280FB"/>
</g>
</svg>
