<svg width="35" height="35" viewBox="0 0 35 35" fill="none" xmlns="http://www.w3.org/2000/svg">
<circle cx="17.5" cy="17.5" r="17.5" fill="#16D2FF"/>
<path d="M17.5341 22.4466C18.728 22.4466 19.7429 22.0287 20.5787 21.1929C21.4144 20.3572 21.8323 19.3423 21.8323 18.1483C21.8323 16.9544 21.4144 15.9395 20.5787 15.1037C19.7429 14.268 18.728 13.8501 17.5341 13.8501C16.3401 13.8501 15.3253 14.268 14.4895 15.1037C13.6537 15.9395 13.2358 16.9544 13.2358 18.1483C13.2358 19.3423 13.6537 20.3572 14.4895 21.1929C15.3253 22.0287 16.3401 22.4466 17.5341 22.4466ZM17.5341 20.5362C16.8655 20.5362 16.3003 20.3054 15.8387 19.8438C15.377 19.3821 15.1462 18.817 15.1462 18.1483C15.1462 17.4797 15.377 16.9146 15.8387 16.4529C16.3003 15.9913 16.8655 15.7604 17.5341 15.7604C18.2027 15.7604 18.7678 15.9913 19.2295 16.4529C19.6912 16.9146 19.922 17.4797 19.922 18.1483C19.922 18.817 19.6912 19.3821 19.2295 19.8438C18.7678 20.3054 18.2027 20.5362 17.5341 20.5362ZM9.89275 25.7897C9.36741 25.7897 8.91769 25.6026 8.54358 25.2285C8.16948 24.8544 7.98242 24.4047 7.98242 23.8793V12.4173C7.98242 11.892 8.16948 11.4423 8.54358 11.0682C8.91769 10.6941 9.36741 10.507 9.89275 10.507H12.9015L14.6686 8.59668H20.3996L22.1666 10.507H25.1754C25.7007 10.507 26.1505 10.6941 26.5246 11.0682C26.8987 11.4423 27.0857 11.892 27.0857 12.4173V23.8793C27.0857 24.4047 26.8987 24.8544 26.5246 25.2285C26.1505 25.6026 25.7007 25.7897 25.1754 25.7897H9.89275Z" fill="#0280FB"/>
</svg>
