<svg width="35" height="35" viewBox="0 0 35 35" fill="none" xmlns="http://www.w3.org/2000/svg">
<circle cx="17.5" cy="17.5" r="17.5" fill="#16D2FF"/>
<mask id="mask0_2288_1643" style="mask-type:alpha" maskUnits="userSpaceOnUse" x="5" y="4" width="25" height="25">
<rect x="5.52637" y="4.91211" width="23.9474" height="23.9474" fill="#D9D9D9"/>
</mask>
<g mask="url(#mask0_2288_1643)">
<path d="M9.51758 26.8634V24.8678H11.5132V21.8743C11.5132 20.8599 11.7502 19.9078 12.2241 19.0181C12.6981 18.1284 13.3591 17.4175 14.2073 16.8853C13.3591 16.3531 12.6981 15.6422 12.2241 14.7525C11.7502 13.8628 11.5132 12.9107 11.5132 11.8963V8.90284H9.51758V6.90723H25.4825V8.90284H23.4869V11.8963C23.4869 12.9107 23.2499 13.8628 22.7759 14.7525C22.302 15.6422 21.6409 16.3531 20.7928 16.8853C21.6409 17.4175 22.302 18.1284 22.7759 19.0181C23.2499 19.9078 23.4869 20.8599 23.4869 21.8743V24.8678H25.4825V26.8634H9.51758Z" fill="#0280FB"/>
</g>
</svg>
