<svg width="35" height="35" viewBox="0 0 35 35" fill="none" xmlns="http://www.w3.org/2000/svg">
<circle cx="17.5" cy="17.5" r="17.5" fill="#16D2FF"/>
<mask id="mask0_2117_371" style="mask-type:alpha" maskUnits="userSpaceOnUse" x="5" y="4" width="26" height="26">
<rect x="5.52637" y="4.91211" width="24.5614" height="24.5614" fill="#D9D9D9"/>
</mask>
<g mask="url(#mask0_2117_371)">
<path d="M12.806 27.4097C12.2797 27.4097 11.8302 27.2223 11.4577 26.8476C11.0854 26.4727 10.8992 26.0221 10.8992 25.4959C10.8992 24.9696 11.0866 24.5201 11.4615 24.1476C11.8363 23.7753 12.2868 23.5891 12.8132 23.5891C13.3395 23.5891 13.7889 23.7766 14.1612 24.1515C14.5336 24.5262 14.7198 24.9767 14.7198 25.5031C14.7198 26.0295 14.5324 26.4788 14.1577 26.8512C13.7828 27.2235 13.3322 27.4097 12.806 27.4097ZM23.0399 27.4097C22.5136 27.4097 22.0641 27.2223 21.6916 26.8476C21.3193 26.4727 21.1331 26.0221 21.1331 25.4959C21.1331 24.9696 21.3206 24.5201 21.6955 24.1476C22.0702 23.7753 22.5207 23.5891 23.0471 23.5891C23.5735 23.5891 24.0228 23.7766 24.3952 24.1515C24.7675 24.5262 24.9537 24.9767 24.9537 25.5031C24.9537 26.0295 24.7663 26.4788 24.3916 26.8512C24.0167 27.2235 23.5661 27.4097 23.0399 27.4097ZM10.7968 8.98863H25.876C26.268 8.98863 26.5662 9.16636 26.7707 9.52181C26.975 9.8771 26.9778 10.2338 26.7789 10.592L23.2651 16.9199C23.0775 17.2498 22.8312 17.5113 22.5264 17.7046C22.2216 17.8979 21.8879 17.9945 21.5253 17.9945H13.8158L12.4854 20.4506H24.9537V22.1564H12.6389C11.9055 22.1564 11.3682 21.8849 11.0271 21.342C10.686 20.7989 10.6832 20.2175 11.0187 19.5979L12.5706 16.7495L8.75006 8.66472H6.7373V6.95898H9.84176L10.7968 8.98863Z" fill="#0280FB"/>
</g>
</svg>
