<svg width="35" height="35" viewBox="0 0 35 35" fill="none" xmlns="http://www.w3.org/2000/svg">
<circle cx="17.5" cy="17.5" r="17.5" fill="#16D2FF"/>
<mask id="mask0_2117_372" style="mask-type:alpha" maskUnits="userSpaceOnUse" x="5" y="4" width="26" height="26">
<rect x="5.52637" y="4.91211" width="24.5614" height="24.5614" fill="#D9D9D9"/>
</mask>
<g mask="url(#mask0_2117_372)">
<path d="M13.7135 19.2397H21.9006V18.728C21.9006 18.0002 21.5339 17.4288 20.8005 17.0138C20.067 16.5988 19.0692 16.3913 17.807 16.3913C16.5449 16.3913 15.547 16.5988 14.8136 17.0138C14.0802 17.4288 13.7135 18.0002 13.7135 18.728V19.2397ZM17.807 14.9243C18.3472 14.9243 18.8063 14.7353 19.1843 14.3573C19.5624 13.9792 19.7515 13.52 19.7515 12.9799C19.7515 12.4398 19.5624 11.9808 19.1843 11.6026C18.8063 11.2245 18.3472 11.0354 17.807 11.0354C17.2669 11.0354 16.8078 11.2245 16.4298 11.6026C16.0517 11.9808 15.8626 12.4398 15.8626 12.9799C15.8626 13.52 16.0517 13.9792 16.4298 14.3573C16.8078 14.7353 17.2669 14.9243 17.807 14.9243ZM7.57312 27.4268V8.66472C7.57312 8.2042 7.74224 7.80473 8.08047 7.46633C8.41887 7.1281 8.81833 6.95898 9.27886 6.95898H26.3352C26.7957 6.95898 27.1952 7.1281 27.5336 7.46633C27.8718 7.80473 28.041 8.2042 28.041 8.66472V21.6275C28.041 22.088 27.8718 22.4875 27.5336 22.8259C27.1952 23.1641 26.7957 23.3333 26.3352 23.3333H11.6667L7.57312 27.4268Z" fill="#0280FB"/>
</g>
</svg>
