<svg width="35" height="35" viewBox="0 0 35 35" fill="none" xmlns="http://www.w3.org/2000/svg">
<circle cx="17.5" cy="17.5" r="17.5" fill="#16D2FF"/>
<mask id="mask0_2117_386" style="mask-type:alpha" maskUnits="userSpaceOnUse" x="3" y="3" width="29" height="29">
<rect x="3.6842" y="3.07031" width="28.2456" height="28.2456" fill="#D9D9D9"/>
</mask>
<g mask="url(#mask0_2117_386)">
<path d="M9.56869 26.6076V24.2538H11.9225V19.5462L4.86108 8.9541H21.3377L14.2763 19.5462V24.2538H16.6301V26.6076H9.56869ZM10.6279 13.6617H15.5709L17.2185 11.3079H8.98024L10.6279 13.6617ZM22.5146 26.6076C21.5338 26.6076 20.7002 26.2643 20.0137 25.5778C19.3272 24.8913 18.9839 24.0577 18.9839 23.0769C18.9839 22.0962 19.3272 21.2625 20.0137 20.576C20.7002 19.8895 21.5338 19.5462 22.5146 19.5462C22.7304 19.5462 22.9363 19.5609 23.1325 19.5903C23.3286 19.6198 23.515 19.6835 23.6915 19.7816V8.9541H29.576V12.4848H26.0453V23.0769C26.0453 24.0577 25.702 24.8913 25.0155 25.5778C24.329 26.2643 23.4953 26.6076 22.5146 26.6076Z" fill="#0280FB"/>
</g>
</svg>
