<svg width="35" height="35" viewBox="0 0 35 35" fill="none" xmlns="http://www.w3.org/2000/svg">
<circle cx="17.5" cy="17.5" r="17.5" fill="#16D2FF"/>
<path d="M14.8627 26.9274C14.0655 27.0122 13.103 26.991 11.9751 26.8638C10.8471 26.7366 9.98636 26.5288 9.39271 26.2405C9.15525 25.6978 8.95596 24.8499 8.79483 23.6966C8.6337 22.5434 8.59553 21.5597 8.68034 20.7457L14.8627 26.9274ZM17.2797 26.5204L9.08741 18.329C9.37575 17.057 9.79554 15.8995 10.3468 14.8565C10.898 13.8135 11.5383 12.9189 12.2676 12.1727C12.997 11.4434 13.8832 10.8117 14.9263 10.2775C15.9694 9.74326 17.0931 9.34047 18.2974 9.06912L26.5405 17.3114C26.2691 18.5664 25.8706 19.7196 25.3448 20.7711C24.819 21.8226 24.1914 22.713 23.4621 23.4422C22.6988 24.1884 21.7871 24.8287 20.7271 25.3629C19.667 25.8971 18.5179 26.2829 17.2797 26.5204ZM15.1935 21.865L21.9101 15.1491L20.4854 13.7245L13.7687 20.4404L15.1935 21.865ZM26.9476 14.8947L20.7652 8.66209C21.5794 8.56034 22.5801 8.5773 23.7674 8.71297C24.9547 8.84865 25.7942 9.06064 26.2861 9.34895C26.5914 10.0273 26.8034 10.905 26.9222 11.9819C27.0409 13.0588 27.0494 14.0297 26.9476 14.8947Z" fill="#0280FB"/>
</svg>
