<svg width="35" height="35" viewBox="0 0 35 35" fill="none" xmlns="http://www.w3.org/2000/svg">
<circle cx="17.5" cy="17.5" r="17.5" fill="#16D2FF"/>
<mask id="mask0_2117_368" style="mask-type:alpha" maskUnits="userSpaceOnUse" x="5" y="4" width="26" height="26">
<rect x="5.52637" y="4.91211" width="24.5614" height="24.5614" fill="#D9D9D9"/>
</mask>
<g mask="url(#mask0_2117_368)">
<path d="M16.0332 25.5335L16.4083 24.0668C16.4823 23.8336 16.5975 23.636 16.7537 23.474C16.9101 23.3119 17.1077 23.2196 17.3465 23.1969L20.6725 22.941C20.917 22.9182 21.1359 22.9665 21.3293 23.0859C21.5225 23.2052 21.6618 23.373 21.7471 23.5891L22.1053 24.5785C22.8046 24.1521 23.4329 23.656 23.9901 23.0902C24.5472 22.5244 25.0048 21.8834 25.363 21.167L25.0903 20.9795C24.8798 20.843 24.7319 20.6739 24.6466 20.4721C24.5613 20.2702 24.5387 20.0583 24.5786 19.8366L25.329 16.5448C25.3687 16.3173 25.4753 16.1382 25.6488 16.0076C25.8222 15.8767 26.0169 15.8 26.2329 15.7773C26.1476 15.3395 26.0354 14.9059 25.8962 14.4766C25.7568 14.0474 25.5791 13.6225 25.363 13.2017C25.2209 13.2984 25.0631 13.3453 24.8897 13.3424C24.7164 13.3395 24.5501 13.2812 24.3908 13.1676L21.5764 11.4959C21.3888 11.3765 21.2524 11.2117 21.1671 11.0014C21.0818 10.7911 21.0591 10.5693 21.099 10.3362L21.3206 9.43227C20.7692 9.17062 20.1992 8.97728 19.6108 8.85226C19.0223 8.72724 18.4211 8.66472 17.807 8.66472C17.5456 8.66472 17.2869 8.6718 17.0311 8.68596C16.7752 8.70012 16.5165 8.72715 16.2548 8.76706L17.0907 10.5749C17.1874 10.791 17.2059 11.0156 17.1462 11.2488C17.0865 11.4818 16.9599 11.6779 16.7665 11.8372L14.2763 14.0375C14.0831 14.1682 13.8684 14.2449 13.6324 14.2678C13.3965 14.2905 13.1734 14.2364 12.9631 14.1056L10.5581 12.6728C10.1317 13.3551 9.81188 14.0786 9.59867 14.8435C9.38546 15.6081 9.27886 16.3912 9.27886 17.1929C9.27886 17.4885 9.31297 17.9433 9.3812 18.5573L11.735 18.3358C11.9738 18.3017 12.1969 18.3457 12.4043 18.4678C12.6119 18.5901 12.764 18.7678 12.8607 19.001L14.0888 22.0712C14.1853 22.2871 14.2123 22.5003 14.1696 22.7108C14.127 22.9211 14.0148 23.1058 13.833 23.2649L12.8607 24.152C13.3325 24.4931 13.8342 24.7773 14.3659 25.0047C14.8975 25.2322 15.4533 25.4085 16.0332 25.5335ZM17.9946 20.9454C17.7502 20.9681 17.5313 20.9198 17.3381 20.8004C17.1446 20.681 16.9997 20.5132 16.9031 20.2971L15.4192 16.9711C15.3339 16.7551 15.3268 16.5363 15.3977 16.3146C15.4688 16.0928 15.601 15.9137 15.7943 15.7773L18.5063 13.4235C18.6712 13.2586 18.8703 13.1761 19.1034 13.1761C19.3364 13.1761 19.5581 13.2358 19.7686 13.3552L22.7365 15.129C22.9353 15.2484 23.0803 15.4133 23.1714 15.6238C23.2623 15.8341 23.2822 16.0558 23.231 16.289L22.4463 19.7854C22.3839 19.9959 22.2674 20.1764 22.0968 20.327C21.9263 20.4777 21.7415 20.5644 21.5424 20.5872L17.9946 20.9454ZM17.807 27.4268C16.3913 27.4268 15.0609 27.1582 13.8158 26.6209C12.5707 26.0836 11.4876 25.3545 10.5665 24.4334C9.64549 23.5123 8.91632 22.4293 8.37904 21.1841C7.84176 19.939 7.57312 18.6086 7.57312 17.1929C7.57312 15.7772 7.84176 14.4468 8.37904 13.2017C8.91632 11.9565 9.64549 10.8735 10.5665 9.95241C11.4876 9.03135 12.5707 8.30219 13.8158 7.76491C15.0609 7.22762 16.3913 6.95898 17.807 6.95898C19.2227 6.95898 20.5531 7.22762 21.7983 7.76491C23.0434 8.30219 24.1265 9.03135 25.0475 9.95241C25.9686 10.8735 26.6978 11.9565 27.235 13.2017C27.7723 14.4468 28.041 15.7772 28.041 17.1929C28.041 18.6086 27.7723 19.939 27.235 21.1841C26.6978 22.4293 25.9686 23.5123 25.0475 24.4334C24.1265 25.3545 23.0434 26.0836 21.7983 26.6209C20.5531 27.1582 19.2227 27.4268 17.807 27.4268Z" fill="#0280FB"/>
</g>
</svg>
