<svg width="35" height="35" viewBox="0 0 35 35" fill="none" xmlns="http://www.w3.org/2000/svg">
<circle cx="17.5" cy="17.5" r="17.5" fill="#16D2FF"/>
<mask id="mask0_2117_388" style="mask-type:alpha" maskUnits="userSpaceOnUse" x="4" y="4" width="27" height="27">
<rect x="4.29822" y="4.29785" width="26.4035" height="26.4035" fill="#D9D9D9"/>
</mask>
<g mask="url(#mask0_2117_388)">
<path d="M9.79897 26.3011V16.9499C9.79897 14.3462 10.7066 12.1367 12.5218 10.3215C14.3371 8.50625 16.5465 7.59863 19.1502 7.59863C21.7539 7.59863 23.9634 8.50625 25.7786 10.3215C27.5938 12.1367 28.5015 14.3462 28.5015 16.9499C28.5015 19.5536 27.5938 21.763 25.7786 23.5783C23.9634 25.3935 21.7539 26.3011 19.1502 26.3011H9.79897ZM19.1502 20.8004C20.2137 20.8004 21.1213 20.4245 21.8731 19.6727C22.6248 18.921 23.0007 18.0133 23.0007 16.9499C23.0007 15.8864 22.6248 14.9788 21.8731 14.227C21.1213 13.4752 20.2137 13.0994 19.1502 13.0994C18.0867 13.0994 17.1791 13.4752 16.4274 14.227C15.6756 14.9788 15.2997 15.8864 15.2997 16.9499C15.2997 18.0133 15.6756 18.921 16.4274 19.6727C17.1791 20.4245 18.0867 20.8004 19.1502 20.8004ZM19.1502 18.6001C18.6918 18.6001 18.3022 18.4397 17.9813 18.1188C17.6604 17.7979 17.5 17.4083 17.5 16.9499C17.5 16.4915 17.6604 16.1018 17.9813 15.781C18.3022 15.4601 18.6918 15.2997 19.1502 15.2997C19.6086 15.2997 19.9982 15.4601 20.3191 15.781C20.64 16.1018 20.8004 16.4915 20.8004 16.9499C20.8004 17.4083 20.64 17.7979 20.3191 18.1188C19.9982 18.4397 19.6086 18.6001 19.1502 18.6001ZM6.49854 26.3011V20.8004H8.69883V26.3011H6.49854Z" fill="#0280FB"/>
</g>
</svg>
