<svg width="35" height="35" viewBox="0 0 35 35" fill="none" xmlns="http://www.w3.org/2000/svg">
<circle cx="17.5" cy="17.5" r="17.5" fill="#16D2FF"/>
<mask id="mask0_2117_367" style="mask-type:alpha" maskUnits="userSpaceOnUse" x="5" y="4" width="26" height="26">
<rect x="5.52637" y="4.91211" width="24.5614" height="24.5614" fill="#D9D9D9"/>
</mask>
<g mask="url(#mask0_2117_367)">
<path d="M12.7753 27.4268V25.1582L15.9138 22.9751V18.8132L7.57312 22.1735V19.4103L15.9138 13.5599V8.85226C15.9138 8.33493 16.0999 7.89002 16.4723 7.5175C16.8448 7.14516 17.2897 6.95898 17.807 6.95898C18.3244 6.95898 18.7693 7.14516 19.1418 7.5175C19.5141 7.89002 19.7003 8.33493 19.7003 8.85226V13.5599L28.041 19.4103V22.1735L19.7003 18.8132V22.9751L22.8217 25.1582V27.4268L17.807 25.9089L12.7753 27.4268Z" fill="#0280FB"/>
</g>
</svg>
