<svg width="35" height="35" viewBox="0 0 35 35" fill="none" xmlns="http://www.w3.org/2000/svg">
<circle cx="17.5" cy="17.5" r="17.5" fill="#16D2FF"/>
<mask id="mask0_2117_366" style="mask-type:alpha" maskUnits="userSpaceOnUse" x="5" y="4" width="26" height="26">
<rect x="5.52637" y="4.91211" width="24.5614" height="24.5614" fill="#D9D9D9"/>
</mask>
<g mask="url(#mask0_2117_366)">
<path d="M25.0731 26.4037L18.9243 20.2549L20.6129 18.5663L26.7617 24.7151L25.0731 26.4037ZM10.4558 26.4037L8.76719 24.7151L16.0673 17.415L13.6623 15.01L13.0311 15.6409L11.8458 14.4556V16.6047L11.1977 17.2528L8.08484 14.1401L8.7329 13.4918H10.8992L9.65395 12.2468L13.0995 8.80133C13.4065 8.49431 13.7391 8.28111 14.0973 8.16171C14.4555 8.04231 14.8392 7.98262 15.2486 7.98262C15.6579 7.98262 16.0417 8.05656 16.3999 8.20444C16.7581 8.35215 17.0907 8.57951 17.3977 8.88653L14.7881 11.4962L16.0333 12.7414L15.3849 13.3895L17.7388 15.7433L20.5874 12.8949C20.4736 12.6846 20.384 12.4486 20.3187 12.187C20.2532 11.9255 20.2205 11.6526 20.2205 11.3683C20.2205 10.4301 20.5545 9.62712 21.2226 8.95919C21.8907 8.29108 22.6938 7.95703 23.632 7.95703C23.8878 7.95703 24.1138 7.98262 24.3099 8.03379C24.5061 8.08496 24.6837 8.156 24.8429 8.24691L22.5487 10.5411L24.442 12.4344L26.7362 10.1402C26.8329 10.3107 26.9082 10.4998 26.9621 10.7074C27.0161 10.915 27.0432 11.1467 27.0432 11.4025C27.0432 12.3406 26.7091 13.1437 26.041 13.8116C25.3731 14.4797 24.5701 14.8138 23.632 14.8138C23.359 14.8138 23.1145 14.7939 22.8984 14.7541C22.6823 14.7142 22.4805 14.6516 22.2928 14.5664L10.4558 26.4037Z" fill="#0280FB"/>
</g>
</svg>
