<svg width="35" height="35" viewBox="0 0 35 35" fill="none" xmlns="http://www.w3.org/2000/svg">
<circle cx="17.5" cy="17.5" r="17.5" fill="#16D2FF"/>
<mask id="mask0_2117_387" style="mask-type:alpha" maskUnits="userSpaceOnUse" x="5" y="6" width="24" height="24">
<rect x="5.52637" y="6.14062" width="23.3333" height="23.3333" fill="#D9D9D9"/>
</mask>
<g mask="url(#mask0_2117_387)">
<path d="M21.0819 27.5293L18.1653 24.6126H15.2486V20.7237H18.1653L21.0819 17.8071V27.5293ZM23.0264 28.4043V26.4112C23.8852 26.1844 24.586 25.7266 25.1288 25.038C25.6716 24.3493 25.943 23.5594 25.943 22.6682C25.943 21.777 25.6716 20.9871 25.1288 20.2984C24.586 19.6097 23.8852 19.152 23.0264 18.9251V16.9321C24.4361 17.1751 25.5987 17.8354 26.5142 18.913C27.4297 19.9905 27.8875 21.2423 27.8875 22.6682C27.8875 24.0941 27.4297 25.3458 26.5142 26.4234C25.5987 27.5009 24.4361 28.1612 23.0264 28.4043ZM23.0264 24.9043V20.4321C23.4639 20.6265 23.8163 20.9263 24.0837 21.3314C24.351 21.7365 24.4847 22.1821 24.4847 22.6682C24.4847 23.1543 24.351 23.5999 24.0837 24.005C23.8163 24.4101 23.4639 24.7099 23.0264 24.9043ZM9.41527 25.5849C8.88055 25.5849 8.42279 25.3945 8.04201 25.0137C7.66122 24.6329 7.47083 24.1751 7.47083 23.6404V11.9737C7.47083 11.439 7.66122 10.9813 8.04201 10.6005C8.42279 10.2197 8.88055 10.0293 9.41527 10.0293L11.3597 13.9182H14.2764L12.3319 10.0293H14.2764L16.2208 13.9182H19.1375L17.193 10.0293H19.1375L21.0819 13.9182H23.9986L22.0542 10.0293H24.9708C25.5055 10.0293 25.9633 10.2197 26.3441 10.6005C26.7249 10.9813 26.9153 11.439 26.9153 11.9737V16.6161C26.2833 16.13 25.6068 15.7208 24.8858 15.3887C24.1647 15.0565 23.3991 14.8904 22.5889 14.8904H21.2521L17.3632 18.7793H13.3042V25.5849H9.41527Z" fill="#0280FB"/>
</g>
</svg>
