<svg width="35" height="35" viewBox="0 0 35 35" fill="none" xmlns="http://www.w3.org/2000/svg">
<circle cx="17.5" cy="17.5" r="17.5" fill="#16D2FF"/>
<mask id="mask0_2117_384" style="mask-type:alpha" maskUnits="userSpaceOnUse" x="6" y="5" width="25" height="26">
<rect x="6.14038" y="5.52637" width="24.5614" height="24.5614" fill="#D9D9D9"/>
</mask>
<g mask="url(#mask0_2117_384)">
<path d="M12.2807 25.9942C11.155 25.9942 10.1913 25.5934 9.38962 24.7918C8.58796 23.9901 8.18713 23.0264 8.18713 21.9007C8.18713 20.775 8.58796 19.8113 9.38962 19.0096C10.1913 18.2079 11.155 17.8071 12.2807 17.8071C13.0994 17.8071 13.8542 18.0289 14.545 18.4723C15.2357 18.9158 15.7346 19.5213 16.0417 20.2888L16.2975 20.8773H16.9115C17.6279 20.8773 18.2292 21.1246 18.7153 21.6192C19.2014 22.1139 19.4444 22.7194 19.4444 23.4358C19.4444 24.1521 19.1971 24.7577 18.7025 25.2523C18.2078 25.7469 17.6023 25.9942 16.886 25.9942H12.2807ZM21.4656 23.1288C21.3974 22.0542 21.0094 21.1246 20.3015 20.34C19.5937 19.5554 18.7025 19.0693 17.6279 18.8817C17.0992 17.9606 16.3871 17.2315 15.4916 16.6942C14.5961 16.1569 13.6111 15.8456 12.5365 15.7603C12.98 14.5152 13.739 13.5217 14.8136 12.7797C15.8882 12.0377 17.0906 11.6668 18.4211 11.6668C20.1267 11.6668 21.5765 12.2637 22.7705 13.4577C23.9644 14.6517 24.5614 16.1015 24.5614 17.8071C24.5614 18.9158 24.2885 19.9434 23.7427 20.8901C23.1969 21.8367 22.4379 22.5829 21.4656 23.1288ZM17.3977 10.6434V6.5498H19.4444V10.6434H17.3977ZM24.2032 13.4577L22.7705 12.025L25.636 9.10828L27.0943 10.5666L24.2032 13.4577ZM25.5848 18.8305V16.7837H29.6784V18.8305H25.5848ZM25.636 26.5059L22.7705 23.5893L24.2032 22.1565L27.1199 25.022L25.636 26.5059ZM12.6389 13.4577L9.74781 10.5666L11.2061 9.10828L14.0716 12.025L12.6389 13.4577Z" fill="#0280FB"/>
</g>
</svg>
