<svg width="34" height="34" viewBox="0 0 34 34" fill="none" xmlns="http://www.w3.org/2000/svg">
<circle cx="17" cy="17" r="17" fill="#D7D7D7"/>
<mask id="mask0_774_1368" style="mask-type:alpha" maskUnits="userSpaceOnUse" x="5" y="4" width="25" height="25">
<rect x="5.36865" y="4.77197" width="23.8596" height="23.8596" fill="#D9D9D9"/>
</mask>
<g mask="url(#mask0_774_1368)">
<path d="M14.8628 20.0155L21.6064 15.7076L14.8628 11.3997V20.0155ZM13.4876 25.6491V23.6608H9.01394C8.56657 23.6608 8.17852 23.4965 7.84978 23.168C7.52122 22.8392 7.35693 22.4512 7.35693 22.0038V9.4114C7.35693 8.96403 7.52122 8.57598 7.84978 8.24725C8.17852 7.91868 8.56657 7.75439 9.01394 7.75439H25.583C26.0303 7.75439 26.4184 7.91868 26.7471 8.24725C27.0757 8.57598 27.24 8.96403 27.24 9.4114V22.0038C27.24 22.4512 27.0757 22.8392 26.7471 23.168C26.4184 23.4965 26.0303 23.6608 25.583 23.6608H21.1093V25.6491H13.4876Z" fill="#F2F2F2"/>
</g>
</svg>
