<svg width="34" height="34" viewBox="0 0 34 34" fill="none" xmlns="http://www.w3.org/2000/svg">
<circle cx="17" cy="17" r="17" fill="#D7D7D7"/>
<mask id="mask0_774_1363" style="mask-type:alpha" maskUnits="userSpaceOnUse" x="5" y="5" width="25" height="25">
<rect x="5.36865" y="5.36865" width="23.8596" height="23.8596" fill="#D9D9D9"/>
</mask>
<g mask="url(#mask0_774_1363)">
<path d="M9.01394 26.2458C8.56657 26.2458 8.17852 26.0815 7.84978 25.753C7.52122 25.4242 7.35693 25.0362 7.35693 24.5888V20.0987H14.8297V21.7555H19.8005V20.0987H27.24V24.5888C27.24 25.0362 27.0757 25.4242 26.7471 25.753C26.4184 26.0815 26.0303 26.2458 25.583 26.2458H9.01394ZM16.4865 20.0987V18.4417H18.1435V20.0987H16.4865ZM7.35693 18.4417V12.9905C7.35693 12.5432 7.52122 12.1551 7.84978 11.8264C8.17852 11.4978 8.56657 11.3335 9.01394 11.3335H13.3218V9.01394C13.3218 8.56657 13.4861 8.17852 13.8147 7.84978C14.1434 7.52122 14.5315 7.35693 14.9788 7.35693H19.6181C20.0654 7.35693 20.4535 7.52122 20.7822 7.84978C21.1108 8.17852 21.2751 8.56657 21.2751 9.01394V11.3335H25.583C26.0303 11.3335 26.4184 11.4978 26.7471 11.8264C27.0757 12.1551 27.24 12.5432 27.24 12.9905V18.4417H19.8005V16.7847H14.8297V18.4417H7.35693ZM14.9788 11.3335H19.6181V9.01394H14.9788V11.3335Z" fill="#F2F2F2"/>
</g>
</svg>
