<svg width="34" height="34" viewBox="0 0 34 34" fill="none" xmlns="http://www.w3.org/2000/svg">
<g id="on demand transportation">
<circle id="Ellipse 3" cx="17" cy="17" r="17" fill="#D7D7D7"/>
<g id="local_taxi">
<mask id="mask0_774_1348" style="mask-type:alpha" maskUnits="userSpaceOnUse" x="4" y="5" width="25" height="25">
<rect id="Bounding box" x="4.77197" y="5.36865" width="23.8596" height="23.8596" fill="#D9D9D9"/>
</mask>
<g mask="url(#mask0_774_1348)">
<path id="local_taxi_2" d="M10.074 24.1909V25.4172C10.074 25.6518 9.99463 25.8486 9.8359 26.0075C9.67717 26.1662 9.48041 26.2456 9.24562 26.2456H8.58277C8.34815 26.2456 8.15139 26.1662 7.99249 26.0075C7.83376 25.8486 7.75439 25.6518 7.75439 25.4172V17.3976L9.85877 11.1675C9.92504 10.9135 10.0694 10.7119 10.292 10.5628C10.5145 10.4137 10.7622 10.3391 11.0351 10.3391H13.9678V8.43359H19.4687V10.3391H22.3684C22.6413 10.3391 22.889 10.4137 23.1116 10.5628C23.3341 10.7119 23.4785 10.9135 23.5448 11.1675L25.6491 17.3976V25.4172C25.6491 25.6518 25.5698 25.8486 25.411 26.0075C25.2521 26.1662 25.0554 26.2456 24.8208 26.2456H24.1413C23.9066 26.2456 23.7099 26.1662 23.551 26.0075C23.3922 25.8486 23.3129 25.6518 23.3129 25.4172V24.1909H10.074ZM10.0576 15.7406H23.3459L22.0868 11.9961H11.3167L10.0576 15.7406ZM11.9922 21.3742C12.3869 21.3742 12.7182 21.2389 12.9861 20.9684C13.254 20.6976 13.388 20.369 13.388 19.9824C13.388 19.5866 13.2526 19.2501 12.9819 18.9731C12.7113 18.6961 12.3828 18.5575 11.9962 18.5575C11.6004 18.5575 11.2639 18.6956 10.9869 18.9719C10.7097 19.2482 10.5711 19.5838 10.5711 19.9784C10.5711 20.3733 10.7093 20.7046 10.9856 20.9723C11.262 21.2403 11.5975 21.3742 11.9922 21.3742ZM21.424 21.3742C21.8198 21.3742 22.1563 21.2389 22.4333 20.9684C22.7103 20.6976 22.8489 20.369 22.8489 19.9824C22.8489 19.5866 22.7107 19.2501 22.4345 18.9731C22.1582 18.6961 21.8226 18.5575 21.428 18.5575C21.0331 18.5575 20.7018 18.6956 20.4341 18.9719C20.1661 19.2482 20.0322 19.5838 20.0322 19.9784C20.0322 20.3733 20.1675 20.7046 20.438 20.9723C20.7088 21.2403 21.0374 21.3742 21.424 21.3742Z" fill="#F2F2F2"/>
</g>
</g>
</g>
</svg>
