<svg width="34" height="34" viewBox="0 0 34 34" fill="none" xmlns="http://www.w3.org/2000/svg">
<circle cx="17" cy="17" r="17" fill="#D7D7D7"/>
<mask id="mask0_814_438" style="mask-type:alpha" maskUnits="userSpaceOnUse" x="5" y="4" width="25" height="25">
<rect x="5.36865" y="4.77197" width="23.8596" height="23.8596" fill="#D9D9D9"/>
</mask>
<g mask="url(#mask0_814_438)">
<path d="M12.4402 26.6266C11.9289 26.6266 11.4923 26.4446 11.1304 26.0806C10.7687 25.7164 10.5879 25.2787 10.5879 24.7676C10.5879 24.2563 10.77 23.8197 11.1342 23.4578C11.4982 23.0961 11.9359 22.9152 12.4472 22.9152C12.9585 22.9152 13.395 23.0973 13.7567 23.4615C14.1185 23.8255 14.2993 24.2632 14.2993 24.7745C14.2993 25.2859 14.1173 25.7224 13.7533 26.0841C13.3891 26.4458 12.9514 26.6266 12.4402 26.6266ZM22.3818 26.6266C21.8704 26.6266 21.4338 26.4446 21.072 26.0806C20.7103 25.7164 20.5294 25.2787 20.5294 24.7676C20.5294 24.2563 20.7115 23.8197 21.0757 23.4578C21.4397 23.0961 21.8774 22.9152 22.3887 22.9152C22.9 22.9152 23.3366 23.0973 23.6983 23.4615C24.06 23.8255 24.2408 24.2632 24.2408 24.7745C24.2408 25.2859 24.0588 25.7224 23.6948 26.0841C23.3306 26.4458 22.8929 26.6266 22.3818 26.6266ZM10.4885 8.73191H25.1368C25.5176 8.73191 25.8073 8.90456 26.0059 9.24986C26.2044 9.595 26.2071 9.94154 26.0139 10.2895L22.6005 16.4366C22.4182 16.757 22.179 17.0111 21.8829 17.1989C21.5869 17.3866 21.2627 17.4804 20.9104 17.4804H13.4212L12.1288 19.8664H24.2408V21.5234H12.2779C11.5655 21.5234 11.0435 21.2597 10.7122 20.7323C10.3808 20.2048 10.378 19.64 10.704 19.038L12.2116 16.2711L8.50017 8.41726H6.54492V6.76025H9.56068L10.4885 8.73191Z" fill="#F2F2F2"/>
</g>
</svg>
