<svg width="34" height="34" viewBox="0 0 34 34" fill="none" xmlns="http://www.w3.org/2000/svg">
<circle cx="17" cy="17" r="17" fill="#D7D7D7"/>
<mask id="mask0_774_1373" style="mask-type:alpha" maskUnits="userSpaceOnUse" x="5" y="4" width="25" height="25">
<rect x="5.36865" y="4.77197" width="23.8596" height="23.8596" fill="#D9D9D9"/>
</mask>
<g mask="url(#mask0_774_1373)">
<path d="M13.3218 18.6901H21.2751V18.193C21.2751 17.486 20.9188 16.9309 20.2064 16.5278C19.4939 16.1247 18.5246 15.9231 17.2985 15.9231C16.0723 15.9231 15.103 16.1247 14.3906 16.5278C13.6781 16.9309 13.3218 17.486 13.3218 18.193V18.6901ZM17.2985 14.498C17.8232 14.498 18.2692 14.3144 18.6363 13.9472C19.0037 13.5799 19.1873 13.1338 19.1873 12.6091C19.1873 12.0845 19.0037 11.6386 18.6363 11.2712C18.2692 10.9039 17.8232 10.7202 17.2985 10.7202C16.7737 10.7202 16.3277 10.9039 15.9606 11.2712C15.5932 11.6386 15.4096 12.0845 15.4096 12.6091C15.4096 13.1338 15.5932 13.5799 15.9606 13.9472C16.3277 14.3144 16.7737 14.498 17.2985 14.498ZM7.35693 26.6433V8.41726C7.35693 7.96989 7.52122 7.58184 7.84978 7.25311C8.17852 6.92454 8.56657 6.76025 9.01394 6.76025H25.583C26.0303 6.76025 26.4184 6.92454 26.7471 7.25311C27.0757 7.58184 27.24 7.96989 27.24 8.41726V21.0097C27.24 21.4571 27.0757 21.8451 26.7471 22.1738C26.4184 22.5024 26.0303 22.6667 25.583 22.6667H11.3335L7.35693 26.6433Z" fill="#F2F2F2"/>
</g>
</svg>
