<svg width="34" height="34" viewBox="0 0 34 34" fill="none" xmlns="http://www.w3.org/2000/svg">
<circle cx="17" cy="17" r="17" fill="#D7D7D7"/>
<mask id="mask0_774_1353" style="mask-type:alpha" maskUnits="userSpaceOnUse" x="5" y="4" width="25" height="25">
<rect x="5.36865" y="4.77197" width="23.8596" height="23.8596" fill="#D9D9D9"/>
</mask>
<g mask="url(#mask0_774_1353)">
<path d="M15.5753 24.8041L15.9397 23.3792C16.0116 23.1527 16.1234 22.9608 16.2752 22.8034C16.4272 22.646 16.6191 22.5563 16.8511 22.5342L20.0821 22.2857C20.3195 22.2635 20.5322 22.3104 20.7201 22.4264C20.9078 22.5423 21.0431 22.7053 21.1259 22.9152L21.4739 23.8763C22.1532 23.4621 22.7636 22.9802 23.3049 22.4306C23.846 21.881 24.2906 21.2582 24.6385 20.5623L24.3736 20.3801C24.1691 20.2476 24.0255 20.0833 23.9426 19.8873C23.8598 19.6911 23.8377 19.4853 23.8765 19.2699L24.6055 16.0722C24.6441 15.8512 24.7476 15.6772 24.9161 15.5503C25.0847 15.4232 25.2738 15.3487 25.4836 15.3266C25.4007 14.9013 25.2917 14.4801 25.1565 14.063C25.0211 13.6462 24.8485 13.2333 24.6385 12.8246C24.5005 12.9185 24.3472 12.9641 24.1787 12.9613C24.0104 12.9585 23.8488 12.9019 23.6941 12.7915L20.9602 11.1676C20.7779 11.0516 20.6454 10.8915 20.5625 10.6872C20.4797 10.4829 20.4576 10.2675 20.4964 10.041L20.7116 9.16287C20.1759 8.9087 19.6223 8.72089 19.0506 8.59944C18.479 8.47798 17.8949 8.41726 17.2985 8.41726C17.0444 8.41726 16.7932 8.42413 16.5446 8.43789C16.2961 8.45164 16.0447 8.4779 15.7906 8.51667L16.6025 10.2728C16.6965 10.4828 16.7145 10.701 16.6565 10.9275C16.5985 11.1538 16.4755 11.3444 16.2877 11.4991L13.8686 13.6366C13.6809 13.7635 13.4724 13.838 13.2431 13.8602C13.0139 13.8823 12.7972 13.8298 12.5929 13.7027L10.2566 12.3109C9.8424 12.9736 9.53172 13.6765 9.32461 14.4195C9.11749 15.1622 9.01394 15.923 9.01394 16.7018C9.01394 16.9889 9.04708 17.4307 9.11335 18.0272L11.3999 17.812C11.6319 17.7789 11.8486 17.8216 12.0501 17.9402C12.2517 18.059 12.3995 18.2317 12.4935 18.4582L13.6865 21.4407C13.7802 21.6504 13.8064 21.8575 13.765 22.062C13.7236 22.2663 13.6145 22.4457 13.4379 22.6003L12.4935 23.462C12.9518 23.7934 13.4392 24.0695 13.9556 24.2904C14.4721 24.5114 15.012 24.6827 15.5753 24.8041ZM17.4806 20.3471C17.2432 20.3691 17.0306 20.3221 16.8429 20.2062C16.655 20.0902 16.5142 19.9272 16.4204 19.7173L14.9788 16.4863C14.896 16.2765 14.889 16.0639 14.958 15.8485C15.0271 15.6331 15.1555 15.4592 15.3432 15.3266L17.9777 13.0401C18.1379 12.8798 18.3313 12.7997 18.5578 12.7997C18.7841 12.7997 18.9995 12.8577 19.204 12.9737L22.087 14.6968C22.2802 14.8128 22.4211 14.973 22.5096 15.1775C22.5979 15.3818 22.6172 15.5972 22.5675 15.8237L21.8052 19.2202C21.7446 19.4247 21.6314 19.6001 21.4657 19.7464C21.3 19.8927 21.1205 19.9769 20.9271 19.9991L17.4806 20.3471ZM17.2985 26.6433C15.9232 26.6433 14.6308 26.3823 13.4213 25.8604C12.2117 25.3385 11.1596 24.6301 10.2648 23.7354C9.37009 22.8407 8.66176 21.7885 8.13983 20.579C7.6179 19.3694 7.35693 18.077 7.35693 16.7018C7.35693 15.3265 7.6179 14.0341 8.13983 12.8246C8.66176 11.615 9.37009 10.5629 10.2648 9.66815C11.1596 8.77341 12.2117 8.06508 13.4213 7.54315C14.6308 7.02122 15.9232 6.76025 17.2985 6.76025C18.6737 6.76025 19.9661 7.02122 21.1756 7.54315C22.3852 8.06508 23.4373 8.77341 24.3321 9.66815C25.2268 10.5629 25.9352 11.615 26.4571 12.8246C26.979 14.0341 27.24 15.3265 27.24 16.7018C27.24 18.077 26.979 19.3694 26.4571 20.579C25.9352 21.7885 25.2268 22.8407 24.3321 23.7354C23.4373 24.6301 22.3852 25.3385 21.1756 25.8604C19.9661 26.3823 18.6737 26.6433 17.2985 26.6433Z" fill="#F2F2F2"/>
</g>
</svg>
