<svg width="34" height="34" viewBox="0 0 34 34" fill="none" xmlns="http://www.w3.org/2000/svg">
<circle cx="17" cy="17" r="17" fill="#D7D7D7"/>
<mask id="mask0_774_1358" style="mask-type:alpha" maskUnits="userSpaceOnUse" x="5" y="4" width="25" height="25">
<rect x="5.36865" y="4.77197" width="23.8596" height="23.8596" fill="#D9D9D9"/>
</mask>
<g mask="url(#mask0_774_1358)">
<path d="M12.4105 26.6433V24.4395L15.4593 22.3187V18.2758L7.35693 21.5401V18.8559L15.4593 13.1725V8.59944C15.4593 8.09689 15.6401 7.66468 16.0018 7.30281C16.3637 6.94111 16.7959 6.76025 17.2985 6.76025C17.801 6.76025 18.2332 6.94111 18.5951 7.30281C18.9568 7.66468 19.1376 8.09689 19.1376 8.59944V13.1725L27.24 18.8559V21.5401L19.1376 18.2758V22.3187L22.1698 24.4395V26.6433L17.2985 25.1687L12.4105 26.6433Z" fill="#F2F2F2"/>
</g>
</svg>
