<svg width="724" height="701" viewBox="0 0 724 701" fill="none" xmlns="http://www.w3.org/2000/svg">
<path d="M229 86.9502C337.368 86.9502 332.303 77.9502 455 77.9502" stroke="#60E2B7" stroke-width="87.5" stroke-miterlimit="10"/>
<path d="M229 167.95C335.769 167.95 275.209 166.95 455 166.95" stroke="#040078" stroke-width="75" stroke-miterlimit="10"/>
<path d="M229 245.95C331.881 245.95 286.921 252.95 455 252.95" stroke="#040078" stroke-width="80" stroke-miterlimit="10"/>
<path d="M229 288.95C301.334 288.95 289.738 303.95 455 303.95" stroke="#040078" stroke-width="7.5" stroke-miterlimit="10"/>
<path d="M228.5 626.199C312.191 626.199 295.91 640.199 452.5 640.199" stroke="#040078" stroke-width="120.83" stroke-miterlimit="10"/>
<path d="M228.5 528.199C306.212 528.199 295.872 533.199 452.5 533.199" stroke="#040078" stroke-width="78.68" stroke-miterlimit="10"/>
<path d="M228.5 464.199C302.736 464.199 295.872 460.199 452.5 460.199" stroke="#040078" stroke-width="50.58" stroke-miterlimit="10"/>
<path d="M229.5 422.199C284.052 422.199 290.334 409.199 377.855 409.199C414.076 409.199 426.941 410.099 452.5 410.099" stroke="#60E2B7" stroke-width="33.72" stroke-miterlimit="10"/>
<path d="M10 686C4.47716 686 1.32784e-07 681.523 2.96582e-07 676L8.03736e-06 415C8.20116e-06 409.477 4.47716 405 10 405L229 405L229 686L10 686Z" fill="#040078"/>
<path d="M10 293C4.47716 293 2.12792e-07 288.523 4.75284e-07 283L1.14068e-05 53C1.16693e-05 47.4772 4.47716 43 10 43L229 43L229 293L10 293Z" fill="#040078"/>
<path d="M602.736 257.096C601.883 257.096 601.093 256.957 600.368 256.68C599.653 256.392 599.029 255.992 598.496 255.48C597.973 254.968 597.563 254.365 597.264 253.672C596.976 252.979 596.832 252.221 596.832 251.4C596.832 250.579 596.976 249.821 597.264 249.128C597.563 248.435 597.979 247.832 598.512 247.32C599.045 246.808 599.669 246.413 600.384 246.136C601.109 245.848 601.899 245.704 602.752 245.704C603.605 245.704 604.384 245.837 605.088 246.104C605.803 246.371 606.411 246.776 606.912 247.32L606.176 248.072C605.707 247.603 605.189 247.267 604.624 247.064C604.059 246.861 603.451 246.76 602.8 246.76C602.107 246.76 601.467 246.877 600.88 247.112C600.304 247.336 599.797 247.661 599.36 248.088C598.933 248.504 598.597 248.995 598.352 249.56C598.117 250.115 598 250.728 598 251.4C598 252.061 598.117 252.675 598.352 253.24C598.597 253.805 598.933 254.301 599.36 254.728C599.797 255.144 600.304 255.469 600.88 255.704C601.467 255.928 602.101 256.04 602.784 256.04C603.424 256.04 604.027 255.944 604.592 255.752C605.168 255.56 605.696 255.235 606.176 254.776L606.848 255.672C606.315 256.141 605.691 256.499 604.976 256.744C604.261 256.979 603.515 257.096 602.736 257.096ZM605.712 255.528L605.712 251.4L606.848 251.4L606.848 255.672L605.712 255.528ZM613.383 257.08C612.572 257.08 611.842 256.899 611.191 256.536C610.551 256.163 610.044 255.656 609.671 255.016C609.298 254.365 609.111 253.624 609.111 252.792C609.111 251.949 609.298 251.208 609.671 250.568C610.044 249.928 610.551 249.427 611.191 249.064C611.831 248.701 612.562 248.52 613.383 248.52C614.215 248.52 614.951 248.701 615.591 249.064C616.242 249.427 616.748 249.928 617.111 250.568C617.484 251.208 617.671 251.949 617.671 252.792C617.671 253.624 617.484 254.365 617.111 255.016C616.748 255.656 616.242 256.163 615.591 256.536C614.94 256.899 614.204 257.08 613.383 257.08ZM613.383 256.072C613.991 256.072 614.53 255.939 614.999 255.672C615.468 255.395 615.836 255.011 616.103 254.52C616.38 254.019 616.519 253.443 616.519 252.792C616.519 252.131 616.38 251.555 616.103 251.064C615.836 250.573 615.468 250.195 614.999 249.928C614.53 249.651 613.996 249.512 613.399 249.512C612.802 249.512 612.268 249.651 611.799 249.928C611.33 250.195 610.956 250.573 610.679 251.064C610.402 251.555 610.263 252.131 610.263 252.792C610.263 253.443 610.402 254.019 610.679 254.52C610.956 255.011 611.33 255.395 611.799 255.672C612.268 255.939 612.796 256.072 613.383 256.072ZM623.414 257.08C622.604 257.08 621.873 256.899 621.222 256.536C620.582 256.163 620.076 255.656 619.702 255.016C619.329 254.365 619.142 253.624 619.142 252.792C619.142 251.949 619.329 251.208 619.702 250.568C620.076 249.928 620.582 249.427 621.222 249.064C621.862 248.701 622.593 248.52 623.414 248.52C624.246 248.52 624.982 248.701 625.622 249.064C626.273 249.427 626.78 249.928 627.142 250.568C627.516 251.208 627.702 251.949 627.702 252.792C627.702 253.624 627.516 254.365 627.142 255.016C626.78 255.656 626.273 256.163 625.622 256.536C624.972 256.899 624.236 257.08 623.414 257.08ZM623.414 256.072C624.022 256.072 624.561 255.939 625.03 255.672C625.5 255.395 625.868 255.011 626.134 254.52C626.412 254.019 626.55 253.443 626.55 252.792C626.55 252.131 626.412 251.555 626.134 251.064C625.868 250.573 625.5 250.195 625.03 249.928C624.561 249.651 624.028 249.512 623.43 249.512C622.833 249.512 622.3 249.651 621.83 249.928C621.361 250.195 620.988 250.573 620.71 251.064C620.433 251.555 620.294 252.131 620.294 252.792C620.294 253.443 620.433 254.019 620.71 254.52C620.988 255.011 621.361 255.395 621.83 255.672C622.3 255.939 622.828 256.072 623.414 256.072ZM633.605 260.184C632.837 260.184 632.101 260.072 631.397 259.848C630.693 259.624 630.123 259.304 629.685 258.888L630.261 258.024C630.656 258.376 631.141 258.653 631.717 258.856C632.304 259.069 632.923 259.176 633.573 259.176C634.64 259.176 635.424 258.925 635.925 258.424C636.427 257.933 636.678 257.165 636.678 256.12L636.678 254.024L636.838 252.584L636.725 251.144L636.725 248.6L637.814 248.6L637.814 255.976C637.813 257.427 637.456 258.488 636.742 259.16C636.037 259.843 634.992 260.184 633.605 260.184ZM633.397 256.68C632.597 256.68 631.877 256.509 631.237 256.168C630.597 255.816 630.091 255.331 629.717 254.712C629.355 254.093 629.173 253.384 629.173 252.584C629.173 251.784 629.355 251.08 629.717 250.472C630.091 249.853 630.597 249.373 631.237 249.032C631.878 248.691 632.597 248.52 633.397 248.52C634.144 248.52 634.816 248.675 635.414 248.984C636.011 249.293 636.486 249.752 636.838 250.36C637.19 250.968 637.366 251.709 637.366 252.584C637.366 253.459 637.19 254.2 636.838 254.808C636.485 255.416 636.011 255.88 635.413 256.2C634.816 256.52 634.144 256.68 633.397 256.68ZM633.509 255.672C634.128 255.672 634.678 255.544 635.157 255.288C635.638 255.021 636.016 254.659 636.294 254.2C636.571 253.731 636.709 253.192 636.71 252.584C636.71 251.976 636.571 251.443 636.294 250.984C636.016 250.525 635.638 250.168 635.158 249.912C634.678 249.645 634.128 249.512 633.509 249.512C632.901 249.512 632.352 249.645 631.862 249.912C631.382 250.168 631.003 250.525 630.725 250.984C630.459 251.443 630.325 251.976 630.325 252.584C630.325 253.192 630.459 253.731 630.725 254.2C631.003 254.659 631.381 255.021 631.861 255.288C632.352 255.544 632.901 255.672 633.509 255.672ZM640.975 257L640.975 245.128L642.111 245.128L642.111 257L640.975 257ZM648.84 257.08C647.965 257.08 647.197 256.899 646.535 256.536C645.874 256.163 645.357 255.656 644.983 255.016C644.61 254.365 644.423 253.624 644.423 252.792C644.423 251.96 644.599 251.224 644.951 250.584C645.314 249.944 645.805 249.443 646.423 249.08C647.053 248.707 647.757 248.52 648.535 248.52C649.325 248.52 650.023 248.701 650.632 249.064C651.25 249.416 651.736 249.917 652.088 250.568C652.44 251.208 652.616 251.949 652.616 252.792C652.616 252.845 652.61 252.904 652.6 252.968C652.6 253.021 652.6 253.08 652.6 253.144L645.287 253.144L645.287 252.296L651.992 252.296L651.544 252.632C651.544 252.024 651.41 251.485 651.144 251.016C650.888 250.536 650.536 250.163 650.087 249.896C649.639 249.629 649.122 249.496 648.535 249.496C647.959 249.496 647.442 249.629 646.984 249.896C646.525 250.163 646.167 250.536 645.911 251.016C645.655 251.496 645.527 252.045 645.527 252.664L645.527 252.84C645.527 253.48 645.666 254.045 645.943 254.536C646.231 255.016 646.626 255.395 647.127 255.672C647.639 255.939 648.221 256.072 648.871 256.072C649.383 256.072 649.858 255.981 650.295 255.8C650.743 255.619 651.127 255.341 651.447 254.968L652.088 255.704C651.714 256.152 651.245 256.493 650.679 256.728C650.125 256.963 649.511 257.08 648.84 257.08Z" fill="black"/>
<path d="M597.824 173L597.824 161.8L598.8 161.8L603.92 170.536L603.408 170.536L608.48 161.8L609.456 161.8L609.456 173L608.32 173L608.32 163.576L608.592 163.576L603.92 171.576L603.36 171.576L598.656 163.576L598.96 163.576L598.96 173L597.824 173ZM616.433 173.08C615.559 173.08 614.791 172.899 614.129 172.536C613.468 172.163 612.951 171.656 612.577 171.016C612.204 170.365 612.017 169.624 612.017 168.792C612.017 167.96 612.193 167.224 612.545 166.584C612.908 165.944 613.399 165.443 614.017 165.08C614.647 164.707 615.351 164.52 616.129 164.52C616.919 164.52 617.617 164.701 618.225 165.064C618.844 165.416 619.329 165.917 619.681 166.568C620.033 167.208 620.209 167.949 620.209 168.792C620.209 168.845 620.204 168.904 620.193 168.968C620.193 169.021 620.193 169.08 620.193 169.144L612.881 169.144L612.881 168.296L619.585 168.296L619.137 168.632C619.137 168.024 619.004 167.485 618.737 167.016C618.481 166.536 618.129 166.163 617.681 165.896C617.233 165.629 616.716 165.496 616.129 165.496C615.553 165.496 615.036 165.629 614.577 165.896C614.119 166.163 613.761 166.536 613.505 167.016C613.249 167.496 613.121 168.045 613.121 168.664L613.121 168.84C613.121 169.48 613.26 170.045 613.537 170.536C613.825 171.016 614.22 171.395 614.721 171.672C615.233 171.939 615.815 172.072 616.465 172.072C616.977 172.072 617.452 171.981 617.889 171.8C618.337 171.619 618.721 171.341 619.041 170.968L619.681 171.704C619.308 172.152 618.839 172.493 618.273 172.728C617.719 172.963 617.105 173.08 616.433 173.08ZM625.177 173.08C624.388 173.08 623.78 172.867 623.353 172.44C622.927 172.013 622.713 171.411 622.713 170.632L622.713 162.744L623.85 162.744L623.849 170.568C623.849 171.059 623.972 171.437 624.217 171.704C624.473 171.971 624.836 172.104 625.305 172.104C625.807 172.104 626.223 171.96 626.553 171.672L626.953 172.488C626.729 172.691 626.457 172.84 626.137 172.936C625.828 173.032 625.508 173.08 625.177 173.08ZM621.209 165.544L621.209 164.6L626.409 164.6L626.409 165.544L621.209 165.544ZM634.286 173L634.286 171.144L634.237 170.84L634.237 167.736C634.237 167.021 634.035 166.472 633.63 166.088C633.235 165.704 632.643 165.512 631.854 165.512C631.309 165.512 630.792 165.603 630.301 165.784C629.811 165.965 629.395 166.205 629.053 166.504L628.541 165.656C628.968 165.293 629.48 165.016 630.077 164.824C630.675 164.621 631.304 164.52 631.966 164.52C633.054 164.52 633.891 164.792 634.478 165.336C635.075 165.869 635.374 166.685 635.374 167.784L635.373 173L634.286 173ZM631.389 173.08C630.76 173.08 630.211 172.979 629.741 172.776C629.283 172.563 628.931 172.275 628.685 171.912C628.44 171.539 628.317 171.112 628.317 170.632C628.317 170.195 628.419 169.8 628.621 169.448C628.835 169.085 629.176 168.797 629.645 168.584C630.125 168.36 630.765 168.248 631.565 168.248L634.461 168.248L634.461 169.096L631.598 169.096C630.787 169.096 630.221 169.24 629.901 169.528C629.592 169.816 629.437 170.173 629.437 170.6C629.437 171.08 629.624 171.464 629.997 171.752C630.371 172.04 630.893 172.184 631.565 172.184C632.205 172.184 632.755 172.04 633.214 171.752C633.683 171.453 634.024 171.027 634.237 170.472L634.493 171.256C634.28 171.811 633.907 172.253 633.373 172.584C632.851 172.915 632.189 173.08 631.389 173.08Z" fill="black"/>
<path d="M607.344 296.768L608.672 296.768L608.672 311.248L607.344 311.248L607.344 296.768ZM603.104 298.336L604.416 298.336C604.416 299.381 604.288 300.389 604.032 301.36C603.787 302.331 603.397 303.253 602.864 304.128C602.331 304.992 601.637 305.797 600.784 306.544C599.931 307.291 598.896 307.957 597.68 308.544L596.976 307.472C598.373 306.8 599.525 306.016 600.432 305.12C601.339 304.224 602.011 303.227 602.448 302.128C602.885 301.019 603.104 299.824 603.104 298.544L603.104 298.336ZM597.648 298.336L603.664 298.336L603.664 299.408L597.648 299.408L597.648 298.336ZM612.143 306.656L613.279 306.656C614.164 306.656 614.975 306.645 615.711 306.624C616.447 306.603 617.156 306.56 617.839 306.496C618.532 306.432 619.241 306.336 619.967 306.208L620.095 307.296C619.359 307.424 618.639 307.525 617.935 307.6C617.231 307.664 616.5 307.707 615.743 307.728C614.996 307.749 614.175 307.76 613.279 307.76L612.143 307.76L612.143 306.656ZM612.143 298.08L618.879 298.08L618.879 299.184L613.471 299.184L613.471 307.04L612.143 307.04L612.143 298.08ZM613.135 302.144L618.559 302.144L618.559 303.216L613.135 303.216L613.135 302.144ZM621.311 296.768L622.639 296.768L622.639 311.248L621.311 311.248L621.311 296.768ZM622.335 302.576L625.007 302.576L625.007 303.696L622.335 303.696L622.335 302.576ZM634.313 302.752L635.625 302.752L635.625 305.344L634.313 305.344L634.313 302.752ZM640.937 296.784L642.265 296.784L642.265 305.296L640.937 305.296L640.937 296.784ZM630.537 303.2L630.377 302.224C631.305 302.224 632.297 302.219 633.353 302.208C634.42 302.187 635.502 302.155 636.601 302.112C637.7 302.059 638.766 301.973 639.801 301.856L639.881 302.72C638.825 302.869 637.748 302.981 636.649 303.056C635.561 303.12 634.494 303.163 633.449 303.184C632.414 303.195 631.444 303.2 630.537 303.2ZM632.569 305.824L642.265 305.824L642.265 308.832L633.913 308.832L633.913 310.464L632.617 310.464L632.617 307.936L640.953 307.936L640.953 306.768L632.569 306.768L632.569 305.824ZM632.617 310.112L642.745 310.112L642.745 311.088L632.617 311.088L632.617 310.112ZM638.057 303.664L641.369 303.664L641.369 304.528L638.057 304.528L638.057 303.664ZM635.049 297.056C635.764 297.056 636.388 297.141 636.921 297.312C637.454 297.483 637.87 297.733 638.169 298.064C638.468 298.395 638.617 298.784 638.617 299.232C638.617 299.669 638.468 300.053 638.169 300.384C637.87 300.704 637.454 300.955 636.921 301.136C636.388 301.307 635.764 301.392 635.049 301.392C634.334 301.392 633.705 301.307 633.161 301.136C632.628 300.955 632.212 300.704 631.913 300.384C631.625 300.053 631.481 299.669 631.481 299.232C631.481 298.784 631.625 298.395 631.913 298.064C632.212 297.733 632.628 297.483 633.161 297.312C633.705 297.141 634.334 297.056 635.049 297.056ZM635.049 297.968C634.345 297.968 633.78 298.08 633.353 298.304C632.937 298.528 632.729 298.837 632.729 299.232C632.729 299.605 632.937 299.909 633.353 300.144C633.78 300.368 634.345 300.48 635.049 300.48C635.753 300.48 636.313 300.368 636.729 300.144C637.156 299.909 637.369 299.605 637.369 299.232C637.369 298.837 637.156 298.528 636.729 298.304C636.313 298.08 635.753 297.968 635.049 297.968ZM646.808 303.712L656.744 303.712L656.744 304.8L646.808 304.8L646.808 303.712ZM645.144 308.176L658.264 308.176L658.264 309.28L645.144 309.28L645.144 308.176ZM646.808 298.112L656.6 298.112L656.6 299.2L648.12 299.2L648.12 304.192L646.808 304.192L646.808 298.112ZM669.655 296.768L670.983 296.768L670.983 311.232L669.655 311.232L669.655 296.768ZM670.631 302.64L673.287 302.64L673.287 303.744L670.631 303.744L670.631 302.64ZM665.959 298.32L667.255 298.32C667.255 299.696 667.031 301.013 666.583 302.272C666.135 303.52 665.431 304.677 664.471 305.744C663.51 306.8 662.246 307.717 660.678 308.496L659.942 307.472C661.286 306.8 662.401 306.016 663.286 305.12C664.182 304.213 664.849 303.211 665.287 302.112C665.735 301.003 665.959 299.808 665.959 298.528L665.959 298.32ZM660.614 298.32L666.631 298.32L666.631 299.424L660.614 299.424L660.614 298.32ZM674.581 304.08L687.669 304.08L687.669 305.152L674.581 305.152L674.581 304.08ZM676.229 301.408L686.165 301.408L686.165 302.496L676.229 302.496L676.229 301.408ZM676.229 297.392L686.037 297.392L686.037 298.464L677.557 298.464L677.557 301.76L676.229 301.76L676.229 297.392ZM676.261 309.824L686.277 309.824L686.277 310.912L676.261 310.912L676.261 309.824ZM676.261 306.688L677.573 306.688L677.573 310.112L676.261 310.112L676.261 306.688Z" fill="black"/>
<path d="M541.296 86.336C540.032 86.336 538.912 86.112 537.936 85.664C536.96 85.216 536.192 84.576 535.632 83.744C535.088 82.896 534.816 81.896 534.816 80.744V80.312H537.888V80.648C537.888 81.544 538.2 82.264 538.824 82.808C539.448 83.336 540.272 83.6 541.296 83.6C542.336 83.6 543.136 83.352 543.696 82.856C544.272 82.36 544.56 81.736 544.56 80.984V80.744C544.56 80.232 544.432 79.816 544.176 79.496C543.92 79.176 543.576 78.944 543.144 78.8C542.712 78.64 542.224 78.56 541.68 78.56H538.32V75.2L543.744 72.32V71.936H535.248V69.2H547.152V73.28L542.088 75.968V76.352H542.976C543.728 76.352 544.456 76.504 545.16 76.808C545.88 77.112 546.472 77.584 546.936 78.224C547.4 78.848 547.632 79.664 547.632 80.672V80.96C547.632 82.048 547.368 83 546.84 83.816C546.312 84.616 545.568 85.24 544.608 85.688C543.664 86.12 542.56 86.336 541.296 86.336ZM555.874 86.336C554.562 86.336 553.426 86.104 552.466 85.64C551.522 85.176 550.794 84.52 550.282 83.672C549.77 82.824 549.514 81.84 549.514 80.72V80.48H552.634V80.696C552.634 81.496 552.898 82.184 553.426 82.76C553.97 83.32 554.77 83.6 555.826 83.6C556.882 83.6 557.69 83.32 558.25 82.76C558.826 82.184 559.114 81.44 559.114 80.528V80.288C559.114 79.392 558.826 78.68 558.25 78.152C557.69 77.624 556.986 77.36 556.138 77.36C555.674 77.36 555.29 77.424 554.986 77.552C554.682 77.68 554.434 77.84 554.242 78.032C554.05 78.224 553.89 78.416 553.762 78.608H550.042V69.2H561.514V71.984H553.114V76.088H553.546C553.706 75.88 553.922 75.68 554.194 75.488C554.466 75.296 554.818 75.136 555.25 75.008C555.682 74.88 556.194 74.816 556.786 74.816C557.778 74.816 558.682 75.024 559.498 75.44C560.314 75.856 560.962 76.472 561.442 77.288C561.938 78.088 562.186 79.08 562.186 80.264V80.552C562.186 81.736 561.93 82.76 561.418 83.624C560.922 84.488 560.202 85.16 559.258 85.64C558.314 86.104 557.186 86.336 555.874 86.336ZM566.544 86.312L564.72 84.848L577.632 68.888L579.456 70.352L566.544 86.312ZM576.672 86.24C575.456 86.24 574.504 85.92 573.816 85.28C573.128 84.624 572.784 83.736 572.784 82.616V82.448C572.784 81.312 573.128 80.424 573.816 79.784C574.504 79.128 575.456 78.8 576.672 78.8C577.856 78.8 578.8 79.128 579.504 79.784C580.208 80.424 580.56 81.312 580.56 82.448V82.616C580.56 83.736 580.216 84.624 579.528 85.28C578.84 85.92 577.888 86.24 576.672 86.24ZM576.672 84.272C577.136 84.272 577.496 84.128 577.752 83.84C578.024 83.552 578.16 83.176 578.16 82.712V82.328C578.16 81.864 578.024 81.488 577.752 81.2C577.496 80.912 577.136 80.768 576.672 80.768C576.208 80.768 575.84 80.912 575.568 81.2C575.312 81.488 575.184 81.864 575.184 82.328V82.712C575.184 83.176 575.312 83.552 575.568 83.84C575.84 84.128 576.208 84.272 576.672 84.272ZM567.504 76.4C566.288 76.4 565.336 76.08 564.648 75.44C563.96 74.784 563.616 73.896 563.616 72.776V72.608C563.616 71.472 563.96 70.584 564.648 69.944C565.336 69.288 566.288 68.96 567.504 68.96C568.688 68.96 569.632 69.288 570.336 69.944C571.04 70.584 571.392 71.472 571.392 72.608V72.776C571.392 73.896 571.048 74.784 570.36 75.44C569.672 76.08 568.72 76.4 567.504 76.4ZM567.504 74.432C567.968 74.432 568.328 74.288 568.584 74C568.856 73.712 568.992 73.336 568.992 72.872V72.488C568.992 72.024 568.856 71.648 568.584 71.36C568.328 71.072 567.968 70.928 567.504 70.928C567.04 70.928 566.672 71.072 566.4 71.36C566.144 71.648 566.016 72.024 566.016 72.488V72.872C566.016 73.336 566.144 73.712 566.4 74C566.672 74.288 567.04 74.432 567.504 74.432Z" fill="#12976B"/>
<path d="M541.296 312.336C540.032 312.336 538.912 312.112 537.936 311.664C536.96 311.216 536.192 310.576 535.632 309.744C535.088 308.896 534.816 307.896 534.816 306.744L534.816 306.312L537.888 306.312L537.888 306.648C537.888 307.544 538.2 308.264 538.824 308.808C539.448 309.336 540.272 309.6 541.296 309.6C542.336 309.6 543.136 309.352 543.696 308.856C544.272 308.36 544.56 307.736 544.56 306.984L544.56 306.744C544.56 306.232 544.432 305.816 544.176 305.496C543.92 305.176 543.576 304.944 543.144 304.8C542.712 304.64 542.224 304.56 541.68 304.56L538.32 304.56L538.32 301.2L543.744 298.32L543.744 297.936L535.248 297.936L535.248 295.2L547.152 295.2L547.152 299.28L542.088 301.968L542.088 302.352L542.976 302.352C543.728 302.352 544.456 302.504 545.16 302.808C545.88 303.112 546.472 303.584 546.936 304.224C547.4 304.848 547.632 305.664 547.632 306.672L547.632 306.96C547.632 308.048 547.368 309 546.84 309.816C546.312 310.616 545.568 311.24 544.608 311.688C543.664 312.12 542.56 312.336 541.296 312.336ZM552.154 312.312L550.33 310.848L563.242 294.888L565.066 296.352L552.154 312.312ZM562.282 312.24C561.066 312.24 560.114 311.92 559.426 311.28C558.738 310.624 558.394 309.736 558.394 308.616L558.394 308.448C558.394 307.312 558.738 306.424 559.426 305.784C560.114 305.128 561.066 304.8 562.282 304.8C563.466 304.8 564.41 305.128 565.114 305.784C565.818 306.424 566.17 307.312 566.17 308.448L566.17 308.616C566.17 309.736 565.826 310.624 565.138 311.28C564.45 311.92 563.498 312.24 562.282 312.24ZM562.282 310.272C562.746 310.272 563.106 310.128 563.362 309.84C563.634 309.552 563.77 309.176 563.77 308.712L563.77 308.328C563.77 307.864 563.634 307.488 563.362 307.2C563.106 306.912 562.746 306.768 562.282 306.768C561.818 306.768 561.45 306.912 561.178 307.2C560.922 307.488 560.794 307.864 560.794 308.328L560.794 308.712C560.794 309.176 560.922 309.552 561.178 309.84C561.45 310.128 561.818 310.272 562.282 310.272ZM553.114 302.4C551.898 302.4 550.946 302.08 550.258 301.44C549.57 300.784 549.226 299.896 549.226 298.776L549.226 298.608C549.226 297.472 549.57 296.584 550.258 295.944C550.946 295.288 551.898 294.96 553.114 294.96C554.298 294.96 555.242 295.288 555.946 295.944C556.65 296.584 557.002 297.472 557.002 298.608L557.002 298.776C557.002 299.896 556.658 300.784 555.97 301.44C555.282 302.08 554.33 302.4 553.114 302.4ZM553.114 300.432C553.578 300.432 553.938 300.288 554.194 300C554.466 299.712 554.602 299.336 554.602 298.872L554.602 298.488C554.602 298.024 554.466 297.648 554.194 297.36C553.938 297.072 553.578 296.928 553.114 296.928C552.65 296.928 552.282 297.072 552.01 297.36C551.754 297.648 551.626 298.024 551.626 298.488L551.626 298.872C551.626 299.336 551.754 299.712 552.01 300C552.282 300.288 552.65 300.432 553.114 300.432Z" fill="black"/>
<path d="M541.296 260.336C540.032 260.336 538.912 260.112 537.936 259.664C536.96 259.216 536.192 258.576 535.632 257.744C535.088 256.896 534.816 255.896 534.816 254.744L534.816 254.312L537.888 254.312L537.888 254.648C537.888 255.544 538.2 256.264 538.824 256.808C539.448 257.336 540.272 257.6 541.296 257.6C542.336 257.6 543.136 257.352 543.696 256.856C544.272 256.36 544.56 255.736 544.56 254.984L544.56 254.744C544.56 254.232 544.432 253.816 544.176 253.496C543.92 253.176 543.576 252.944 543.144 252.8C542.712 252.64 542.224 252.56 541.68 252.56L538.32 252.56L538.32 249.2L543.744 246.32L543.744 245.936L535.248 245.936L535.248 243.2L547.152 243.2L547.152 247.28L542.088 249.968L542.088 250.352L542.976 250.352C543.728 250.352 544.456 250.504 545.16 250.808C545.88 251.112 546.472 251.584 546.936 252.224C547.4 252.848 547.632 253.664 547.632 254.672L547.632 254.96C547.632 256.048 547.368 257 546.84 257.816C546.312 258.616 545.568 259.24 544.608 259.688C543.664 260.12 542.56 260.336 541.296 260.336ZM549.61 260L549.61 257.984C549.61 256.816 549.802 255.848 550.186 255.08C550.57 254.296 551.122 253.656 551.842 253.16C552.578 252.648 553.474 252.232 554.53 251.912L556.138 251.408C556.73 251.216 557.226 250.984 557.626 250.712C558.026 250.424 558.33 250.08 558.538 249.68C558.762 249.28 558.874 248.824 558.874 248.312L558.874 248.216C558.874 247.416 558.602 246.784 558.058 246.32C557.514 245.84 556.77 245.6 555.826 245.6C554.898 245.6 554.146 245.856 553.57 246.368C553.01 246.864 552.73 247.584 552.73 248.528L552.73 248.96L549.658 248.96L549.658 248.576C549.658 247.36 549.93 246.328 550.474 245.48C551.018 244.632 551.754 243.984 552.682 243.536C553.626 243.088 554.674 242.864 555.826 242.864C556.978 242.864 558.018 243.088 558.946 243.536C559.874 243.968 560.602 244.584 561.13 245.384C561.674 246.168 561.946 247.096 561.946 248.168L561.946 248.408C561.946 249.48 561.722 250.392 561.274 251.144C560.842 251.88 560.25 252.488 559.498 252.968C558.746 253.432 557.89 253.816 556.93 254.12L555.394 254.6C554.706 254.808 554.17 255.04 553.786 255.296C553.402 255.536 553.13 255.808 552.97 256.112C552.826 256.4 552.754 256.752 552.754 257.168L552.754 257.264L561.802 257.264L561.802 260L549.61 260ZM566.404 260.312L564.58 258.848L577.492 242.888L579.316 244.352L566.404 260.312ZM576.532 260.24C575.316 260.24 574.364 259.92 573.676 259.28C572.988 258.624 572.644 257.736 572.644 256.616L572.644 256.448C572.644 255.312 572.988 254.424 573.676 253.784C574.364 253.128 575.316 252.8 576.532 252.8C577.716 252.8 578.66 253.128 579.364 253.784C580.068 254.424 580.42 255.312 580.42 256.448L580.42 256.616C580.42 257.736 580.076 258.624 579.388 259.28C578.7 259.92 577.748 260.24 576.532 260.24ZM576.532 258.272C576.996 258.272 577.356 258.128 577.612 257.84C577.884 257.552 578.02 257.176 578.02 256.712L578.02 256.328C578.02 255.864 577.884 255.488 577.612 255.2C577.356 254.912 576.996 254.768 576.532 254.768C576.068 254.768 575.7 254.912 575.428 255.2C575.172 255.488 575.044 255.864 575.044 256.328L575.044 256.712C575.044 257.176 575.172 257.552 575.428 257.84C575.7 258.128 576.068 258.272 576.532 258.272ZM567.364 250.4C566.148 250.4 565.196 250.08 564.508 249.44C563.82 248.784 563.476 247.896 563.476 246.776L563.476 246.608C563.476 245.472 563.82 244.584 564.508 243.944C565.196 243.288 566.148 242.96 567.364 242.96C568.548 242.96 569.492 243.288 570.196 243.944C570.9 244.584 571.252 245.472 571.252 246.608L571.252 246.776C571.252 247.896 570.908 248.784 570.22 249.44C569.532 250.08 568.58 250.4 567.364 250.4ZM567.364 248.432C567.828 248.432 568.188 248.288 568.444 248C568.716 247.712 568.852 247.336 568.852 246.872L568.852 246.488C568.852 246.024 568.716 245.648 568.444 245.36C568.188 245.072 567.828 244.928 567.364 244.928C566.9 244.928 566.532 245.072 566.26 245.36C566.004 245.648 565.876 246.024 565.876 246.488L565.876 246.872C565.876 247.336 566.004 247.712 566.26 248C566.532 248.288 566.9 248.432 567.364 248.432Z" fill="black"/>
<path d="M541.296 176.336C540.032 176.336 538.912 176.112 537.936 175.664C536.96 175.216 536.192 174.576 535.632 173.744C535.088 172.896 534.816 171.896 534.816 170.744L534.816 170.312L537.888 170.312L537.888 170.648C537.888 171.544 538.2 172.264 538.824 172.808C539.448 173.336 540.272 173.6 541.296 173.6C542.336 173.6 543.136 173.352 543.696 172.856C544.272 172.36 544.56 171.736 544.56 170.984L544.56 170.744C544.56 170.232 544.432 169.816 544.176 169.496C543.92 169.176 543.576 168.944 543.144 168.8C542.712 168.64 542.224 168.56 541.68 168.56L538.32 168.56L538.32 165.2L543.744 162.32L543.744 161.936L535.248 161.936L535.248 159.2L547.152 159.2L547.152 163.28L542.088 165.968L542.088 166.352L542.976 166.352C543.728 166.352 544.456 166.504 545.16 166.808C545.88 167.112 546.472 167.584 546.936 168.224C547.4 168.848 547.632 169.664 547.632 170.672L547.632 170.96C547.632 172.048 547.368 173 546.84 173.816C546.312 174.616 545.568 175.24 544.608 175.688C543.664 176.12 542.56 176.336 541.296 176.336ZM556.378 176.336C554.394 176.336 552.802 175.792 551.602 174.704C550.402 173.6 549.802 171.936 549.802 169.712L549.802 165.488C549.802 163.328 550.402 161.688 551.602 160.568C552.802 159.432 554.394 158.864 556.378 158.864C558.378 158.864 559.97 159.432 561.154 160.568C562.354 161.688 562.954 163.328 562.954 165.488L562.954 169.712C562.954 171.936 562.354 173.6 561.154 174.704C559.97 175.792 558.378 176.336 556.378 176.336ZM556.378 173.6C557.578 173.6 558.458 173.272 559.018 172.616C559.594 171.96 559.882 171.024 559.882 169.808L559.882 165.344C559.882 164.112 559.562 163.184 558.922 162.56C558.298 161.92 557.45 161.6 556.378 161.6C555.274 161.6 554.41 161.928 553.786 162.584C553.178 163.24 552.874 164.16 552.874 165.344L552.874 169.808C552.874 171.072 553.162 172.024 553.738 172.664C554.33 173.288 555.21 173.6 556.378 173.6ZM567.716 176.312L565.892 174.848L578.804 158.888L580.628 160.352L567.716 176.312ZM577.844 176.24C576.628 176.24 575.676 175.92 574.988 175.28C574.3 174.624 573.956 173.736 573.956 172.616L573.956 172.448C573.956 171.312 574.3 170.424 574.988 169.784C575.676 169.128 576.628 168.8 577.844 168.8C579.028 168.8 579.972 169.128 580.676 169.784C581.38 170.424 581.732 171.312 581.732 172.448L581.732 172.616C581.732 173.736 581.388 174.624 580.7 175.28C580.012 175.92 579.06 176.24 577.844 176.24ZM577.844 174.272C578.308 174.272 578.668 174.128 578.924 173.84C579.196 173.552 579.332 173.176 579.332 172.712L579.332 172.328C579.332 171.864 579.196 171.488 578.924 171.2C578.668 170.912 578.308 170.768 577.844 170.768C577.38 170.768 577.012 170.912 576.74 171.2C576.484 171.488 576.356 171.864 576.356 172.328L576.356 172.712C576.356 173.176 576.484 173.552 576.74 173.84C577.012 174.128 577.38 174.272 577.844 174.272ZM568.676 166.4C567.46 166.4 566.508 166.08 565.82 165.44C565.132 164.784 564.788 163.896 564.788 162.776L564.788 162.608C564.788 161.472 565.132 160.584 565.82 159.944C566.508 159.288 567.46 158.96 568.676 158.96C569.86 158.96 570.804 159.288 571.508 159.944C572.212 160.584 572.564 161.472 572.564 162.608L572.564 162.776C572.564 163.896 572.22 164.784 571.532 165.44C570.844 166.08 569.892 166.4 568.676 166.4ZM568.676 164.432C569.14 164.432 569.5 164.288 569.756 164C570.028 163.712 570.164 163.336 570.164 162.872L570.164 162.488C570.164 162.024 570.028 161.648 569.756 161.36C569.5 161.072 569.14 160.928 568.676 160.928C568.212 160.928 567.844 161.072 567.572 161.36C567.316 161.648 567.188 162.024 567.188 162.488L567.188 162.872C567.188 163.336 567.316 163.712 567.572 164C567.844 164.288 568.212 164.432 568.676 164.432Z" fill="black"/>
<path d="M596.8 77.984L609.872 77.984L609.872 79.056L596.8 79.056L596.8 77.984ZM602.672 75.504L604 75.504L604 78.416L602.672 78.416L602.672 75.504ZM598.256 80.464L608.272 80.464L608.272 85.36L606.96 85.36L606.96 81.536L598.256 81.536L598.256 80.464ZM598.448 75.168L608.384 75.168L608.384 76.256L598.448 76.256L598.448 75.168ZM598.448 71.36L608.256 71.36L608.256 72.432L599.776 72.432L599.776 75.728L598.448 75.728L598.448 71.36ZM622.047 70.784L623.375 70.784L623.375 78.736L622.047 78.736L622.047 70.784ZM612.271 77.328L613.439 77.328C614.313 77.328 615.124 77.3173 615.871 77.296C616.628 77.2747 617.364 77.232 618.079 77.168C618.793 77.0933 619.535 76.9973 620.303 76.88L620.463 77.968C619.663 78.096 618.895 78.192 618.159 78.256C617.433 78.32 616.687 78.368 615.919 78.4C615.161 78.4213 614.335 78.432 613.439 78.432L612.271 78.432L612.271 77.328ZM612.239 71.472L618.799 71.472L618.799 75.408L613.567 75.408L613.567 78.048L612.271 78.048L612.271 74.368L617.503 74.368L617.503 72.56L612.239 72.56L612.239 71.472ZM614.031 79.456L615.343 79.456L615.343 81.152L622.063 81.152L622.063 79.456L623.375 79.456L623.375 85.056L614.031 85.056L614.031 79.456ZM615.343 82.208L615.343 83.968L622.063 83.968L622.063 82.208L615.343 82.208ZM631.209 71.68L637.609 71.68L637.609 72.768L631.209 72.768L631.209 71.68ZM633.385 74.816L634.697 74.816L634.697 78.272L633.385 78.272L633.385 74.816ZM637.065 71.68L638.377 71.68L638.377 72.464C638.377 72.912 638.361 73.4613 638.329 74.112C638.297 74.7627 638.185 75.5147 637.993 76.368L636.697 76.256C636.878 75.4133 636.985 74.6827 637.017 74.064C637.049 73.4453 637.065 72.912 637.065 72.464L637.065 71.68ZM640.345 70.768L641.689 70.768L641.689 79.792L640.345 79.792L640.345 70.768ZM641.065 74.704L643.753 74.704L643.753 75.824L641.065 75.824L641.065 74.704ZM630.473 78.816L630.329 77.712C631.204 77.712 632.153 77.7013 633.177 77.68C634.212 77.6587 635.262 77.6213 636.329 77.568C637.396 77.504 638.414 77.408 639.385 77.28L639.465 78.24C638.473 78.4 637.449 78.5227 636.393 78.608C635.337 78.6933 634.302 78.752 633.289 78.784C632.276 78.8053 631.337 78.816 630.473 78.816ZM637.017 79.984C638.009 79.984 638.862 80.0853 639.577 80.288C640.302 80.4907 640.857 80.7893 641.241 81.184C641.625 81.568 641.817 82.032 641.817 82.576C641.817 83.1307 641.625 83.6053 641.241 84C640.857 84.384 640.302 84.6773 639.577 84.88C638.862 85.0933 638.009 85.2 637.017 85.2C636.025 85.2 635.172 85.0933 634.457 84.88C633.742 84.6773 633.188 84.384 632.793 84C632.409 83.6053 632.217 83.1307 632.217 82.576C632.217 82.032 632.409 81.568 632.793 81.184C633.188 80.7893 633.742 80.4907 634.457 80.288C635.172 80.0853 636.025 79.984 637.017 79.984ZM637.017 81.024C635.94 81.024 635.092 81.1627 634.473 81.44C633.854 81.7067 633.545 82.0853 633.545 82.576C633.545 83.0773 633.854 83.4667 634.473 83.744C635.092 84.0107 635.94 84.144 637.017 84.144C638.094 84.144 638.937 84.0107 639.545 83.744C640.164 83.4667 640.473 83.0773 640.473 82.576C640.473 82.0853 640.164 81.7067 639.545 81.44C638.937 81.1627 638.094 81.024 637.017 81.024ZM646.536 72.224L655.848 72.224L655.848 73.312L646.536 73.312L646.536 72.224ZM645.144 82.112L658.216 82.112L658.216 83.216L645.144 83.216L645.144 82.112ZM650.232 76.944L651.544 76.944L651.544 82.672L650.232 82.672L650.232 76.944ZM655.336 72.224L656.664 72.224L656.664 73.648C656.664 74.2453 656.653 74.8747 656.632 75.536C656.621 76.1973 656.578 76.9227 656.504 77.712C656.44 78.5013 656.317 79.3813 656.136 80.352L654.792 80.192C655.069 78.8053 655.229 77.5893 655.272 76.544C655.314 75.488 655.336 74.5227 655.336 73.648L655.336 72.224ZM667.074 71.68L668.13 71.68L668.13 73.616C668.13 74.3307 667.997 75.04 667.73 75.744C667.463 76.448 667.079 77.0827 666.578 77.648C666.087 78.2133 665.485 78.656 664.77 78.976L664.05 77.952C664.679 77.6747 665.218 77.3013 665.666 76.832C666.125 76.352 666.471 75.8293 666.706 75.264C666.951 74.6987 667.074 74.1493 667.074 73.616L667.074 71.68ZM667.298 71.68L668.354 71.68L668.354 73.616C668.354 74.1387 668.466 74.6613 668.69 75.184C668.925 75.696 669.261 76.16 669.698 76.576C670.146 76.9813 670.674 77.3067 671.282 77.552L670.578 78.576C669.885 78.2987 669.293 77.904 668.802 77.392C668.311 76.88 667.938 76.2987 667.682 75.648C667.426 74.9973 667.298 74.32 667.298 73.616L667.298 71.68ZM674.978 70.784L676.242 70.784L676.242 79.712L674.978 79.712L674.978 70.784ZM672.674 74.656L675.394 74.656L675.394 75.744L672.674 75.744L672.674 74.656ZM671.874 71.056L673.122 71.056L673.122 79.248L671.874 79.248L671.874 71.056ZM671.49 80.032C672.482 80.032 673.335 80.1333 674.05 80.336C674.775 80.5387 675.335 80.8373 675.73 81.232C676.125 81.616 676.322 82.08 676.322 82.624C676.322 83.168 676.125 83.632 675.73 84.016C675.335 84.4107 674.775 84.7093 674.05 84.912C673.335 85.1147 672.482 85.216 671.49 85.216C670.498 85.216 669.639 85.1147 668.914 84.912C668.189 84.7093 667.629 84.4107 667.234 84.016C666.85 83.632 666.658 83.168 666.658 82.624C666.658 82.08 666.85 81.616 667.234 81.232C667.629 80.8373 668.189 80.5387 668.914 80.336C669.639 80.1333 670.498 80.032 671.49 80.032ZM671.49 81.056C670.402 81.056 669.543 81.1947 668.914 81.472C668.285 81.7493 667.97 82.1333 667.97 82.624C667.97 83.1147 668.285 83.4987 668.914 83.776C669.543 84.0533 670.402 84.192 671.49 84.192C672.215 84.192 672.839 84.128 673.362 84C673.885 83.8827 674.285 83.7067 674.562 83.472C674.85 83.2373 674.994 82.9547 674.994 82.624C674.994 82.1333 674.679 81.7493 674.05 81.472C673.431 81.1947 672.578 81.056 671.49 81.056ZM679.345 80.56L680.273 80.56C681.041 80.56 681.718 80.5547 682.305 80.544C682.891 80.5227 683.441 80.4853 683.953 80.432C684.475 80.368 685.009 80.288 685.553 80.192L685.681 81.296C685.126 81.392 684.582 81.472 684.049 81.536C683.515 81.5893 682.945 81.6267 682.337 81.648C681.739 81.6693 681.051 81.68 680.273 81.68L679.345 81.68L679.345 80.56ZM679.345 72.432L685.041 72.432L685.041 73.52L680.609 73.52L680.609 80.976L679.345 80.976L679.345 72.432ZM680.225 76.256L684.817 76.256L684.817 77.312L680.225 77.312L680.225 76.256ZM689.793 70.768L691.073 70.768L691.073 85.248L689.793 85.248L689.793 70.768ZM687.489 76.576L690.273 76.576L690.273 77.664L687.489 77.664L687.489 76.576ZM686.609 71.072L687.873 71.072L687.873 84.512L686.609 84.512L686.609 71.072ZM699.104 74.784L702.303 74.784L702.303 75.872L699.104 75.872L699.104 74.784ZM698.992 78.416L702.272 78.416L702.272 79.504L698.992 79.504L698.992 78.416ZM704.512 70.768L705.792 70.768L705.792 85.248L704.511 85.248L704.512 70.768ZM701.6 71.152L702.864 71.152L702.864 84.512L701.6 84.512L701.6 71.152ZM698.383 72.608L699.664 72.608C699.664 73.8667 699.482 75.0773 699.119 76.24C698.757 77.392 698.176 78.4693 697.375 79.472C696.586 80.464 695.546 81.3493 694.255 82.128L693.471 81.168C694.602 80.4853 695.53 79.7173 696.255 78.864C696.981 78 697.514 77.0667 697.856 76.064C698.207 75.0507 698.383 73.9787 698.383 72.848L698.383 72.608ZM694.111 72.608L698.896 72.608L698.896 73.696L694.111 73.696L694.111 72.608Z" fill="#12976B"/>
<path d="M605.578 538.608C604.618 538.608 603.73 538.452 602.914 538.14C602.11 537.816 601.408 537.366 600.808 536.79C600.22 536.214 599.758 535.536 599.422 534.756C599.098 533.976 598.936 533.124 598.936 532.2C598.936 531.276 599.098 530.424 599.422 529.644C599.758 528.864 600.226 528.186 600.826 527.61C601.426 527.034 602.128 526.59 602.932 526.278C603.748 525.954 604.636 525.792 605.596 525.792C606.556 525.792 607.432 525.942 608.224 526.242C609.028 526.542 609.712 526.998 610.276 527.61L609.448 528.456C608.92 527.928 608.338 527.55 607.702 527.322C607.066 527.094 606.382 526.98 605.65 526.98C604.87 526.98 604.15 527.112 603.49 527.376C602.842 527.628 602.272 527.994 601.78 528.474C601.3 528.942 600.922 529.494 600.646 530.13C600.382 530.754 600.25 531.444 600.25 532.2C600.25 532.944 600.382 533.634 600.646 534.27C600.922 534.906 601.3 535.464 601.78 535.944C602.272 536.412 602.842 536.778 603.49 537.042C604.15 537.294 604.864 537.42 605.632 537.42C606.352 537.42 607.03 537.312 607.666 537.096C608.314 536.88 608.908 536.514 609.448 535.998L610.204 537.006C609.604 537.534 608.902 537.936 608.098 538.212C607.294 538.476 606.454 538.608 605.578 538.608ZM608.926 536.844L608.926 532.2L610.204 532.2L610.204 537.006L608.926 536.844ZM617.556 538.59C616.644 538.59 615.822 538.386 615.09 537.978C614.37 537.558 613.8 536.988 613.38 536.268C612.96 535.536 612.75 534.702 612.75 533.766C612.75 532.818 612.96 531.984 613.38 531.264C613.8 530.544 614.37 529.98 615.09 529.572C615.81 529.164 616.632 528.96 617.556 528.96C618.492 528.96 619.32 529.164 620.04 529.572C620.772 529.98 621.342 530.544 621.75 531.264C622.17 531.984 622.38 532.818 622.38 533.766C622.38 534.702 622.17 535.536 621.75 536.268C621.342 536.988 620.772 537.558 620.04 537.978C619.308 538.386 618.48 538.59 617.556 538.59ZM617.556 537.456C618.24 537.456 618.846 537.306 619.374 537.006C619.902 536.694 620.316 536.262 620.616 535.71C620.928 535.146 621.084 534.498 621.084 533.766C621.084 533.022 620.928 532.374 620.616 531.822C620.316 531.27 619.902 530.844 619.374 530.544C618.846 530.232 618.246 530.076 617.574 530.076C616.902 530.076 616.302 530.232 615.774 530.544C615.246 530.844 614.826 531.27 614.514 531.822C614.202 532.374 614.046 533.022 614.046 533.766C614.046 534.498 614.202 535.146 614.514 535.71C614.826 536.262 615.246 536.694 615.774 537.006C616.302 537.306 616.896 537.456 617.556 537.456ZM628.841 538.59C627.929 538.59 627.107 538.386 626.375 537.978C625.655 537.558 625.085 536.988 624.665 536.268C624.245 535.536 624.035 534.702 624.035 533.766C624.035 532.818 624.245 531.984 624.665 531.264C625.085 530.544 625.655 529.98 626.375 529.572C627.095 529.164 627.917 528.96 628.841 528.96C629.777 528.96 630.605 529.164 631.325 529.572C632.057 529.98 632.627 530.544 633.035 531.264C633.455 531.984 633.665 532.818 633.665 533.766C633.665 534.702 633.455 535.536 633.035 536.268C632.627 536.988 632.057 537.558 631.325 537.978C630.593 538.386 629.765 538.59 628.841 538.59ZM628.841 537.456C629.525 537.456 630.131 537.306 630.659 537.006C631.187 536.694 631.601 536.262 631.901 535.71C632.213 535.146 632.369 534.498 632.369 533.766C632.369 533.022 632.213 532.374 631.901 531.822C631.601 531.27 631.187 530.844 630.659 530.544C630.131 530.232 629.531 530.076 628.859 530.076C628.187 530.076 627.587 530.232 627.059 530.544C626.531 530.844 626.111 531.27 625.799 531.822C625.487 532.374 625.331 533.022 625.331 533.766C625.331 534.498 625.487 535.146 625.799 535.71C626.111 536.262 626.531 536.694 627.059 537.006C627.587 537.306 628.181 537.456 628.841 537.456ZM640.306 542.082C639.442 542.082 638.614 541.956 637.822 541.704C637.03 541.452 636.388 541.092 635.896 540.624L636.544 539.652C636.988 540.048 637.534 540.36 638.182 540.588C638.842 540.828 639.538 540.948 640.27 540.948C641.47 540.948 642.352 540.666 642.916 540.102C643.48 539.55 643.762 538.686 643.762 537.51L643.762 535.152L643.942 533.532L643.816 531.912L643.816 529.05L645.04 529.05L645.04 537.348C645.04 538.98 644.638 540.174 643.834 540.93C643.042 541.698 641.866 542.082 640.306 542.082ZM640.072 538.14C639.172 538.14 638.362 537.948 637.642 537.564C636.922 537.168 636.352 536.622 635.932 535.926C635.524 535.23 635.32 534.432 635.32 533.532C635.32 532.632 635.524 531.84 635.932 531.156C636.352 530.46 636.922 529.92 637.642 529.536C638.362 529.152 639.172 528.96 640.072 528.96C640.912 528.96 641.668 529.134 642.34 529.482C643.012 529.83 643.546 530.346 643.942 531.03C644.338 531.714 644.536 532.548 644.536 533.532C644.536 534.516 644.338 535.35 643.942 536.034C643.546 536.718 643.012 537.24 642.34 537.6C641.668 537.96 640.912 538.14 640.072 538.14ZM640.198 537.006C640.894 537.006 641.512 536.862 642.052 536.574C642.592 536.274 643.018 535.866 643.33 535.35C643.642 534.822 643.798 534.216 643.798 533.532C643.798 532.848 643.642 532.248 643.33 531.732C643.018 531.216 642.592 530.814 642.052 530.526C641.512 530.226 640.894 530.076 640.198 530.076C639.514 530.076 638.896 530.226 638.344 530.526C637.804 530.814 637.378 531.216 637.066 531.732C636.766 532.248 636.616 532.848 636.616 533.532C636.616 534.216 636.766 534.822 637.066 535.35C637.378 535.866 637.804 536.274 638.344 536.574C638.896 536.862 639.514 537.006 640.198 537.006ZM648.596 538.5L648.596 525.144L649.874 525.144L649.874 538.5L648.596 538.5ZM657.444 538.59C656.46 538.59 655.596 538.386 654.852 537.978C654.108 537.558 653.526 536.988 653.106 536.268C652.686 535.536 652.476 534.702 652.476 533.766C652.476 532.83 652.674 532.002 653.07 531.282C653.478 530.562 654.03 529.998 654.726 529.59C655.434 529.17 656.226 528.96 657.102 528.96C657.99 528.96 658.776 529.164 659.46 529.572C660.156 529.968 660.702 530.532 661.098 531.264C661.494 531.984 661.692 532.818 661.692 533.766C661.692 533.826 661.686 533.892 661.674 533.964C661.674 534.024 661.674 534.09 661.674 534.162L653.448 534.162L653.448 533.208L660.99 533.208L660.486 533.586C660.486 532.902 660.336 532.296 660.036 531.768C659.748 531.228 659.352 530.808 658.848 530.508C658.344 530.208 657.762 530.058 657.102 530.058C656.454 530.058 655.872 530.208 655.356 530.508C654.84 530.808 654.438 531.228 654.15 531.768C653.862 532.308 653.718 532.926 653.718 533.622L653.718 533.82C653.718 534.54 653.874 535.176 654.186 535.728C654.51 536.268 654.954 536.694 655.518 537.006C656.094 537.306 656.748 537.456 657.48 537.456C658.056 537.456 658.59 537.354 659.082 537.15C659.586 536.946 660.018 536.634 660.378 536.214L661.098 537.042C660.678 537.546 660.15 537.93 659.514 538.194C658.89 538.458 658.2 538.59 657.444 538.59Z" fill="black"/>
<path d="M600.052 467.5L600.052 454.9L601.15 454.9L606.91 464.728L606.334 464.728L612.04 454.9L613.138 454.9L613.138 467.5L611.86 467.5L611.86 456.898L612.166 456.898L606.91 465.898L606.28 465.898L600.988 456.898L601.33 456.898L601.33 467.5L600.052 467.5ZM620.987 467.59C620.003 467.59 619.139 467.386 618.395 466.978C617.651 466.558 617.069 465.988 616.649 465.268C616.229 464.536 616.019 463.702 616.019 462.766C616.019 461.83 616.217 461.002 616.613 460.282C617.021 459.562 617.573 458.998 618.269 458.59C618.977 458.17 619.769 457.96 620.645 457.96C621.533 457.96 622.319 458.164 623.003 458.572C623.699 458.968 624.245 459.532 624.641 460.264C625.037 460.984 625.235 461.818 625.235 462.766C625.235 462.826 625.229 462.892 625.217 462.964C625.217 463.024 625.217 463.09 625.217 463.162L616.991 463.162L616.991 462.208L624.533 462.208L624.029 462.586C624.029 461.902 623.879 461.296 623.579 460.768C623.291 460.228 622.895 459.808 622.391 459.508C621.887 459.208 621.305 459.058 620.645 459.058C619.997 459.058 619.415 459.208 618.899 459.508C618.383 459.808 617.981 460.228 617.693 460.768C617.405 461.308 617.261 461.926 617.261 462.622L617.261 462.82C617.261 463.54 617.417 464.176 617.729 464.728C618.053 465.268 618.497 465.694 619.061 466.006C619.637 466.306 620.291 466.456 621.023 466.456C621.599 466.456 622.133 466.354 622.625 466.15C623.129 465.946 623.561 465.634 623.921 465.214L624.641 466.042C624.221 466.546 623.693 466.93 623.057 467.194C622.433 467.458 621.743 467.59 620.987 467.59ZM630.825 467.59C629.937 467.59 629.253 467.35 628.773 466.87C628.293 466.39 628.053 465.712 628.053 464.836L628.053 455.962L629.331 455.962L629.331 464.764C629.331 465.316 629.469 465.742 629.745 466.042C630.033 466.342 630.441 466.492 630.969 466.492C631.533 466.492 632.001 466.33 632.373 466.006L632.823 466.924C632.571 467.152 632.265 467.32 631.905 467.428C631.557 467.536 631.197 467.59 630.825 467.59ZM626.361 459.112L626.361 458.05L632.211 458.05L632.211 459.112L626.361 459.112ZM641.071 467.5L641.071 465.412L641.017 465.07L641.017 461.578C641.017 460.774 640.789 460.156 640.333 459.724C639.889 459.292 639.223 459.076 638.335 459.076C637.723 459.076 637.141 459.178 636.589 459.382C636.037 459.586 635.569 459.856 635.185 460.192L634.609 459.238C635.089 458.83 635.665 458.518 636.337 458.302C637.009 458.074 637.717 457.96 638.461 457.96C639.685 457.96 640.627 458.266 641.287 458.878C641.959 459.478 642.295 460.396 642.295 461.632L642.295 467.5L641.071 467.5ZM637.813 467.59C637.105 467.59 636.487 467.476 635.959 467.248C635.443 467.008 635.047 466.684 634.771 466.276C634.495 465.856 634.357 465.376 634.357 464.836C634.357 464.344 634.471 463.9 634.699 463.504C634.939 463.096 635.323 462.772 635.851 462.532C636.391 462.28 637.111 462.154 638.011 462.154L641.269 462.154L641.269 463.108L638.047 463.108C637.135 463.108 636.499 463.27 636.139 463.594C635.791 463.918 635.617 464.32 635.617 464.8C635.617 465.34 635.827 465.772 636.247 466.096C636.667 466.42 637.255 466.582 638.011 466.582C638.731 466.582 639.349 466.42 639.865 466.096C640.393 465.76 640.777 465.28 641.017 464.656L641.305 465.538C641.065 466.162 640.645 466.66 640.045 467.032C639.457 467.404 638.713 467.59 637.813 467.59Z" fill="black"/>
<path d="M610.762 631.114L612.256 631.114L612.256 647.404L610.762 647.404L610.762 631.114ZM605.992 632.878L607.468 632.878C607.468 634.054 607.324 635.188 607.036 636.28C606.76 637.372 606.322 638.41 605.722 639.394C605.122 640.366 604.342 641.272 603.382 642.112C602.422 642.952 601.258 643.702 599.89 644.362L599.098 643.156C600.67 642.4 601.966 641.518 602.986 640.51C604.006 639.502 604.762 638.38 605.254 637.144C605.746 635.896 605.992 634.552 605.992 633.112L605.992 632.878ZM599.854 632.878L606.622 632.878L606.622 634.084L599.854 634.084L599.854 632.878ZM616.161 642.238L617.439 642.238C618.435 642.238 619.347 642.226 620.175 642.202C621.003 642.178 621.801 642.13 622.569 642.058C623.349 641.986 624.147 641.878 624.963 641.734L625.107 642.958C624.279 643.102 623.469 643.216 622.677 643.3C621.885 643.372 621.063 643.42 620.211 643.444C619.371 643.468 618.447 643.48 617.439 643.48L616.161 643.48L616.161 642.238ZM616.161 632.59L623.739 632.59L623.739 633.832L617.655 633.832L617.655 642.67L616.161 642.67L616.161 632.59ZM617.277 637.162L623.379 637.162L623.379 638.368L617.277 638.368L617.277 637.162ZM626.475 631.114L627.969 631.114L627.969 647.404L626.475 647.404L626.475 631.114ZM627.627 637.648L630.633 637.648L630.633 638.908L627.627 638.908L627.627 637.648ZM641.102 637.846L642.578 637.846L642.578 640.762L641.102 640.762L641.102 637.846ZM648.554 631.132L650.048 631.132L650.048 640.708L648.554 640.708L648.554 631.132ZM636.854 638.35L636.674 637.252C637.718 637.252 638.834 637.246 640.022 637.234C641.222 637.21 642.44 637.174 643.676 637.126C644.912 637.066 646.112 636.97 647.276 636.838L647.366 637.81C646.178 637.978 644.966 638.104 643.73 638.188C642.506 638.26 641.306 638.308 640.13 638.332C638.966 638.344 637.874 638.35 636.854 638.35ZM639.14 641.302L650.048 641.302L650.048 644.686L640.652 644.686L640.652 646.522L639.194 646.522L639.194 643.678L648.572 643.678L648.572 642.364L639.14 642.364L639.14 641.302ZM639.194 646.126L650.588 646.126L650.588 647.224L639.194 647.224L639.194 646.126ZM645.314 638.872L649.04 638.872L649.04 639.844L645.314 639.844L645.314 638.872ZM641.93 631.438C642.734 631.438 643.436 631.534 644.036 631.726C644.636 631.918 645.104 632.2 645.44 632.572C645.776 632.944 645.944 633.382 645.944 633.886C645.944 634.378 645.776 634.81 645.44 635.182C645.104 635.542 644.636 635.824 644.036 636.028C643.436 636.22 642.734 636.316 641.93 636.316C641.126 636.316 640.418 636.22 639.806 636.028C639.206 635.824 638.738 635.542 638.402 635.182C638.078 634.81 637.916 634.378 637.916 633.886C637.916 633.382 638.078 632.944 638.402 632.572C638.738 632.2 639.206 631.918 639.806 631.726C640.418 631.534 641.126 631.438 641.93 631.438ZM641.93 632.464C641.138 632.464 640.502 632.59 640.022 632.842C639.554 633.094 639.32 633.442 639.32 633.886C639.32 634.306 639.554 634.648 640.022 634.912C640.502 635.164 641.138 635.29 641.93 635.29C642.722 635.29 643.352 635.164 643.82 634.912C644.3 634.648 644.54 634.306 644.54 633.886C644.54 633.442 644.3 633.094 643.82 632.842C643.352 632.59 642.722 632.464 641.93 632.464ZM655.159 638.926L666.337 638.926L666.337 640.15L655.159 640.15L655.159 638.926ZM653.287 643.948L668.047 643.948L668.047 645.19L653.287 645.19L653.287 643.948ZM655.159 632.626L666.175 632.626L666.175 633.85L656.635 633.85L656.635 639.466L655.159 639.466L655.159 632.626ZM680.861 631.114L682.355 631.114L682.355 647.386L680.861 647.386L680.861 631.114ZM681.959 637.72L684.947 637.72L684.947 638.962L681.959 638.962L681.959 637.72ZM676.703 632.86L678.161 632.86C678.161 634.408 677.909 635.89 677.405 637.306C676.901 638.71 676.109 640.012 675.029 641.212C673.949 642.4 672.527 643.432 670.763 644.308L669.935 643.156C671.447 642.4 672.701 641.518 673.697 640.51C674.705 639.49 675.455 638.362 675.947 637.126C676.451 635.878 676.703 634.534 676.703 633.094L676.703 632.86ZM670.691 632.86L677.459 632.86L677.459 634.102L670.691 634.102L670.691 632.86ZM686.404 639.34L701.128 639.34L701.128 640.546L686.404 640.546L686.404 639.34ZM688.258 636.334L699.436 636.334L699.436 637.558L688.258 637.558L688.258 636.334ZM688.258 631.816L699.292 631.816L699.292 633.022L689.752 633.022L689.752 636.73L688.258 636.73L688.258 631.816ZM688.294 645.802L699.562 645.802L699.562 647.026L688.294 647.026L688.294 645.802ZM688.294 642.274L689.77 642.274L689.77 646.126L688.294 646.126L688.294 642.274Z" fill="black"/>
<path d="M542.192 419L542.192 404.456L541.76 404.456L539.504 409.784L536.288 409.784L539.72 402.2L545.264 402.2L545.264 419L542.192 419ZM547.86 419L547.86 416.984C547.86 415.816 548.052 414.848 548.436 414.08C548.82 413.296 549.372 412.656 550.092 412.16C550.828 411.648 551.724 411.232 552.78 410.912L554.388 410.408C554.98 410.216 555.476 409.984 555.876 409.712C556.276 409.424 556.58 409.08 556.788 408.68C557.012 408.28 557.124 407.824 557.124 407.312L557.124 407.216C557.124 406.416 556.852 405.784 556.308 405.32C555.764 404.84 555.02 404.6 554.076 404.6C553.148 404.6 552.396 404.856 551.82 405.368C551.26 405.864 550.98 406.584 550.98 407.528L550.98 407.96L547.908 407.96L547.908 407.576C547.908 406.36 548.18 405.328 548.724 404.48C549.268 403.632 550.004 402.984 550.932 402.536C551.876 402.088 552.924 401.864 554.076 401.864C555.228 401.864 556.268 402.088 557.196 402.536C558.124 402.968 558.852 403.584 559.38 404.384C559.924 405.168 560.196 406.096 560.196 407.168L560.196 407.408C560.196 408.48 559.972 409.392 559.524 410.144C559.092 410.88 558.5 411.488 557.748 411.968C556.996 412.432 556.14 412.816 555.18 413.12L553.644 413.6C552.956 413.808 552.42 414.04 552.036 414.296C551.652 414.536 551.38 414.808 551.22 415.112C551.076 415.4 551.004 415.752 551.004 416.168L551.004 416.264L560.052 416.264L560.052 419L547.86 419ZM564.654 419.312L562.83 417.848L575.742 401.888L577.566 403.352L564.654 419.312ZM574.782 419.24C573.566 419.24 572.614 418.92 571.926 418.28C571.238 417.624 570.894 416.736 570.894 415.616L570.894 415.448C570.894 414.312 571.238 413.424 571.926 412.784C572.614 412.128 573.566 411.8 574.782 411.8C575.966 411.8 576.91 412.128 577.614 412.784C578.318 413.424 578.67 414.312 578.67 415.448L578.67 415.616C578.67 416.736 578.326 417.624 577.638 418.28C576.95 418.92 575.998 419.24 574.782 419.24ZM574.782 417.272C575.246 417.272 575.606 417.128 575.862 416.84C576.134 416.552 576.27 416.176 576.27 415.712L576.27 415.328C576.27 414.864 576.134 414.488 575.862 414.2C575.606 413.912 575.246 413.768 574.782 413.768C574.318 413.768 573.95 413.912 573.678 414.2C573.422 414.488 573.294 414.864 573.294 415.328L573.294 415.712C573.294 416.176 573.422 416.552 573.678 416.84C573.95 417.128 574.318 417.272 574.782 417.272ZM565.614 409.4C564.398 409.4 563.446 409.08 562.758 408.44C562.07 407.784 561.726 406.896 561.726 405.776L561.726 405.608C561.726 404.472 562.07 403.584 562.758 402.944C563.446 402.288 564.398 401.96 565.614 401.96C566.798 401.96 567.742 402.288 568.446 402.944C569.15 403.584 569.502 404.472 569.502 405.608L569.502 405.776C569.502 406.896 569.158 407.784 568.47 408.44C567.782 409.08 566.83 409.4 565.614 409.4ZM565.614 407.432C566.078 407.432 566.438 407.288 566.694 407C566.966 406.712 567.102 406.336 567.102 405.872L567.102 405.488C567.102 405.024 566.966 404.648 566.694 404.36C566.438 404.072 566.078 403.928 565.614 403.928C565.15 403.928 564.782 404.072 564.51 404.36C564.254 404.648 564.126 405.024 564.126 405.488L564.126 405.872C564.126 406.336 564.254 406.712 564.51 407C564.782 407.288 565.15 407.432 565.614 407.432Z" fill="#12976B"/>
<path d="M544.88 648L544.88 644.592L536.624 644.592L536.624 641.04L542.432 631.2L547.952 631.2L547.952 641.856L550.736 641.856L550.736 644.592L547.952 644.592L547.952 648L544.88 648ZM539.552 641.856L544.88 641.856L544.88 633.168L544.448 633.168L539.552 641.472L539.552 641.856ZM558.554 648.336C557.29 648.336 556.17 648.112 555.194 647.664C554.218 647.216 553.45 646.576 552.89 645.744C552.346 644.896 552.074 643.896 552.074 642.744L552.074 642.312L555.146 642.312L555.146 642.648C555.146 643.544 555.458 644.264 556.082 644.808C556.706 645.336 557.53 645.6 558.554 645.6C559.594 645.6 560.394 645.352 560.954 644.856C561.53 644.36 561.818 643.736 561.818 642.984L561.818 642.744C561.818 642.232 561.69 641.816 561.434 641.496C561.178 641.176 560.834 640.944 560.402 640.8C559.97 640.64 559.482 640.56 558.938 640.56L555.578 640.56L555.578 637.2L561.002 634.32L561.002 633.936L552.506 633.936L552.506 631.2L564.41 631.2L564.41 635.28L559.346 637.968L559.346 638.352L560.234 638.352C560.986 638.352 561.714 638.504 562.418 638.808C563.138 639.112 563.73 639.584 564.194 640.224C564.658 640.848 564.89 641.664 564.89 642.672L564.89 642.96C564.89 644.048 564.626 645 564.098 645.816C563.57 646.616 562.826 647.24 561.866 647.688C560.922 648.12 559.818 648.336 558.554 648.336ZM569.411 648.312L567.587 646.848L580.499 630.888L582.323 632.352L569.411 648.312ZM579.539 648.24C578.323 648.24 577.371 647.92 576.683 647.28C575.995 646.624 575.651 645.736 575.651 644.616L575.651 644.448C575.651 643.312 575.995 642.424 576.683 641.784C577.371 641.128 578.323 640.8 579.539 640.8C580.723 640.8 581.667 641.128 582.371 641.784C583.075 642.424 583.427 643.312 583.427 644.448L583.427 644.616C583.427 645.736 583.083 646.624 582.395 647.28C581.707 647.92 580.755 648.24 579.539 648.24ZM579.539 646.272C580.003 646.272 580.363 646.128 580.619 645.84C580.891 645.552 581.027 645.176 581.027 644.712L581.027 644.328C581.027 643.864 580.891 643.488 580.619 643.2C580.363 642.912 580.003 642.768 579.539 642.768C579.075 642.768 578.707 642.912 578.435 643.2C578.179 643.488 578.051 643.864 578.051 644.328L578.051 644.712C578.051 645.176 578.179 645.552 578.435 645.84C578.707 646.128 579.075 646.272 579.539 646.272ZM570.371 638.4C569.155 638.4 568.203 638.08 567.515 637.44C566.827 636.784 566.483 635.896 566.483 634.776L566.483 634.608C566.483 633.472 566.827 632.584 567.515 631.944C568.203 631.288 569.155 630.96 570.371 630.96C571.555 630.96 572.499 631.288 573.203 631.944C573.907 632.584 574.259 633.472 574.259 634.608L574.259 634.776C574.259 635.896 573.915 636.784 573.227 637.44C572.539 638.08 571.587 638.4 570.371 638.4ZM570.371 636.432C570.835 636.432 571.195 636.288 571.451 636C571.723 635.712 571.859 635.336 571.859 634.872L571.859 634.488C571.859 634.024 571.723 633.648 571.451 633.36C571.195 633.072 570.835 632.928 570.371 632.928C569.907 632.928 569.539 633.072 569.267 633.36C569.011 633.648 568.883 634.024 568.883 634.488L568.883 634.872C568.883 635.336 569.011 635.712 569.267 636C569.539 636.288 569.907 636.432 570.371 636.432Z" fill="black"/>
<path d="M537.008 541L537.008 538.984C537.008 537.816 537.2 536.848 537.584 536.08C537.968 535.296 538.52 534.656 539.24 534.16C539.976 533.648 540.872 533.232 541.928 532.912L543.536 532.408C544.128 532.216 544.624 531.984 545.024 531.712C545.424 531.424 545.728 531.08 545.936 530.68C546.16 530.28 546.272 529.824 546.272 529.312L546.272 529.216C546.272 528.416 546 527.784 545.456 527.32C544.912 526.84 544.168 526.6 543.224 526.6C542.296 526.6 541.544 526.856 540.968 527.368C540.408 527.864 540.128 528.584 540.128 529.528L540.128 529.96L537.056 529.96L537.056 529.576C537.056 528.36 537.328 527.328 537.872 526.48C538.416 525.632 539.152 524.984 540.08 524.536C541.024 524.088 542.072 523.864 543.224 523.864C544.376 523.864 545.416 524.088 546.344 524.536C547.272 524.968 548 525.584 548.528 526.384C549.072 527.168 549.344 528.096 549.344 529.168L549.344 529.408C549.344 530.48 549.12 531.392 548.672 532.144C548.24 532.88 547.648 533.488 546.896 533.968C546.144 534.432 545.288 534.816 544.328 535.12L542.792 535.6C542.104 535.808 541.568 536.04 541.184 536.296C540.8 536.536 540.528 536.808 540.368 537.112C540.224 537.4 540.152 537.752 540.152 538.168L540.152 538.264L549.2 538.264L549.2 541L537.008 541ZM557.45 541.336C556.17 541.336 555.034 541.144 554.042 540.76C553.066 540.376 552.298 539.824 551.738 539.104C551.194 538.368 550.922 537.504 550.922 536.512L550.922 536.224C550.922 535.456 551.058 534.824 551.33 534.328C551.602 533.816 551.938 533.416 552.338 533.128C552.754 532.84 553.146 532.64 553.514 532.528L553.514 532.096C553.146 531.968 552.778 531.76 552.41 531.472C552.042 531.184 551.738 530.8 551.498 530.32C551.274 529.84 551.162 529.264 551.162 528.592L551.162 528.304C551.162 527.424 551.418 526.656 551.93 526C552.458 525.328 553.194 524.808 554.138 524.44C555.082 524.056 556.186 523.864 557.45 523.864C558.714 523.864 559.818 524.056 560.762 524.44C561.706 524.808 562.434 525.328 562.946 526C563.474 526.656 563.738 527.424 563.738 528.304L563.738 528.592C563.738 529.264 563.618 529.84 563.378 530.32C563.154 530.8 562.858 531.184 562.49 531.472C562.138 531.76 561.77 531.968 561.386 532.096L561.386 532.528C561.77 532.64 562.162 532.84 562.562 533.128C562.962 533.416 563.298 533.816 563.57 534.328C563.842 534.824 563.978 535.456 563.978 536.224L563.978 536.512C563.978 537.504 563.698 538.368 563.138 539.104C562.594 539.824 561.826 540.376 560.834 540.76C559.858 541.144 558.73 541.336 557.45 541.336ZM557.45 538.6C558.554 538.6 559.402 538.392 559.994 537.976C560.602 537.544 560.906 536.976 560.906 536.272L560.906 536.08C560.906 535.376 560.61 534.816 560.018 534.4C559.442 533.968 558.586 533.752 557.45 533.752C556.33 533.752 555.474 533.968 554.882 534.4C554.29 534.816 553.994 535.376 553.994 536.08L553.994 536.272C553.994 536.976 554.29 537.544 554.882 537.976C555.49 538.392 556.346 538.6 557.45 538.6ZM557.45 531.016C558.474 531.016 559.266 530.832 559.826 530.464C560.386 530.096 560.666 529.576 560.666 528.904L560.666 528.712C560.666 528.04 560.378 527.52 559.802 527.152C559.226 526.784 558.442 526.6 557.45 526.6C556.458 526.6 555.674 526.784 555.098 527.152C554.522 527.52 554.234 528.04 554.234 528.712L554.234 528.904C554.234 529.576 554.514 530.096 555.074 530.464C555.634 530.832 556.426 531.016 557.45 531.016ZM568.193 541.312L566.369 539.848L579.281 523.888L581.105 525.352L568.193 541.312ZM578.321 541.24C577.105 541.24 576.153 540.92 575.465 540.28C574.777 539.624 574.433 538.736 574.433 537.616L574.433 537.448C574.433 536.312 574.777 535.424 575.465 534.784C576.153 534.128 577.105 533.8 578.321 533.8C579.505 533.8 580.449 534.128 581.153 534.784C581.857 535.424 582.209 536.312 582.209 537.448L582.209 537.616C582.209 538.736 581.865 539.624 581.177 540.28C580.489 540.92 579.537 541.24 578.321 541.24ZM578.321 539.272C578.785 539.272 579.145 539.128 579.401 538.84C579.673 538.552 579.809 538.176 579.809 537.712L579.809 537.328C579.809 536.864 579.673 536.488 579.401 536.2C579.145 535.912 578.785 535.768 578.321 535.768C577.857 535.768 577.489 535.912 577.217 536.2C576.961 536.488 576.833 536.864 576.833 537.328L576.833 537.712C576.833 538.176 576.961 538.552 577.217 538.84C577.489 539.128 577.857 539.272 578.321 539.272ZM569.153 531.4C567.937 531.4 566.985 531.08 566.297 530.44C565.609 529.784 565.265 528.896 565.265 527.776L565.265 527.608C565.265 526.472 565.609 525.584 566.297 524.944C566.985 524.288 567.937 523.96 569.153 523.96C570.337 523.96 571.281 524.288 571.985 524.944C572.689 525.584 573.041 526.472 573.041 527.608L573.041 527.776C573.041 528.896 572.697 529.784 572.009 530.44C571.321 531.08 570.369 531.4 569.153 531.4ZM569.153 529.432C569.617 529.432 569.977 529.288 570.233 529C570.505 528.712 570.641 528.336 570.641 527.872L570.641 527.488C570.641 527.024 570.505 526.648 570.233 526.36C569.977 526.072 569.617 525.928 569.153 525.928C568.689 525.928 568.321 526.072 568.049 526.36C567.793 526.648 567.665 527.024 567.665 527.488L567.665 527.872C567.665 528.336 567.793 528.712 568.049 529C568.321 529.288 568.689 529.432 569.153 529.432Z" fill="black"/>
<path d="M542.192 470L542.192 455.456L541.76 455.456L539.504 460.784L536.288 460.784L539.72 453.2L545.264 453.2L545.264 470L542.192 470ZM554.052 470.336C552.772 470.336 551.636 470.144 550.644 469.76C549.668 469.376 548.9 468.824 548.34 468.104C547.796 467.368 547.524 466.504 547.524 465.512L547.524 465.224C547.524 464.456 547.66 463.824 547.932 463.328C548.204 462.816 548.54 462.416 548.94 462.128C549.356 461.84 549.748 461.64 550.116 461.528L550.116 461.096C549.748 460.968 549.38 460.76 549.012 460.472C548.644 460.184 548.34 459.8 548.1 459.32C547.876 458.84 547.764 458.264 547.764 457.592L547.764 457.304C547.764 456.424 548.02 455.656 548.532 455C549.06 454.328 549.796 453.808 550.74 453.44C551.684 453.056 552.788 452.864 554.052 452.864C555.316 452.864 556.42 453.056 557.364 453.44C558.308 453.808 559.036 454.328 559.548 455C560.076 455.656 560.34 456.424 560.34 457.304L560.34 457.592C560.34 458.264 560.22 458.84 559.98 459.32C559.756 459.8 559.46 460.184 559.092 460.472C558.74 460.76 558.372 460.968 557.988 461.096L557.988 461.528C558.372 461.64 558.764 461.84 559.164 462.128C559.564 462.416 559.9 462.816 560.172 463.328C560.444 463.824 560.58 464.456 560.58 465.224L560.58 465.512C560.58 466.504 560.3 467.368 559.74 468.104C559.196 468.824 558.428 469.376 557.436 469.76C556.46 470.144 555.332 470.336 554.052 470.336ZM554.052 467.6C555.156 467.6 556.004 467.392 556.596 466.976C557.204 466.544 557.508 465.976 557.508 465.272L557.508 465.08C557.508 464.376 557.212 463.816 556.62 463.4C556.044 462.968 555.188 462.752 554.052 462.752C552.932 462.752 552.076 462.968 551.484 463.4C550.892 463.816 550.596 464.376 550.596 465.08L550.596 465.272C550.596 465.976 550.892 466.544 551.484 466.976C552.092 467.392 552.948 467.6 554.052 467.6ZM554.052 460.016C555.076 460.016 555.868 459.832 556.428 459.464C556.988 459.096 557.268 458.576 557.268 457.904L557.268 457.712C557.268 457.04 556.98 456.52 556.404 456.152C555.828 455.784 555.044 455.6 554.052 455.6C553.06 455.6 552.276 455.784 551.7 456.152C551.124 456.52 550.836 457.04 550.836 457.712L550.836 457.904C550.836 458.576 551.116 459.096 551.676 459.464C552.236 459.832 553.028 460.016 554.052 460.016ZM564.794 470.312L562.97 468.848L575.882 452.888L577.706 454.352L564.794 470.312ZM574.922 470.24C573.706 470.24 572.754 469.92 572.066 469.28C571.378 468.624 571.034 467.736 571.034 466.616L571.034 466.448C571.034 465.312 571.378 464.424 572.066 463.784C572.754 463.128 573.706 462.8 574.922 462.8C576.106 462.8 577.05 463.128 577.754 463.784C578.458 464.424 578.81 465.312 578.81 466.448L578.81 466.616C578.81 467.736 578.466 468.624 577.778 469.28C577.09 469.92 576.138 470.24 574.922 470.24ZM574.922 468.272C575.386 468.272 575.746 468.128 576.002 467.84C576.274 467.552 576.41 467.176 576.41 466.712L576.41 466.328C576.41 465.864 576.274 465.488 576.002 465.2C575.746 464.912 575.386 464.768 574.922 464.768C574.458 464.768 574.09 464.912 573.818 465.2C573.562 465.488 573.434 465.864 573.434 466.328L573.434 466.712C573.434 467.176 573.562 467.552 573.818 467.84C574.09 468.128 574.458 468.272 574.922 468.272ZM565.754 460.4C564.538 460.4 563.586 460.08 562.898 459.44C562.21 458.784 561.866 457.896 561.866 456.776L561.866 456.608C561.866 455.472 562.21 454.584 562.898 453.944C563.586 453.288 564.538 452.96 565.754 452.96C566.938 452.96 567.882 453.288 568.586 453.944C569.29 454.584 569.642 455.472 569.642 456.608L569.642 456.776C569.642 457.896 569.298 458.784 568.61 459.44C567.922 460.08 566.97 460.4 565.754 460.4ZM565.754 458.432C566.218 458.432 566.578 458.288 566.834 458C567.106 457.712 567.242 457.336 567.242 456.872L567.242 456.488C567.242 456.024 567.106 455.648 566.834 455.36C566.578 455.072 566.218 454.928 565.754 454.928C565.29 454.928 564.922 455.072 564.65 455.36C564.394 455.648 564.266 456.024 564.266 456.488L564.266 456.872C564.266 457.336 564.394 457.712 564.65 458C564.922 458.288 565.29 458.432 565.754 458.432Z" fill="black"/>
<path d="M598.9 409.232L613.606 409.232L613.606 410.438L598.9 410.438L598.9 409.232ZM605.506 406.442L607 406.442L607 409.718L605.506 409.718L605.506 406.442ZM600.538 412.022L611.806 412.022L611.806 417.53L610.33 417.53L610.33 413.228L600.538 413.228L600.538 412.022ZM600.754 406.064L611.932 406.064L611.932 407.288L600.754 407.288L600.754 406.064ZM600.754 401.78L611.788 401.78L611.788 402.986L602.248 402.986L602.248 406.694L600.754 406.694L600.754 401.78ZM627.303 401.132L628.797 401.132L628.797 410.078L627.303 410.078L627.303 401.132ZM616.305 408.494L617.619 408.494C618.603 408.494 619.515 408.482 620.355 408.458C621.207 408.434 622.035 408.386 622.839 408.314C623.643 408.23 624.477 408.122 625.341 407.99L625.521 409.214C624.621 409.358 623.757 409.466 622.929 409.538C622.113 409.61 621.273 409.664 620.409 409.7C619.557 409.724 618.627 409.736 617.619 409.736L616.305 409.736L616.305 408.494ZM616.269 401.906L623.649 401.906L623.649 406.334L617.763 406.334L617.763 409.304L616.305 409.304L616.305 405.164L622.191 405.164L622.191 403.13L616.269 403.13L616.269 401.906ZM618.285 410.888L619.761 410.888L619.761 412.796L627.321 412.796L627.321 410.888L628.797 410.888L628.797 417.188L618.285 417.188L618.285 410.888ZM619.761 413.984L619.761 415.964L627.321 415.964L627.321 413.984L619.761 413.984ZM637.61 402.14L644.81 402.14L644.81 403.364L637.61 403.364L637.61 402.14ZM640.058 405.668L641.534 405.668L641.534 409.556L640.058 409.556L640.058 405.668ZM644.198 402.14L645.674 402.14L645.674 403.022C645.674 403.526 645.656 404.144 645.62 404.876C645.584 405.608 645.458 406.454 645.242 407.414L643.784 407.288C643.988 406.34 644.108 405.518 644.144 404.822C644.18 404.126 644.198 403.526 644.198 403.022L644.198 402.14ZM647.888 401.114L649.4 401.114L649.4 411.266L647.888 411.266L647.888 401.114ZM648.698 405.542L651.722 405.542L651.722 406.802L648.698 406.802L648.698 405.542ZM636.782 410.168L636.62 408.926C637.604 408.926 638.672 408.914 639.824 408.89C640.988 408.866 642.17 408.824 643.37 408.764C644.57 408.692 645.716 408.584 646.808 408.44L646.898 409.52C645.782 409.7 644.63 409.838 643.442 409.934C642.254 410.03 641.09 410.096 639.95 410.132C638.81 410.156 637.754 410.168 636.782 410.168ZM644.144 411.482C645.26 411.482 646.22 411.596 647.024 411.824C647.84 412.052 648.464 412.388 648.896 412.832C649.328 413.264 649.544 413.786 649.544 414.398C649.544 415.022 649.328 415.556 648.896 416C648.464 416.432 647.84 416.762 647.024 416.99C646.22 417.23 645.26 417.35 644.144 417.35C643.028 417.35 642.068 417.23 641.264 416.99C640.46 416.762 639.836 416.432 639.392 416C638.96 415.556 638.744 415.022 638.744 414.398C638.744 413.786 638.96 413.264 639.392 412.832C639.836 412.388 640.46 412.052 641.264 411.824C642.068 411.596 643.028 411.482 644.144 411.482ZM644.144 412.652C642.932 412.652 641.978 412.808 641.282 413.12C640.586 413.42 640.238 413.846 640.238 414.398C640.238 414.962 640.586 415.4 641.282 415.712C641.978 416.012 642.932 416.162 644.144 416.162C645.356 416.162 646.304 416.012 646.988 415.712C647.684 415.4 648.032 414.962 648.032 414.398C648.032 413.846 647.684 413.42 646.988 413.12C646.304 412.808 645.356 412.652 644.144 412.652ZM654.853 402.752L665.329 402.752L665.329 403.976L654.853 403.976L654.853 402.752ZM653.287 413.876L667.993 413.876L667.993 415.118L653.287 415.118L653.287 413.876ZM659.011 408.062L660.487 408.062L660.487 414.506L659.011 414.506L659.011 408.062ZM664.753 402.752L666.247 402.752L666.247 404.354C666.247 405.026 666.235 405.734 666.211 406.478C666.199 407.222 666.151 408.038 666.067 408.926C665.995 409.814 665.857 410.804 665.653 411.896L664.141 411.716C664.453 410.156 664.633 408.788 664.681 407.612C664.729 406.424 664.753 405.338 664.753 404.354L664.753 402.752ZM677.958 402.14L679.146 402.14L679.146 404.318C679.146 405.122 678.996 405.92 678.696 406.712C678.396 407.504 677.964 408.218 677.4 408.854C676.848 409.49 676.17 409.988 675.366 410.348L674.556 409.196C675.264 408.884 675.87 408.464 676.374 407.936C676.89 407.396 677.28 406.808 677.544 406.172C677.82 405.536 677.958 404.918 677.958 404.318L677.958 402.14ZM678.21 402.14L679.398 402.14L679.398 404.318C679.398 404.906 679.524 405.494 679.776 406.082C680.04 406.658 680.418 407.18 680.91 407.648C681.414 408.104 682.008 408.47 682.692 408.746L681.9 409.898C681.12 409.586 680.454 409.142 679.902 408.566C679.35 407.99 678.93 407.336 678.642 406.604C678.354 405.872 678.21 405.11 678.21 404.318L678.21 402.14ZM686.85 401.132L688.272 401.132L688.272 411.176L686.85 411.176L686.85 401.132ZM684.258 405.488L687.318 405.488L687.318 406.712L684.258 406.712L684.258 405.488ZM683.358 401.438L684.762 401.438L684.762 410.654L683.358 410.654L683.358 401.438ZM682.926 411.536C684.042 411.536 685.002 411.65 685.806 411.878C686.622 412.106 687.252 412.442 687.696 412.886C688.14 413.318 688.362 413.84 688.362 414.452C688.362 415.064 688.14 415.586 687.696 416.018C687.252 416.462 686.622 416.798 685.806 417.026C685.002 417.254 684.042 417.368 682.926 417.368C681.81 417.368 680.844 417.254 680.028 417.026C679.212 416.798 678.582 416.462 678.138 416.018C677.706 415.586 677.49 415.064 677.49 414.452C677.49 413.84 677.706 413.318 678.138 412.886C678.582 412.442 679.212 412.106 680.028 411.878C680.844 411.65 681.81 411.536 682.926 411.536ZM682.926 412.688C681.702 412.688 680.736 412.844 680.028 413.156C679.32 413.468 678.966 413.9 678.966 414.452C678.966 415.004 679.32 415.436 680.028 415.748C680.736 416.06 681.702 416.216 682.926 416.216C683.742 416.216 684.444 416.144 685.032 416C685.62 415.868 686.07 415.67 686.382 415.406C686.706 415.142 686.868 414.824 686.868 414.452C686.868 413.9 686.514 413.468 685.806 413.156C685.11 412.844 684.15 412.688 682.926 412.688ZM691.763 412.13L692.807 412.13C693.671 412.13 694.433 412.124 695.093 412.112C695.753 412.088 696.371 412.046 696.947 411.986C697.535 411.914 698.135 411.824 698.747 411.716L698.891 412.958C698.267 413.066 697.655 413.156 697.055 413.228C696.455 413.288 695.813 413.33 695.129 413.354C694.457 413.378 693.683 413.39 692.807 413.39L691.763 413.39L691.763 412.13ZM691.763 402.986L698.171 402.986L698.171 404.21L693.185 404.21L693.185 412.598L691.763 412.598L691.763 402.986ZM692.753 407.288L697.919 407.288L697.919 408.476L692.753 408.476L692.753 407.288ZM703.517 401.114L704.957 401.114L704.957 417.404L703.517 417.404L703.517 401.114ZM700.925 407.648L704.057 407.648L704.057 408.872L700.925 408.872L700.925 407.648ZM699.935 401.456L701.357 401.456L701.357 416.576L699.935 416.576L699.935 401.456ZM713.991 405.632L717.591 405.632L717.591 406.856L713.991 406.856L713.991 405.632ZM713.865 409.718L717.555 409.718L717.555 410.942L713.865 410.942L713.865 409.718ZM720.075 401.114L721.515 401.114L721.515 417.404L720.075 417.404L720.075 401.114ZM716.799 401.546L718.221 401.546L718.221 416.576L716.799 416.576L716.799 401.546ZM713.181 403.184L714.621 403.184C714.621 404.6 714.417 405.962 714.009 407.27C713.601 408.566 712.947 409.778 712.047 410.906C711.159 412.022 709.989 413.018 708.537 413.894L707.655 412.814C708.927 412.046 709.971 411.182 710.787 410.222C711.603 409.25 712.203 408.2 712.587 407.072C712.983 405.932 713.181 404.726 713.181 403.454L713.181 403.184ZM708.375 403.184L713.757 403.184L713.757 404.408L708.375 404.408L708.375 403.184Z" fill="#12976B"/>
<path d="M9.69398 365.974L12.898 365.974L12.898 367.9L9.69398 367.9L9.69398 365.974ZM7.33598 362.176L9.80198 362.176C9.80198 363.748 9.56198 365.146 9.08198 366.37C8.60198 367.594 7.80998 368.662 6.70598 369.574C5.60198 370.474 4.11398 371.224 2.24198 371.824L1.30598 369.97C2.48198 369.598 3.45998 369.178 4.23998 368.71C5.01998 368.242 5.63198 367.726 6.07598 367.162C6.53198 366.586 6.85598 365.968 7.04798 365.308C7.23998 364.636 7.33598 363.916 7.33598 363.148L7.33598 362.176ZM2.18798 362.176L8.88398 362.176L8.88398 364.102L2.18798 364.102L2.18798 362.176ZM7.60598 365.434L7.60598 367.072L1.66598 367.504L1.34198 365.65L7.60598 365.434ZM12.61 360.916L15.022 360.916L15.022 373.228L12.61 373.228L12.61 360.916ZM4.11398 375.388L15.454 375.388L15.454 377.314L4.11398 377.314L4.11398 375.388ZM4.11398 372.04L6.52598 372.04L6.52598 376.648L4.11398 376.648L4.11398 372.04ZM21.0686 370.69L23.4626 370.69L23.4626 377.638L21.0686 377.638L21.0686 370.69ZM26.9366 370.69L29.3306 370.69L29.3306 377.638L26.9366 377.638L26.9366 370.69ZM17.6306 370.114L32.7146 370.114L32.7146 372.022L17.6306 372.022L17.6306 370.114ZM23.9126 361.402L26.0006 361.402L26.0006 362.194C26.0006 362.842 25.9046 363.466 25.7126 364.066C25.5206 364.654 25.2266 365.206 24.8306 365.722C24.4466 366.238 23.9786 366.706 23.4266 367.126C22.8746 367.546 22.2386 367.906 21.5186 368.206C20.7986 368.494 20.0006 368.704 19.1246 368.836L18.1886 366.91C18.9446 366.79 19.6286 366.616 20.2406 366.388C20.8526 366.16 21.3866 365.89 21.8426 365.578C22.3106 365.266 22.6946 364.924 22.9946 364.552C23.2946 364.18 23.5226 363.796 23.6786 363.4C23.8346 362.992 23.9126 362.59 23.9126 362.194L23.9126 361.402ZM24.3626 361.402L26.4506 361.402L26.4506 362.194C26.4506 362.59 26.5286 362.986 26.6846 363.382C26.8406 363.778 27.0686 364.168 27.3686 364.552C27.6686 364.924 28.0466 365.266 28.5026 365.578C28.9706 365.89 29.5106 366.16 30.1226 366.388C30.7346 366.616 31.4126 366.79 32.1566 366.91L31.2386 368.836C30.3626 368.704 29.5646 368.494 28.8446 368.206C28.1246 367.906 27.4886 367.546 26.9366 367.126C26.3846 366.706 25.9106 366.238 25.5146 365.722C25.1306 365.194 24.8426 364.636 24.6506 364.048C24.4586 363.46 24.3626 362.842 24.3626 362.194L24.3626 361.402ZM34.8012 362.374L42.7392 362.374L42.7392 373.534L34.8012 373.534L34.8012 362.374ZM40.3812 364.264L37.1592 364.264L37.1592 371.662L40.3812 371.662L40.3812 364.264ZM45.7812 360.898L48.1752 360.898L48.1752 377.62L45.7812 377.62L45.7812 360.898ZM42.3072 366.658L46.7532 366.658L46.7532 368.584L42.3072 368.584L42.3072 366.658ZM59.6974 361.834C60.4414 361.834 61.1014 361.996 61.6774 362.32C62.2534 362.644 62.7034 363.1 63.0274 363.688C63.3514 364.264 63.5134 364.93 63.5134 365.686C63.5134 366.454 63.3514 367.132 63.0274 367.72C62.7034 368.296 62.2534 368.752 61.6774 369.088C61.1014 369.412 60.4414 369.574 59.6974 369.574C58.9654 369.574 58.3114 369.412 57.7354 369.088C57.1594 368.752 56.7094 368.296 56.3854 367.72C56.0614 367.132 55.8994 366.454 55.8994 365.686C55.8994 364.918 56.0614 364.252 56.3854 363.688C56.7094 363.112 57.1594 362.662 57.7354 362.338C58.3114 362.002 58.9654 361.834 59.6974 361.834ZM59.6974 363.76C59.3734 363.76 59.0854 363.838 58.8334 363.994C58.5814 364.138 58.3894 364.354 58.2574 364.642C58.1254 364.93 58.0594 365.278 58.0594 365.686C58.0594 366.106 58.1254 366.46 58.2574 366.748C58.3894 367.024 58.5814 367.24 58.8334 367.396C59.0854 367.552 59.3734 367.63 59.6974 367.63C60.0214 367.63 60.3094 367.552 60.5614 367.396C60.8134 367.24 61.0054 367.024 61.1374 366.748C61.2814 366.46 61.3534 366.106 61.3534 365.686C61.3534 365.278 61.2814 364.93 61.1374 364.642C61.0054 364.354 60.8134 364.138 60.5614 363.994C60.3094 363.838 60.0214 363.76 59.6974 363.76ZM67.7614 360.934L70.0474 360.934L70.0474 369.988L67.7614 369.988L67.7614 360.934ZM65.8354 364.408L68.4634 364.408L68.4634 366.334L65.8354 366.334L65.8354 364.408ZM64.2514 361.24L66.4834 361.24L66.4834 369.88L64.2514 369.88L64.2514 361.24ZM58.7254 370.69L61.0834 370.69L61.0834 372.184L67.6894 372.184L67.6894 370.69L70.0474 370.69L70.0474 377.422L58.7254 377.422L58.7254 370.69ZM61.0834 374.038L61.0834 375.496L67.6894 375.496L67.6894 374.038L61.0834 374.038Z" fill="black"/>
<path d="M12.9113 2.916L15.1973 2.916L15.1973 19.584L12.9113 19.584L12.9113 2.916ZM6.32328 9.306L9.86928 9.306L9.86928 11.214L6.32328 11.214L6.32328 9.306ZM9.40128 3.276L11.6333 3.276L11.6333 18.846L9.40128 18.846L9.40128 3.276ZM5.78328 4.878L8.08728 4.878C8.08728 6.462 7.90128 7.938 7.52928 9.306C7.15728 10.674 6.52728 11.928 5.63928 13.068C4.76328 14.208 3.54528 15.228 1.98528 16.128L0.635281 14.454C1.89528 13.698 2.89728 12.876 3.64128 11.988C4.39728 11.088 4.94328 10.098 5.27928 9.018C5.61528 7.926 5.78328 6.708 5.78328 5.364L5.78328 4.878ZM1.55328 4.878L6.52128 4.878L6.52128 6.804L1.55328 6.804L1.55328 4.878ZM28.8579 2.934L31.2519 2.934L31.2519 12.366L28.8579 12.366L28.8579 2.934ZM20.1639 13.104L31.2519 13.104L31.2519 19.422L20.1639 19.422L20.1639 13.104ZM28.9119 14.994L22.5219 14.994L22.5219 17.532L28.9119 17.532L28.9119 14.994ZM22.1799 3.69C23.0439 3.69 23.8179 3.864 24.5019 4.212C25.1859 4.548 25.7259 5.016 26.1219 5.616C26.5179 6.216 26.7159 6.906 26.7159 7.686C26.7159 8.466 26.5179 9.162 26.1219 9.774C25.7259 10.374 25.1859 10.848 24.5019 11.196C23.8179 11.532 23.0439 11.7 22.1799 11.7C21.3159 11.7 20.5419 11.532 19.8579 11.196C19.1739 10.848 18.6339 10.374 18.2379 9.774C17.8419 9.162 17.6439 8.466 17.6439 7.686C17.6439 6.906 17.8419 6.216 18.2379 5.616C18.6339 5.016 19.1739 4.548 19.8579 4.212C20.5419 3.864 21.3159 3.69 22.1799 3.69ZM22.1799 5.67C21.7719 5.67 21.3999 5.754 21.0639 5.922C20.7279 6.078 20.4639 6.306 20.2719 6.606C20.0799 6.894 19.9839 7.254 19.9839 7.686C19.9839 8.106 20.0799 8.472 20.2719 8.784C20.4639 9.084 20.7279 9.312 21.0639 9.468C21.3999 9.624 21.7719 9.702 22.1799 9.702C22.5999 9.702 22.9719 9.624 23.2959 9.468C23.6319 9.312 23.8959 9.084 24.0879 8.784C24.2799 8.472 24.3759 8.106 24.3759 7.686C24.3759 7.254 24.2799 6.894 24.0879 6.606C23.8959 6.306 23.6319 6.078 23.2959 5.922C22.9719 5.754 22.5999 5.67 22.1799 5.67ZM42.9181 3.834C43.6621 3.834 44.3221 3.996 44.8981 4.32C45.4741 4.644 45.9241 5.1 46.2481 5.688C46.5721 6.264 46.7341 6.93 46.7341 7.686C46.7341 8.454 46.5721 9.132 46.2481 9.72C45.9241 10.296 45.4741 10.752 44.8981 11.088C44.3221 11.412 43.6621 11.574 42.9181 11.574C42.1861 11.574 41.5321 11.412 40.9561 11.088C40.3801 10.752 39.9301 10.296 39.6061 9.72C39.2821 9.132 39.1201 8.454 39.1201 7.686C39.1201 6.918 39.2821 6.252 39.6061 5.688C39.9301 5.112 40.3801 4.662 40.9561 4.338C41.5321 4.002 42.1861 3.834 42.9181 3.834ZM42.9181 5.76C42.5941 5.76 42.3061 5.838 42.0541 5.994C41.8021 6.138 41.6101 6.354 41.4781 6.642C41.3461 6.93 41.2801 7.278 41.2801 7.686C41.2801 8.106 41.3461 8.46 41.4781 8.748C41.6101 9.024 41.8021 9.24 42.0541 9.396C42.3061 9.552 42.5941 9.63 42.9181 9.63C43.2421 9.63 43.5301 9.552 43.7821 9.396C44.0341 9.24 44.2261 9.024 44.3581 8.748C44.5021 8.46 44.5741 8.106 44.5741 7.686C44.5741 7.278 44.5021 6.93 44.3581 6.642C44.2261 6.354 44.0341 6.138 43.7821 5.994C43.5301 5.838 43.2421 5.76 42.9181 5.76ZM50.9821 2.934L53.2681 2.934L53.2681 11.988L50.9821 11.988L50.9821 2.934ZM49.0561 6.408L51.6841 6.408L51.6841 8.334L49.0561 8.334L49.0561 6.408ZM47.4721 3.24L49.7041 3.24L49.7041 11.88L47.4721 11.88L47.4721 3.24ZM41.9461 12.69L44.3041 12.69L44.3041 14.184L50.9101 14.184L50.9101 12.69L53.2681 12.69L53.2681 19.422L41.9461 19.422L41.9461 12.69ZM44.3041 16.038L44.3041 17.496L50.9101 17.496L50.9101 16.038L44.3041 16.038Z" fill="black"/>
<path d="M46.5371 573.008C42.6491 573.008 39.2171 572.312 36.2411 570.92C33.2651 569.528 30.9371 567.536 29.2571 564.944C27.5771 562.352 26.7371 559.232 26.7371 555.584L26.7371 553.568L36.0971 553.568L36.0971 555.584C36.0971 558.608 37.0331 560.888 38.9051 562.424C40.7771 563.912 43.3211 564.656 46.5371 564.656C49.8011 564.656 52.2251 564.008 53.8091 562.712C55.4411 561.416 56.2571 559.76 56.2571 557.744C56.2571 556.352 55.8731 555.224 55.1051 554.36C54.3371 553.496 53.2091 552.8 51.7211 552.272C50.2331 551.696 48.4091 551.168 46.2491 550.688L44.5931 550.328C41.1371 549.56 38.1611 548.6 35.6651 547.448C33.2171 546.248 31.3211 544.688 29.9771 542.768C28.6811 540.848 28.0331 538.352 28.0331 535.28C28.0331 532.208 28.7531 529.592 30.1931 527.432C31.6811 525.224 33.7451 523.544 36.3851 522.392C39.0731 521.192 42.2171 520.592 45.8171 520.592C49.4171 520.592 52.6091 521.216 55.3931 522.464C58.2251 523.664 60.4331 525.488 62.0171 527.936C63.6491 530.336 64.4651 533.36 64.4651 537.008L64.4651 539.168L55.1051 539.168L55.1051 537.008C55.1051 535.088 54.7211 533.552 53.9531 532.4C53.2331 531.2 52.1771 530.336 50.7851 529.808C49.3931 529.232 47.7371 528.944 45.8171 528.944C42.9371 528.944 40.8011 529.496 39.4091 530.6C38.0651 531.656 37.3931 533.12 37.3931 534.992C37.3931 536.24 37.7051 537.296 38.3291 538.16C39.0011 539.024 39.9851 539.744 41.2811 540.32C42.5771 540.896 44.2331 541.4 46.2491 541.832L47.9051 542.192C51.5051 542.96 54.6251 543.944 57.2651 545.144C59.9051 546.344 61.9451 547.928 63.3851 549.896C64.8731 551.864 65.6171 554.384 65.6171 557.456C65.6171 560.528 64.8251 563.24 63.2411 565.592C61.7051 567.896 59.4971 569.72 56.6171 571.064C53.7851 572.36 50.4251 573.008 46.5371 573.008ZM42.1451 580.352L42.1451 513.248L50.7851 513.248L50.7851 580.352L42.1451 580.352ZM94.5931 572L94.5931 561.776L69.8251 561.776L69.8251 551.12L87.2491 521.6L103.809 521.6L103.809 553.568L112.161 553.568L112.161 561.776L103.809 561.776L103.809 572L94.5931 572ZM78.6091 553.568L94.5931 553.568L94.5931 527.504L93.2971 527.504L78.6091 552.416L78.6091 553.568ZM135.543 573.008C131.607 573.008 128.199 572.312 125.319 570.92C122.487 569.528 120.303 567.56 118.767 565.016C117.231 562.472 116.463 559.52 116.463 556.16L116.463 555.44L125.823 555.44L125.823 556.088C125.823 558.488 126.615 560.552 128.199 562.28C129.831 563.96 132.231 564.8 135.399 564.8C138.567 564.8 140.991 563.96 142.671 562.28C144.399 560.552 145.263 558.32 145.263 555.584L145.263 554.864C145.263 552.176 144.399 550.04 142.671 548.456C140.991 546.872 138.879 546.08 136.335 546.08C134.943 546.08 133.791 546.272 132.879 546.656C131.967 547.04 131.223 547.52 130.647 548.096C130.071 548.672 129.591 549.248 129.207 549.824L118.047 549.824L118.047 521.6L152.463 521.6L152.463 529.952L127.263 529.952L127.263 542.264L128.559 542.264C129.039 541.64 129.687 541.04 130.503 540.464C131.319 539.888 132.375 539.408 133.671 539.024C134.967 538.64 136.503 538.448 138.279 538.448C141.255 538.448 143.967 539.072 146.415 540.32C148.863 541.568 150.807 543.416 152.247 545.864C153.735 548.264 154.479 551.24 154.479 554.792L154.479 555.656C154.479 559.208 153.711 562.28 152.175 564.872C150.687 567.464 148.527 569.48 145.695 570.92C142.863 572.312 139.479 573.008 135.543 573.008ZM160.21 572L160.21 563.648L166.834 563.648L166.834 529.952L160.21 529.952L160.21 521.6L186.13 521.6C189.202 521.6 191.866 522.128 194.122 523.184C196.426 524.192 198.202 525.656 199.45 527.576C200.746 529.448 201.394 531.704 201.394 534.344L201.394 535.064C201.394 537.368 200.962 539.264 200.098 540.752C199.234 542.192 198.202 543.32 197.002 544.136C195.85 544.904 194.746 545.456 193.69 545.792L193.69 547.088C194.746 547.376 195.898 547.928 197.146 548.744C198.394 549.512 199.45 550.64 200.314 552.128C201.226 553.616 201.682 555.56 201.682 557.96L201.682 558.68C201.682 561.464 201.034 563.864 199.738 565.88C198.442 567.848 196.642 569.36 194.338 570.416C192.082 571.472 189.442 572 186.418 572L160.21 572ZM176.338 563.36L185.266 563.36C187.33 563.36 188.986 562.856 190.234 561.848C191.53 560.84 192.178 559.4 192.178 557.528L192.178 556.808C192.178 554.936 191.554 553.496 190.306 552.488C189.058 551.48 187.378 550.976 185.266 550.976L176.338 550.976L176.338 563.36ZM176.338 542.336L185.122 542.336C187.09 542.336 188.698 541.832 189.946 540.824C191.242 539.816 191.89 538.424 191.89 536.648L191.89 535.928C191.89 534.104 191.266 532.712 190.018 531.752C188.77 530.744 187.138 530.24 185.122 530.24L176.338 530.24L176.338 542.336Z" fill="white"/>
<path d="M45.2792 196.008C41.3912 196.008 37.9592 195.312 34.9832 193.92C32.0072 192.528 29.6792 190.536 27.9992 187.944C26.3192 185.352 25.4792 182.232 25.4792 178.584L25.4792 176.568L34.8392 176.568L34.8392 178.584C34.8392 181.608 35.7752 183.888 37.6472 185.424C39.5192 186.912 42.0632 187.656 45.2792 187.656C48.5432 187.656 50.9672 187.008 52.5513 185.712C54.1833 184.416 54.9993 182.76 54.9993 180.744C54.9993 179.352 54.6153 178.224 53.8473 177.36C53.0793 176.496 51.9513 175.8 50.4632 175.272C48.9753 174.696 47.1513 174.168 44.9912 173.688L43.3352 173.328C39.8792 172.56 36.9032 171.6 34.4072 170.448C31.9592 169.248 30.0632 167.688 28.7192 165.768C27.4232 163.848 26.7752 161.352 26.7752 158.28C26.7752 155.208 27.4952 152.592 28.9352 150.432C30.4232 148.224 32.4873 146.544 35.1273 145.392C37.8153 144.192 40.9593 143.592 44.5593 143.592C48.1593 143.592 51.3513 144.216 54.1353 145.464C56.9673 146.664 59.1753 148.488 60.7593 150.936C62.3913 153.336 63.2073 156.36 63.2073 160.008L63.2073 162.168L53.8473 162.168L53.8473 160.008C53.8473 158.088 53.4633 156.552 52.6953 155.4C51.9753 154.2 50.9193 153.336 49.5273 152.808C48.1353 152.232 46.4793 151.944 44.5593 151.944C41.6793 151.944 39.5433 152.496 38.1513 153.6C36.8073 154.656 36.1353 156.12 36.1353 157.992C36.1353 159.24 36.4473 160.296 37.0712 161.16C37.7432 162.024 38.7273 162.744 40.0233 163.32C41.3193 163.896 42.9753 164.4 44.9912 164.832L46.6472 165.192C50.2473 165.96 53.3673 166.944 56.0073 168.144C58.6473 169.344 60.6873 170.928 62.1273 172.896C63.6153 174.864 64.3592 177.384 64.3592 180.456C64.3592 183.528 63.5672 186.24 61.9832 188.592C60.4472 190.896 58.2392 192.72 55.3593 194.064C52.5273 195.36 49.1672 196.008 45.2792 196.008ZM40.8872 203.352L40.8873 136.248L49.5273 136.248L49.5273 203.352L40.8872 203.352ZM93.3353 195L93.3353 184.776L68.5673 184.776L68.5673 174.12L85.9913 144.6L102.551 144.6L102.551 176.568L110.903 176.568L110.903 184.776L102.551 184.776L102.551 195L93.3353 195ZM77.3513 176.568L93.3353 176.568L93.3353 150.504L92.0393 150.504L77.3513 175.416L77.3513 176.568ZM135.797 196.008C129.845 196.008 125.069 194.376 121.469 191.112C117.869 187.8 116.069 182.808 116.069 176.136L116.069 163.464C116.069 156.984 117.869 152.064 121.469 148.704C125.069 145.296 129.845 143.592 135.797 143.592C141.797 143.592 146.573 145.296 150.125 148.704C153.725 152.064 155.525 156.984 155.525 163.464L155.525 176.136C155.525 182.808 153.725 187.8 150.125 191.112C146.573 194.376 141.797 196.008 135.797 196.008ZM135.797 187.8C139.397 187.8 142.037 186.816 143.717 184.848C145.445 182.88 146.309 180.072 146.309 176.424L146.309 163.032C146.309 159.336 145.349 156.552 143.429 154.68C141.557 152.76 139.013 151.8 135.797 151.8C132.485 151.8 129.893 152.784 128.021 154.752C126.197 156.72 125.285 159.48 125.285 163.032L125.285 176.424C125.285 180.216 126.149 183.072 127.877 184.992C129.653 186.864 132.293 187.8 135.797 187.8ZM162.468 195L162.468 186.648L169.092 186.648L169.092 152.952L162.468 152.952L162.468 144.6L188.388 144.6C191.46 144.6 194.124 145.128 196.38 146.184C198.684 147.192 200.46 148.656 201.708 150.576C203.004 152.448 203.652 154.704 203.652 157.344L203.652 158.064C203.652 160.368 203.22 162.264 202.356 163.752C201.492 165.192 200.46 166.32 199.26 167.136C198.108 167.904 197.004 168.456 195.948 168.792L195.948 170.088C197.004 170.376 198.156 170.928 199.404 171.744C200.652 172.512 201.708 173.64 202.572 175.128C203.484 176.616 203.94 178.56 203.94 180.96L203.94 181.68C203.94 184.464 203.292 186.864 201.996 188.88C200.7 190.848 198.9 192.36 196.596 193.416C194.34 194.472 191.7 195 188.676 195L162.468 195ZM178.596 186.36L187.524 186.36C189.588 186.36 191.244 185.856 192.492 184.848C193.788 183.84 194.436 182.4 194.436 180.528L194.436 179.808C194.436 177.936 193.812 176.496 192.564 175.488C191.316 174.48 189.636 173.976 187.524 173.976L178.596 173.976L178.596 186.36ZM178.596 165.336L187.38 165.336C189.348 165.336 190.956 164.832 192.204 163.824C193.5 162.816 194.148 161.424 194.148 159.648L194.148 158.928C194.148 157.104 193.524 155.712 192.276 154.752C191.028 153.744 189.396 153.24 187.38 153.24L178.596 153.24L178.596 165.336Z" fill="white"/>
<path d="M229 690.999L229 403.999" stroke="white" stroke-width="2" stroke-linecap="round" stroke-dasharray="0.1 5"/>
<path d="M229 293.28L229 46.2803" stroke="white" stroke-width="2" stroke-linecap="round" stroke-dasharray="0.1 5"/>
<path d="M489 589.981L489 690.811C489 696.333 493.477 700.811 499 700.811L509 700.811C514.523 700.811 519 696.333 519 690.811L519 589.981C519 584.458 514.523 579.981 509 579.981L499 579.981C493.477 579.981 489 584.458 489 589.981Z" fill="#040078"/>
<path d="M446 589.981L446 690.811C446 696.333 450.477 700.811 456 700.811L466 700.811C471.523 700.811 476 696.333 476 690.811L476 589.981C476 584.458 471.523 579.981 466 579.981L456 579.981C450.477 579.981 446 584.458 446 589.981Z" fill="#040078"/>
<path d="M489 503.3L489 561.98C489 567.503 493.477 571.98 499 571.98L509 571.98C514.523 571.98 519 567.503 519 561.98L519 503.3C519 497.778 514.523 493.3 509 493.3L499 493.3C493.477 493.3 489 497.778 489 503.3Z" fill="#040078"/>
<path d="M446 503.3L446 561.98C446 567.503 450.477 571.98 456 571.98L466 571.98C471.523 571.98 476 567.503 476 561.98L476 503.3C476 497.778 471.523 493.3 466 493.3L456 493.3C450.477 493.3 446 497.778 446 503.3Z" fill="#040078"/>
<path d="M489 444.72L489 475.3C489 480.823 493.477 485.3 499 485.3L509 485.3C514.523 485.3 519 480.823 519 475.3L519 444.72C519 439.197 514.523 434.72 509 434.72L499 434.72C493.477 434.72 489 439.197 489 444.72Z" fill="#040078"/>
<path d="M446 444.721L446 475.301C446 480.824 450.477 485.301 456 485.301L466 485.301C471.523 485.301 476 480.824 476 475.301L476 444.721C476 439.198 471.523 434.721 466 434.721L456 434.721C450.477 434.721 446 439.198 446 444.721Z" fill="#040078"/>
<path d="M489 403L489 416.72C489 422.243 493.477 426.72 499 426.72L509 426.72C514.523 426.72 519 422.243 519 416.72L519 403C519 397.477 514.523 393 509 393L499 393C493.477 393 489 397.477 489 403Z" fill="#60E2B7"/>
<path d="M446 403.001L446 416.721C446 422.244 450.477 426.721 456 426.721L466 426.721C471.523 426.721 476 422.244 476 416.721L476 403.001C476 397.478 471.523 393.001 466 393.001L456 393.001C450.477 393.001 446 397.478 446 403.001Z" fill="#60E2B7"/>
<path d="M515.25 300.5L492.75 300.5C490.679 300.5 489 302.179 489 304.25C489 306.321 490.679 308 492.75 308L515.25 308C517.321 308 519 306.321 519 304.25C519 302.179 517.321 300.5 515.25 300.5Z" fill="#040078"/>
<path d="M489 222.5L489 282.5C489 288.023 493.477 292.5 499 292.5L509 292.5C514.523 292.5 519 288.023 519 282.5L519 222.5C519 216.977 514.523 212.5 509 212.5L499 212.5C493.477 212.5 489 216.977 489 222.5Z" fill="#040078"/>
<path d="M489 139.5L489 194.5C489 200.023 493.477 204.5 499 204.5L509 204.5C514.523 204.5 519 200.023 519 194.5L519 139.5C519 133.977 514.523 129.5 509 129.5L499 129.5C493.477 129.5 489 133.977 489 139.5Z" fill="#040078"/>
<path d="M489 44L489 111.5C489 117.023 493.477 121.5 499 121.5L509 121.5C514.523 121.5 519 117.023 519 111.5L519 44C519 38.4772 514.523 34 509 34L499 34C493.477 34 489 38.4772 489 44Z" fill="#60E2B7"/>
<path d="M472.25 300.5L449.75 300.5C447.679 300.5 446 302.179 446 304.25C446 306.321 447.679 308 449.75 308L472.25 308C474.321 308 476 306.321 476 304.25C476 302.179 474.321 300.5 472.25 300.5Z" fill="#040078"/>
<path d="M446 222.5L446 282.5C446 288.023 450.477 292.5 456 292.5L466 292.5C471.523 292.5 476 288.023 476 282.5L476 222.5C476 216.977 471.523 212.5 466 212.5L456 212.5C450.477 212.5 446 216.977 446 222.5Z" fill="#040078"/>
<path d="M446 139.5L446 194.5C446 200.023 450.477 204.5 456 204.5L466 204.5C471.523 204.5 476 200.023 476 194.5L476 139.5C476 133.977 471.523 129.5 466 129.5L456 129.5C450.477 129.5 446 133.977 446 139.5Z" fill="#040078"/>
<path d="M446 44L446 111.5C446 117.023 450.477 121.5 456 121.5L466 121.5C471.523 121.5 476 117.023 476 111.5L476 44C476 38.4772 471.523 34 466 34L456 34C450.477 34 446 38.4772 446 44Z" fill="#60E2B7"/>
</svg>
