<svg width="829" height="701" viewBox="0 0 829 701" fill="none" xmlns="http://www.w3.org/2000/svg">
<path d="M229 87.0996C400.663 87.0996 392.64 77.8 587 77.8" stroke="#60E2B7" stroke-width="87.5" stroke-miterlimit="10"/>
<path d="M229 168.1C398.129 168.1 302.198 167.1 587 167.1" stroke="#040078" stroke-width="75" stroke-miterlimit="10"/>
<path d="M229 246.1C391.971 246.1 320.751 252.601 587 252.601" stroke="#040078" stroke-width="80" stroke-miterlimit="10"/>
<path d="M229 289.1C343.582 289.1 325.213 304.1 587 304.1" stroke="#040078" stroke-width="7.5" stroke-miterlimit="10"/>
<path d="M228.5 625.7C362.444 625.7 336.386 640.3 587 640.3" stroke="#040078" stroke-width="120.83" stroke-miterlimit="10"/>
<path d="M228.5 528.099C352.874 528.099 336.326 532.8 587 532.8" stroke="#040078" stroke-width="78.68" stroke-miterlimit="10"/>
<path d="M228.5 464.1C347.311 464.1 336.326 460.1 587 460.1" stroke="#040078" stroke-width="50.58" stroke-miterlimit="10"/>
<path d="M229 422.1C316.576 422.1 326.662 409.1 467.167 409.1C525.314 409.1 545.969 409.999 587 409.999" stroke="#60E2B7" stroke-width="33.72" stroke-miterlimit="10"/>
<path d="M10 686C4.47716 686 1.32784e-07 681.523 2.96582e-07 676L8.03736e-06 415C8.20116e-06 409.477 4.47716 405 10 405L229 405L229 686L10 686Z" fill="#040078"/>
<path d="M10 293C4.47716 293 2.12792e-07 288.523 4.75284e-07 283L1.14068e-05 53C1.16693e-05 47.4772 4.47716 43 10 43L229 43L229 293L10 293Z" fill="#040078"/>
<path d="M736.894 257.084C736.147 257.084 735.457 256.963 734.822 256.72C734.197 256.468 733.651 256.118 733.184 255.67C732.727 255.222 732.367 254.695 732.106 254.088C731.854 253.481 731.728 252.819 731.728 252.1C731.728 251.381 731.854 250.719 732.106 250.112C732.367 249.505 732.731 248.978 733.198 248.53C733.665 248.082 734.211 247.737 734.836 247.494C735.471 247.242 736.161 247.116 736.908 247.116C737.655 247.116 738.336 247.233 738.952 247.466C739.577 247.699 740.109 248.054 740.548 248.53L739.904 249.188C739.493 248.777 739.041 248.483 738.546 248.306C738.051 248.129 737.519 248.04 736.95 248.04C736.343 248.04 735.783 248.143 735.27 248.348C734.766 248.544 734.323 248.829 733.94 249.202C733.567 249.566 733.273 249.995 733.058 250.49C732.853 250.975 732.75 251.512 732.75 252.1C732.75 252.679 732.853 253.215 733.058 253.71C733.273 254.205 733.567 254.639 733.94 255.012C734.323 255.376 734.766 255.661 735.27 255.866C735.783 256.062 736.339 256.16 736.936 256.16C737.496 256.16 738.023 256.076 738.518 255.908C739.022 255.74 739.484 255.455 739.904 255.054L740.492 255.838C740.025 256.249 739.479 256.561 738.854 256.776C738.229 256.981 737.575 257.084 736.894 257.084ZM739.498 255.712L739.498 252.1L740.492 252.1L740.492 255.838L739.498 255.712ZM746.21 257.07C745.501 257.07 744.861 256.911 744.292 256.594C743.732 256.267 743.289 255.824 742.962 255.264C742.635 254.695 742.472 254.046 742.472 253.318C742.472 252.581 742.635 251.932 742.962 251.372C743.289 250.812 743.732 250.373 744.292 250.056C744.852 249.739 745.491 249.58 746.21 249.58C746.938 249.58 747.582 249.739 748.142 250.056C748.711 250.373 749.155 250.812 749.472 251.372C749.799 251.932 749.962 252.581 749.962 253.318C749.962 254.046 749.799 254.695 749.472 255.264C749.155 255.824 748.711 256.267 748.142 256.594C747.573 256.911 746.929 257.07 746.21 257.07ZM746.21 256.188C746.742 256.188 747.213 256.071 747.624 255.838C748.035 255.595 748.357 255.259 748.59 254.83C748.833 254.391 748.954 253.887 748.954 253.318C748.954 252.739 748.833 252.235 748.59 251.806C748.357 251.377 748.035 251.045 747.624 250.812C747.213 250.569 746.747 250.448 746.224 250.448C745.701 250.448 745.235 250.569 744.824 250.812C744.413 251.045 744.087 251.377 743.844 251.806C743.601 252.235 743.48 252.739 743.48 253.318C743.48 253.887 743.601 254.391 743.844 254.83C744.087 255.259 744.413 255.595 744.824 255.838C745.235 256.071 745.697 256.188 746.21 256.188ZM754.987 257.07C754.278 257.07 753.639 256.911 753.069 256.594C752.509 256.267 752.066 255.824 751.739 255.264C751.413 254.695 751.249 254.046 751.249 253.318C751.249 252.581 751.413 251.932 751.739 251.372C752.066 250.812 752.509 250.373 753.069 250.056C753.629 249.739 754.269 249.58 754.987 249.58C755.715 249.58 756.359 249.739 756.919 250.056C757.489 250.373 757.932 250.812 758.249 251.372C758.576 251.932 758.739 252.581 758.739 253.318C758.739 254.046 758.576 254.695 758.249 255.264C757.932 255.824 757.489 256.267 756.919 256.594C756.35 256.911 755.706 257.07 754.987 257.07ZM754.987 256.188C755.519 256.188 755.991 256.071 756.401 255.838C756.812 255.595 757.134 255.259 757.367 254.83C757.61 254.391 757.731 253.887 757.731 253.318C757.731 252.739 757.61 252.235 757.367 251.806C757.134 251.377 756.812 251.045 756.401 250.812C755.991 250.569 755.524 250.448 755.001 250.448C754.479 250.448 754.012 250.569 753.601 250.812C753.191 251.045 752.864 251.377 752.621 251.806C752.379 252.235 752.257 252.739 752.257 253.318C752.257 253.887 752.379 254.391 752.621 254.83C752.864 255.259 753.191 255.595 753.601 255.838C754.012 256.071 754.474 256.188 754.987 256.188ZM763.905 259.786C763.233 259.786 762.589 259.688 761.973 259.492C761.357 259.296 760.857 259.016 760.475 258.652L760.979 257.896C761.324 258.204 761.749 258.447 762.253 258.624C762.766 258.811 763.307 258.904 763.877 258.904C764.81 258.904 765.496 258.685 765.935 258.246C766.373 257.817 766.593 257.145 766.593 256.23L766.593 254.396L766.733 253.136L766.635 251.876L766.635 249.65L767.587 249.65L767.587 256.104C767.587 257.373 767.274 258.302 766.649 258.89C766.033 259.487 765.118 259.786 763.905 259.786ZM763.723 256.72C763.023 256.72 762.393 256.571 761.833 256.272C761.273 255.964 760.829 255.539 760.503 254.998C760.185 254.457 760.027 253.836 760.027 253.136C760.027 252.436 760.185 251.82 760.503 251.288C760.829 250.747 761.273 250.327 761.833 250.028C762.393 249.729 763.023 249.58 763.723 249.58C764.376 249.58 764.964 249.715 765.487 249.986C766.009 250.257 766.425 250.658 766.733 251.19C767.041 251.722 767.195 252.371 767.195 253.136C767.195 253.901 767.041 254.55 766.733 255.082C766.425 255.614 766.009 256.02 765.487 256.3C764.964 256.58 764.376 256.72 763.723 256.72ZM763.821 255.838C764.362 255.838 764.843 255.726 765.263 255.502C765.683 255.269 766.014 254.951 766.257 254.55C766.499 254.139 766.621 253.668 766.621 253.136C766.621 252.604 766.499 252.137 766.257 251.736C766.014 251.335 765.683 251.022 765.263 250.798C764.843 250.565 764.362 250.448 763.821 250.448C763.289 250.448 762.808 250.565 762.379 250.798C761.959 251.022 761.627 251.335 761.385 251.736C761.151 252.137 761.035 252.604 761.035 253.136C761.035 253.668 761.151 254.139 761.385 254.55C761.627 254.951 761.959 255.269 762.379 255.502C762.808 255.726 763.289 255.838 763.821 255.838ZM770.353 257L770.353 246.612L771.347 246.612L771.347 257L770.353 257ZM777.235 257.07C776.469 257.07 775.797 256.911 775.219 256.594C774.64 256.267 774.187 255.824 773.861 255.264C773.534 254.695 773.371 254.046 773.371 253.318C773.371 252.59 773.525 251.946 773.833 251.386C774.15 250.826 774.579 250.387 775.121 250.07C775.671 249.743 776.287 249.58 776.969 249.58C777.659 249.58 778.271 249.739 778.803 250.056C779.344 250.364 779.769 250.803 780.077 251.372C780.385 251.932 780.539 252.581 780.539 253.318C780.539 253.365 780.534 253.416 780.525 253.472C780.525 253.519 780.525 253.57 780.525 253.626L774.127 253.626L774.127 252.884L779.993 252.884L779.601 253.178C779.601 252.646 779.484 252.175 779.251 251.764C779.027 251.344 778.719 251.017 778.327 250.784C777.935 250.551 777.482 250.434 776.969 250.434C776.465 250.434 776.012 250.551 775.611 250.784C775.209 251.017 774.897 251.344 774.673 251.764C774.449 252.184 774.337 252.665 774.337 253.206L774.337 253.36C774.337 253.92 774.458 254.415 774.701 254.844C774.953 255.264 775.298 255.595 775.737 255.838C776.185 256.071 776.693 256.188 777.263 256.188C777.711 256.188 778.126 256.109 778.509 255.95C778.901 255.791 779.237 255.549 779.517 255.222L780.077 255.866C779.75 256.258 779.339 256.557 778.845 256.762C778.359 256.967 777.823 257.07 777.235 257.07Z" fill="black"/>
<path d="M736.894 538.084C736.147 538.084 735.457 537.963 734.822 537.72C734.197 537.468 733.651 537.118 733.184 536.67C732.727 536.222 732.367 535.695 732.106 535.088C731.854 534.481 731.728 533.819 731.728 533.1C731.728 532.381 731.854 531.719 732.106 531.112C732.367 530.505 732.731 529.978 733.198 529.53C733.665 529.082 734.211 528.737 734.836 528.494C735.471 528.242 736.161 528.116 736.908 528.116C737.655 528.116 738.336 528.233 738.952 528.466C739.577 528.699 740.109 529.054 740.548 529.53L739.904 530.188C739.493 529.777 739.041 529.483 738.546 529.306C738.051 529.129 737.519 529.04 736.95 529.04C736.343 529.04 735.783 529.143 735.27 529.348C734.766 529.544 734.323 529.829 733.94 530.202C733.567 530.566 733.273 530.995 733.058 531.49C732.853 531.975 732.75 532.512 732.75 533.1C732.75 533.679 732.853 534.215 733.058 534.71C733.273 535.205 733.567 535.639 733.94 536.012C734.323 536.376 734.766 536.661 735.27 536.866C735.783 537.062 736.339 537.16 736.936 537.16C737.496 537.16 738.023 537.076 738.518 536.908C739.022 536.74 739.484 536.455 739.904 536.054L740.492 536.838C740.025 537.249 739.479 537.561 738.854 537.776C738.229 537.981 737.575 538.084 736.894 538.084ZM739.498 536.712L739.498 533.1L740.492 533.1L740.492 536.838L739.498 536.712ZM746.21 538.07C745.501 538.07 744.861 537.911 744.292 537.594C743.732 537.267 743.289 536.824 742.962 536.264C742.635 535.695 742.472 535.046 742.472 534.318C742.472 533.581 742.635 532.932 742.962 532.372C743.289 531.812 743.732 531.373 744.292 531.056C744.852 530.739 745.491 530.58 746.21 530.58C746.938 530.58 747.582 530.739 748.142 531.056C748.711 531.373 749.155 531.812 749.472 532.372C749.799 532.932 749.962 533.581 749.962 534.318C749.962 535.046 749.799 535.695 749.472 536.264C749.155 536.824 748.711 537.267 748.142 537.594C747.573 537.911 746.929 538.07 746.21 538.07ZM746.21 537.188C746.742 537.188 747.213 537.071 747.624 536.838C748.035 536.595 748.357 536.259 748.59 535.83C748.833 535.391 748.954 534.887 748.954 534.318C748.954 533.739 748.833 533.235 748.59 532.806C748.357 532.377 748.035 532.045 747.624 531.812C747.213 531.569 746.747 531.448 746.224 531.448C745.701 531.448 745.235 531.569 744.824 531.812C744.413 532.045 744.087 532.377 743.844 532.806C743.601 533.235 743.48 533.739 743.48 534.318C743.48 534.887 743.601 535.391 743.844 535.83C744.087 536.259 744.413 536.595 744.824 536.838C745.235 537.071 745.697 537.188 746.21 537.188ZM754.987 538.07C754.278 538.07 753.639 537.911 753.069 537.594C752.509 537.267 752.066 536.824 751.739 536.264C751.413 535.695 751.249 535.046 751.249 534.318C751.249 533.581 751.413 532.932 751.739 532.372C752.066 531.812 752.509 531.373 753.069 531.056C753.629 530.739 754.269 530.58 754.987 530.58C755.715 530.58 756.359 530.739 756.919 531.056C757.489 531.373 757.932 531.812 758.249 532.372C758.576 532.932 758.739 533.581 758.739 534.318C758.739 535.046 758.576 535.695 758.249 536.264C757.932 536.824 757.489 537.267 756.919 537.594C756.35 537.911 755.706 538.07 754.987 538.07ZM754.987 537.188C755.519 537.188 755.991 537.071 756.401 536.838C756.812 536.595 757.134 536.259 757.367 535.83C757.61 535.391 757.731 534.887 757.731 534.318C757.731 533.739 757.61 533.235 757.367 532.806C757.134 532.377 756.812 532.045 756.401 531.812C755.991 531.569 755.524 531.448 755.001 531.448C754.479 531.448 754.012 531.569 753.601 531.812C753.191 532.045 752.864 532.377 752.621 532.806C752.379 533.235 752.257 533.739 752.257 534.318C752.257 534.887 752.379 535.391 752.621 535.83C752.864 536.259 753.191 536.595 753.601 536.838C754.012 537.071 754.474 537.188 754.987 537.188ZM763.905 540.786C763.233 540.786 762.589 540.688 761.973 540.492C761.357 540.296 760.857 540.016 760.475 539.652L760.979 538.896C761.324 539.204 761.749 539.447 762.253 539.624C762.766 539.811 763.307 539.904 763.877 539.904C764.81 539.904 765.496 539.685 765.935 539.246C766.373 538.817 766.593 538.145 766.593 537.23L766.593 535.396L766.733 534.136L766.635 532.876L766.635 530.65L767.587 530.65L767.587 537.104C767.587 538.373 767.274 539.302 766.649 539.89C766.033 540.487 765.118 540.786 763.905 540.786ZM763.723 537.72C763.023 537.72 762.393 537.571 761.833 537.272C761.273 536.964 760.829 536.539 760.503 535.998C760.185 535.457 760.027 534.836 760.027 534.136C760.027 533.436 760.185 532.82 760.503 532.288C760.829 531.747 761.273 531.327 761.833 531.028C762.393 530.729 763.023 530.58 763.723 530.58C764.376 530.58 764.964 530.715 765.487 530.986C766.009 531.257 766.425 531.658 766.733 532.19C767.041 532.722 767.195 533.371 767.195 534.136C767.195 534.901 767.041 535.55 766.733 536.082C766.425 536.614 766.009 537.02 765.487 537.3C764.964 537.58 764.376 537.72 763.723 537.72ZM763.821 536.838C764.362 536.838 764.843 536.726 765.263 536.502C765.683 536.269 766.014 535.951 766.257 535.55C766.499 535.139 766.621 534.668 766.621 534.136C766.621 533.604 766.499 533.137 766.257 532.736C766.014 532.335 765.683 532.022 765.263 531.798C764.843 531.565 764.362 531.448 763.821 531.448C763.289 531.448 762.808 531.565 762.379 531.798C761.959 532.022 761.627 532.335 761.385 532.736C761.151 533.137 761.035 533.604 761.035 534.136C761.035 534.668 761.151 535.139 761.385 535.55C761.627 535.951 761.959 536.269 762.379 536.502C762.808 536.726 763.289 536.838 763.821 536.838ZM770.353 538L770.353 527.612L771.347 527.612L771.347 538L770.353 538ZM777.235 538.07C776.469 538.07 775.797 537.911 775.219 537.594C774.64 537.267 774.187 536.824 773.861 536.264C773.534 535.695 773.371 535.046 773.371 534.318C773.371 533.59 773.525 532.946 773.833 532.386C774.15 531.826 774.579 531.387 775.121 531.07C775.671 530.743 776.287 530.58 776.969 530.58C777.659 530.58 778.271 530.739 778.803 531.056C779.344 531.364 779.769 531.803 780.077 532.372C780.385 532.932 780.539 533.581 780.539 534.318C780.539 534.365 780.534 534.416 780.525 534.472C780.525 534.519 780.525 534.57 780.525 534.626L774.127 534.626L774.127 533.884L779.993 533.884L779.601 534.178C779.601 533.646 779.484 533.175 779.251 532.764C779.027 532.344 778.719 532.017 778.327 531.784C777.935 531.551 777.482 531.434 776.969 531.434C776.465 531.434 776.012 531.551 775.611 531.784C775.209 532.017 774.897 532.344 774.673 532.764C774.449 533.184 774.337 533.665 774.337 534.206L774.337 534.36C774.337 534.92 774.458 535.415 774.701 535.844C774.953 536.264 775.298 536.595 775.737 536.838C776.185 537.071 776.693 537.188 777.263 537.188C777.711 537.188 778.126 537.109 778.509 536.95C778.901 536.791 779.237 536.549 779.517 536.222L780.077 536.866C779.75 537.258 779.339 537.557 778.845 537.762C778.359 537.967 777.823 538.07 777.235 538.07Z" fill="black"/>
<path d="M732.596 173L732.596 163.2L733.45 163.2L737.93 170.844L737.482 170.844L741.92 163.2L742.774 163.2L742.774 173L741.78 173L741.78 164.754L742.018 164.754L737.93 171.754L737.44 171.754L733.324 164.754L733.59 164.754L733.59 173L732.596 173ZM748.879 173.07C748.114 173.07 747.442 172.911 746.863 172.594C746.284 172.267 745.832 171.824 745.505 171.264C745.178 170.695 745.015 170.046 745.015 169.318C745.015 168.59 745.169 167.946 745.477 167.386C745.794 166.826 746.224 166.387 746.765 166.07C747.316 165.743 747.932 165.58 748.613 165.58C749.304 165.58 749.915 165.739 750.447 166.056C750.988 166.364 751.413 166.803 751.721 167.372C752.029 167.932 752.183 168.581 752.183 169.318C752.183 169.365 752.178 169.416 752.169 169.472C752.169 169.519 752.169 169.57 752.169 169.626L745.771 169.626L745.771 168.884L751.637 168.884L751.245 169.178C751.245 168.646 751.128 168.175 750.895 167.764C750.671 167.344 750.363 167.017 749.971 166.784C749.579 166.551 749.126 166.434 748.613 166.434C748.109 166.434 747.656 166.551 747.255 166.784C746.854 167.017 746.541 167.344 746.317 167.764C746.093 168.184 745.981 168.665 745.981 169.206L745.981 169.36C745.981 169.92 746.102 170.415 746.345 170.844C746.597 171.264 746.942 171.595 747.381 171.838C747.829 172.071 748.338 172.188 748.907 172.188C749.355 172.188 749.77 172.109 750.153 171.95C750.545 171.791 750.881 171.549 751.161 171.222L751.721 171.866C751.394 172.258 750.984 172.557 750.489 172.762C750.004 172.967 749.467 173.07 748.879 173.07ZM756.53 173.07C755.84 173.07 755.308 172.883 754.934 172.51C754.561 172.137 754.374 171.609 754.374 170.928L754.374 164.026L755.368 164.026L755.368 170.872C755.368 171.301 755.476 171.633 755.69 171.866C755.914 172.099 756.232 172.216 756.642 172.216C757.081 172.216 757.445 172.09 757.734 171.838L758.084 172.552C757.888 172.729 757.65 172.86 757.37 172.944C757.1 173.028 756.82 173.07 756.53 173.07ZM753.058 166.476L753.058 165.65L757.608 165.65L757.608 166.476L753.058 166.476ZM764.5 173L764.5 171.376L764.458 171.11L764.458 168.394C764.458 167.769 764.28 167.288 763.926 166.952C763.58 166.616 763.062 166.448 762.372 166.448C761.896 166.448 761.443 166.527 761.014 166.686C760.584 166.845 760.22 167.055 759.922 167.316L759.474 166.574C759.847 166.257 760.295 166.014 760.818 165.846C761.34 165.669 761.891 165.58 762.47 165.58C763.422 165.58 764.154 165.818 764.668 166.294C765.19 166.761 765.452 167.475 765.452 168.436L765.452 173L764.5 173ZM761.966 173.07C761.415 173.07 760.934 172.981 760.524 172.804C760.122 172.617 759.814 172.365 759.6 172.048C759.385 171.721 759.278 171.348 759.278 170.928C759.278 170.545 759.366 170.2 759.544 169.892C759.73 169.575 760.029 169.323 760.44 169.136C760.86 168.94 761.42 168.842 762.12 168.842L764.654 168.842L764.654 169.584L762.148 169.584C761.438 169.584 760.944 169.71 760.664 169.962C760.393 170.214 760.258 170.527 760.258 170.9C760.258 171.32 760.421 171.656 760.748 171.908C761.074 172.16 761.532 172.286 762.12 172.286C762.68 172.286 763.16 172.16 763.562 171.908C763.972 171.647 764.271 171.273 764.458 170.788L764.682 171.474C764.495 171.959 764.168 172.347 763.702 172.636C763.244 172.925 762.666 173.07 761.966 173.07Z" fill="black"/>
<path d="M732.596 467L732.596 457.2L733.45 457.2L737.93 464.844L737.482 464.844L741.92 457.2L742.774 457.2L742.774 467L741.78 467L741.78 458.754L742.018 458.754L737.93 465.754L737.44 465.754L733.324 458.754L733.59 458.754L733.59 467L732.596 467ZM748.879 467.07C748.114 467.07 747.442 466.911 746.863 466.594C746.284 466.267 745.832 465.824 745.505 465.264C745.178 464.695 745.015 464.046 745.015 463.318C745.015 462.59 745.169 461.946 745.477 461.386C745.794 460.826 746.224 460.387 746.765 460.07C747.316 459.743 747.932 459.58 748.613 459.58C749.304 459.58 749.915 459.739 750.447 460.056C750.988 460.364 751.413 460.803 751.721 461.372C752.029 461.932 752.183 462.581 752.183 463.318C752.183 463.365 752.178 463.416 752.169 463.472C752.169 463.519 752.169 463.57 752.169 463.626L745.771 463.626L745.771 462.884L751.637 462.884L751.245 463.178C751.245 462.646 751.128 462.175 750.895 461.764C750.671 461.344 750.363 461.017 749.971 460.784C749.579 460.551 749.126 460.434 748.613 460.434C748.109 460.434 747.656 460.551 747.255 460.784C746.854 461.017 746.541 461.344 746.317 461.764C746.093 462.184 745.981 462.665 745.981 463.206L745.981 463.36C745.981 463.92 746.102 464.415 746.345 464.844C746.597 465.264 746.942 465.595 747.381 465.838C747.829 466.071 748.338 466.188 748.907 466.188C749.355 466.188 749.77 466.109 750.153 465.95C750.545 465.791 750.881 465.549 751.161 465.222L751.721 465.866C751.394 466.258 750.984 466.557 750.489 466.762C750.004 466.967 749.467 467.07 748.879 467.07ZM756.53 467.07C755.84 467.07 755.308 466.883 754.934 466.51C754.561 466.137 754.374 465.609 754.374 464.928L754.374 458.026L755.368 458.026L755.368 464.872C755.368 465.301 755.476 465.633 755.69 465.866C755.914 466.099 756.232 466.216 756.642 466.216C757.081 466.216 757.445 466.09 757.734 465.838L758.084 466.552C757.888 466.729 757.65 466.86 757.37 466.944C757.1 467.028 756.82 467.07 756.53 467.07ZM753.058 460.476L753.058 459.65L757.608 459.65L757.608 460.476L753.058 460.476ZM764.5 467L764.5 465.376L764.458 465.11L764.458 462.394C764.458 461.769 764.28 461.288 763.926 460.952C763.58 460.616 763.062 460.448 762.372 460.448C761.896 460.448 761.443 460.527 761.014 460.686C760.584 460.845 760.22 461.055 759.922 461.316L759.474 460.574C759.847 460.257 760.295 460.014 760.818 459.846C761.34 459.669 761.891 459.58 762.47 459.58C763.422 459.58 764.154 459.818 764.668 460.294C765.19 460.761 765.452 461.475 765.452 462.436L765.452 467L764.5 467ZM761.966 467.07C761.415 467.07 760.934 466.981 760.524 466.804C760.122 466.617 759.814 466.365 759.6 466.048C759.385 465.721 759.278 465.348 759.278 464.928C759.278 464.545 759.366 464.2 759.544 463.892C759.73 463.575 760.029 463.323 760.44 463.136C760.86 462.94 761.42 462.842 762.12 462.842L764.654 462.842L764.654 463.584L762.148 463.584C761.438 463.584 760.944 463.71 760.664 463.962C760.393 464.214 760.258 464.527 760.258 464.9C760.258 465.32 760.421 465.656 760.748 465.908C761.074 466.16 761.532 466.286 762.12 466.286C762.68 466.286 763.16 466.16 763.562 465.908C763.972 465.647 764.271 465.273 764.458 464.788L764.682 465.474C764.495 465.959 764.168 466.347 763.702 466.636C763.244 466.925 762.666 467.07 761.966 467.07Z" fill="black"/>
<path d="M740.926 297.422L742.088 297.422L742.088 310.092L740.926 310.092L740.926 297.422ZM737.216 298.794L738.364 298.794C738.364 299.709 738.252 300.591 738.028 301.44C737.813 302.289 737.473 303.097 737.006 303.862C736.539 304.618 735.933 305.323 735.186 305.976C734.439 306.629 733.534 307.213 732.47 307.726L731.854 306.788C733.077 306.2 734.085 305.514 734.878 304.73C735.671 303.946 736.259 303.073 736.642 302.112C737.025 301.141 737.216 300.096 737.216 298.976L737.216 298.794ZM732.442 298.794L737.706 298.794L737.706 299.732L732.442 299.732L732.442 298.794ZM745.125 306.074L746.119 306.074C746.894 306.074 747.603 306.065 748.247 306.046C748.891 306.027 749.512 305.99 750.109 305.934C750.716 305.878 751.336 305.794 751.971 305.682L752.083 306.634C751.439 306.746 750.809 306.835 750.193 306.9C749.577 306.956 748.938 306.993 748.275 307.012C747.622 307.031 746.903 307.04 746.119 307.04L745.125 307.04L745.125 306.074ZM745.125 298.57L751.019 298.57L751.019 299.536L746.287 299.536L746.287 306.41L745.125 306.41L745.125 298.57ZM745.993 302.126L750.739 302.126L750.739 303.064L745.993 303.064L745.993 302.126ZM753.147 297.422L754.309 297.422L754.309 310.092L753.147 310.092L753.147 297.422ZM754.043 302.504L756.381 302.504L756.381 303.484L754.043 303.484L754.043 302.504ZM764.524 302.658L765.672 302.658L765.672 304.926L764.524 304.926L764.524 302.658ZM770.32 297.436L771.482 297.436L771.482 304.884L770.32 304.884L770.32 297.436ZM761.22 303.05L761.08 302.196C761.892 302.196 762.76 302.191 763.684 302.182C764.617 302.163 765.565 302.135 766.526 302.098C767.487 302.051 768.421 301.977 769.326 301.874L769.396 302.63C768.472 302.761 767.529 302.859 766.568 302.924C765.616 302.98 764.683 303.017 763.768 303.036C762.863 303.045 762.013 303.05 761.22 303.05ZM762.998 305.346L771.482 305.346L771.482 307.978L764.174 307.978L764.174 309.406L763.04 309.406L763.04 307.194L770.334 307.194L770.334 306.172L762.998 306.172L762.998 305.346ZM763.04 309.098L771.902 309.098L771.902 309.952L763.04 309.952L763.04 309.098ZM767.8 303.456L770.698 303.456L770.698 304.212L767.8 304.212L767.8 303.456ZM765.168 297.674C765.793 297.674 766.339 297.749 766.806 297.898C767.273 298.047 767.637 298.267 767.898 298.556C768.159 298.845 768.29 299.186 768.29 299.578C768.29 299.961 768.159 300.297 767.898 300.586C767.637 300.866 767.273 301.085 766.806 301.244C766.339 301.393 765.793 301.468 765.168 301.468C764.543 301.468 763.992 301.393 763.516 301.244C763.049 301.085 762.685 300.866 762.424 300.586C762.172 300.297 762.046 299.961 762.046 299.578C762.046 299.186 762.172 298.845 762.424 298.556C762.685 298.267 763.049 298.047 763.516 297.898C763.992 297.749 764.543 297.674 765.168 297.674ZM765.168 298.472C764.552 298.472 764.057 298.57 763.684 298.766C763.32 298.962 763.138 299.233 763.138 299.578C763.138 299.905 763.32 300.171 763.684 300.376C764.057 300.572 764.552 300.67 765.168 300.67C765.784 300.67 766.274 300.572 766.638 300.376C767.011 300.171 767.198 299.905 767.198 299.578C767.198 299.233 767.011 298.962 766.638 298.766C766.274 298.57 765.784 298.472 765.168 298.472ZM775.457 303.498L784.151 303.498L784.151 304.45L775.457 304.45L775.457 303.498ZM774.001 307.404L785.481 307.404L785.481 308.37L774.001 308.37L774.001 307.404ZM775.457 298.598L784.025 298.598L784.025 299.55L776.605 299.55L776.605 303.918L775.457 303.918L775.457 298.598ZM795.448 297.422L796.61 297.422L796.61 310.078L795.448 310.078L795.448 297.422ZM796.302 302.56L798.626 302.56L798.626 303.526L796.302 303.526L796.302 302.56ZM792.214 298.78L793.348 298.78C793.348 299.984 793.152 301.137 792.76 302.238C792.368 303.33 791.752 304.343 790.912 305.276C790.072 306.2 788.966 307.003 787.594 307.684L786.95 306.788C788.126 306.2 789.101 305.514 789.876 304.73C790.66 303.937 791.243 303.059 791.626 302.098C792.018 301.127 792.214 300.082 792.214 298.962L792.214 298.78ZM787.538 298.78L792.802 298.78L792.802 299.746L787.538 299.746L787.538 298.78ZM799.759 303.82L811.211 303.82L811.211 304.758L799.759 304.758L799.759 303.82ZM801.201 301.482L809.895 301.482L809.895 302.434L801.201 302.434L801.201 301.482ZM801.201 297.968L809.783 297.968L809.783 298.906L802.363 298.906L802.363 301.79L801.201 301.79L801.201 297.968ZM801.229 308.846L809.993 308.846L809.993 309.798L801.229 309.798L801.229 308.846ZM801.229 306.102L802.377 306.102L802.377 309.098L801.229 309.098L801.229 306.102Z" fill="black"/>
<path d="M740.926 632.422L742.088 632.422L742.088 645.092L740.926 645.092L740.926 632.422ZM737.216 633.794L738.364 633.794C738.364 634.709 738.252 635.591 738.028 636.44C737.813 637.289 737.473 638.097 737.006 638.862C736.539 639.618 735.933 640.323 735.186 640.976C734.439 641.629 733.534 642.213 732.47 642.726L731.854 641.788C733.077 641.2 734.085 640.514 734.878 639.73C735.671 638.946 736.259 638.073 736.642 637.112C737.025 636.141 737.216 635.096 737.216 633.976L737.216 633.794ZM732.442 633.794L737.706 633.794L737.706 634.732L732.442 634.732L732.442 633.794ZM745.125 641.074L746.119 641.074C746.894 641.074 747.603 641.065 748.247 641.046C748.891 641.027 749.512 640.99 750.109 640.934C750.716 640.878 751.336 640.794 751.971 640.682L752.083 641.634C751.439 641.746 750.809 641.835 750.193 641.9C749.577 641.956 748.938 641.993 748.275 642.012C747.622 642.031 746.903 642.04 746.119 642.04L745.125 642.04L745.125 641.074ZM745.125 633.57L751.019 633.57L751.019 634.536L746.287 634.536L746.287 641.41L745.125 641.41L745.125 633.57ZM745.993 637.126L750.739 637.126L750.739 638.064L745.993 638.064L745.993 637.126ZM753.147 632.422L754.309 632.422L754.309 645.092L753.147 645.092L753.147 632.422ZM754.043 637.504L756.381 637.504L756.381 638.484L754.043 638.484L754.043 637.504ZM764.524 637.658L765.672 637.658L765.672 639.926L764.524 639.926L764.524 637.658ZM770.32 632.436L771.482 632.436L771.482 639.884L770.32 639.884L770.32 632.436ZM761.22 638.05L761.08 637.196C761.892 637.196 762.76 637.191 763.684 637.182C764.617 637.163 765.565 637.135 766.526 637.098C767.487 637.051 768.421 636.977 769.326 636.874L769.396 637.63C768.472 637.761 767.529 637.859 766.568 637.924C765.616 637.98 764.683 638.017 763.768 638.036C762.863 638.045 762.013 638.05 761.22 638.05ZM762.998 640.346L771.482 640.346L771.482 642.978L764.174 642.978L764.174 644.406L763.04 644.406L763.04 642.194L770.334 642.194L770.334 641.172L762.998 641.172L762.998 640.346ZM763.04 644.098L771.902 644.098L771.902 644.952L763.04 644.952L763.04 644.098ZM767.8 638.456L770.698 638.456L770.698 639.212L767.8 639.212L767.8 638.456ZM765.168 632.674C765.793 632.674 766.339 632.749 766.806 632.898C767.273 633.047 767.637 633.267 767.898 633.556C768.159 633.845 768.29 634.186 768.29 634.578C768.29 634.961 768.159 635.297 767.898 635.586C767.637 635.866 767.273 636.085 766.806 636.244C766.339 636.393 765.793 636.468 765.168 636.468C764.543 636.468 763.992 636.393 763.516 636.244C763.049 636.085 762.685 635.866 762.424 635.586C762.172 635.297 762.046 634.961 762.046 634.578C762.046 634.186 762.172 633.845 762.424 633.556C762.685 633.267 763.049 633.047 763.516 632.898C763.992 632.749 764.543 632.674 765.168 632.674ZM765.168 633.472C764.552 633.472 764.057 633.57 763.684 633.766C763.32 633.962 763.138 634.233 763.138 634.578C763.138 634.905 763.32 635.171 763.684 635.376C764.057 635.572 764.552 635.67 765.168 635.67C765.784 635.67 766.274 635.572 766.638 635.376C767.011 635.171 767.198 634.905 767.198 634.578C767.198 634.233 767.011 633.962 766.638 633.766C766.274 633.57 765.784 633.472 765.168 633.472ZM775.457 638.498L784.151 638.498L784.151 639.45L775.457 639.45L775.457 638.498ZM774.001 642.404L785.481 642.404L785.481 643.37L774.001 643.37L774.001 642.404ZM775.457 633.598L784.025 633.598L784.025 634.55L776.605 634.55L776.605 638.918L775.457 638.918L775.457 633.598ZM795.448 632.422L796.61 632.422L796.61 645.078L795.448 645.078L795.448 632.422ZM796.302 637.56L798.626 637.56L798.626 638.526L796.302 638.526L796.302 637.56ZM792.214 633.78L793.348 633.78C793.348 634.984 793.152 636.137 792.76 637.238C792.368 638.33 791.752 639.343 790.912 640.276C790.072 641.2 788.966 642.003 787.594 642.684L786.95 641.788C788.126 641.2 789.101 640.514 789.876 639.73C790.66 638.937 791.243 638.059 791.626 637.098C792.018 636.127 792.214 635.082 792.214 633.962L792.214 633.78ZM787.538 633.78L792.802 633.78L792.802 634.746L787.538 634.746L787.538 633.78ZM799.759 638.82L811.211 638.82L811.211 639.758L799.759 639.758L799.759 638.82ZM801.201 636.482L809.895 636.482L809.895 637.434L801.201 637.434L801.201 636.482ZM801.201 632.968L809.783 632.968L809.783 633.906L802.363 633.906L802.363 636.79L801.201 636.79L801.201 632.968ZM801.229 643.846L809.993 643.846L809.993 644.798L801.229 644.798L801.229 643.846ZM801.229 641.102L802.377 641.102L802.377 644.098L801.229 644.098L801.229 641.102Z" fill="black"/>
<path d="M675.192 419L675.192 404.456L674.76 404.456L672.504 409.784L669.288 409.784L672.72 402.2L678.264 402.2L678.264 419L675.192 419ZM680.86 419L680.86 416.984C680.86 415.816 681.052 414.848 681.436 414.08C681.82 413.296 682.372 412.656 683.092 412.16C683.828 411.648 684.724 411.232 685.78 410.912L687.388 410.408C687.98 410.216 688.476 409.984 688.876 409.712C689.276 409.424 689.58 409.08 689.788 408.68C690.012 408.28 690.124 407.824 690.124 407.312L690.124 407.216C690.124 406.416 689.852 405.784 689.308 405.32C688.764 404.84 688.02 404.6 687.076 404.6C686.148 404.6 685.396 404.856 684.82 405.368C684.26 405.864 683.98 406.584 683.98 407.528L683.98 407.96L680.908 407.96L680.908 407.576C680.908 406.36 681.18 405.328 681.724 404.48C682.268 403.632 683.004 402.984 683.932 402.536C684.876 402.088 685.924 401.864 687.076 401.864C688.228 401.864 689.268 402.088 690.196 402.536C691.124 402.968 691.852 403.584 692.38 404.384C692.924 405.168 693.196 406.096 693.196 407.168L693.196 407.408C693.196 408.48 692.972 409.392 692.524 410.144C692.092 410.88 691.5 411.488 690.748 411.968C689.996 412.432 689.14 412.816 688.18 413.12L686.644 413.6C685.956 413.808 685.42 414.04 685.036 414.296C684.652 414.536 684.38 414.808 684.22 415.112C684.076 415.4 684.004 415.752 684.004 416.168L684.004 416.264L693.052 416.264L693.052 419L680.86 419ZM697.654 419.312L695.83 417.848L708.742 401.888L710.566 403.352L697.654 419.312ZM707.782 419.24C706.566 419.24 705.614 418.92 704.926 418.28C704.238 417.624 703.894 416.736 703.894 415.616L703.894 415.448C703.894 414.312 704.238 413.424 704.926 412.784C705.614 412.128 706.566 411.8 707.782 411.8C708.966 411.8 709.91 412.128 710.614 412.784C711.318 413.424 711.67 414.312 711.67 415.448L711.67 415.616C711.67 416.736 711.326 417.624 710.638 418.28C709.95 418.92 708.998 419.24 707.782 419.24ZM707.782 417.272C708.246 417.272 708.606 417.128 708.862 416.84C709.134 416.552 709.27 416.176 709.27 415.712L709.27 415.328C709.27 414.864 709.134 414.488 708.862 414.2C708.606 413.912 708.246 413.768 707.782 413.768C707.318 413.768 706.95 413.912 706.678 414.2C706.422 414.488 706.294 414.864 706.294 415.328L706.294 415.712C706.294 416.176 706.422 416.552 706.678 416.84C706.95 417.128 707.318 417.272 707.782 417.272ZM698.614 409.4C697.398 409.4 696.446 409.08 695.758 408.44C695.07 407.784 694.726 406.896 694.726 405.776L694.726 405.608C694.726 404.472 695.07 403.584 695.758 402.944C696.446 402.288 697.398 401.96 698.614 401.96C699.798 401.96 700.742 402.288 701.446 402.944C702.15 403.584 702.502 404.472 702.502 405.608L702.502 405.776C702.502 406.896 702.158 407.784 701.47 408.44C700.782 409.08 699.83 409.4 698.614 409.4ZM698.614 407.432C699.078 407.432 699.438 407.288 699.694 407C699.966 406.712 700.102 406.336 700.102 405.872L700.102 405.488C700.102 405.024 699.966 404.648 699.694 404.36C699.438 404.072 699.078 403.928 698.614 403.928C698.15 403.928 697.782 404.072 697.51 404.36C697.254 404.648 697.126 405.024 697.126 405.488L697.126 405.872C697.126 406.336 697.254 406.712 697.51 407C697.782 407.288 698.15 407.432 698.614 407.432Z" fill="#12976B"/>
<path d="M676.296 86.336C675.032 86.336 673.912 86.112 672.936 85.664C671.96 85.216 671.192 84.576 670.632 83.744C670.088 82.896 669.816 81.896 669.816 80.744V80.312H672.888V80.648C672.888 81.544 673.2 82.264 673.824 82.808C674.448 83.336 675.272 83.6 676.296 83.6C677.336 83.6 678.136 83.352 678.696 82.856C679.272 82.36 679.56 81.736 679.56 80.984V80.744C679.56 80.232 679.432 79.816 679.176 79.496C678.92 79.176 678.576 78.944 678.144 78.8C677.712 78.64 677.224 78.56 676.68 78.56H673.32V75.2L678.744 72.32V71.936H670.248V69.2H682.152V73.28L677.088 75.968V76.352H677.976C678.728 76.352 679.456 76.504 680.16 76.808C680.88 77.112 681.472 77.584 681.936 78.224C682.4 78.848 682.632 79.664 682.632 80.672V80.96C682.632 82.048 682.368 83 681.84 83.816C681.312 84.616 680.568 85.24 679.608 85.688C678.664 86.12 677.56 86.336 676.296 86.336ZM690.874 86.336C689.562 86.336 688.426 86.104 687.466 85.64C686.522 85.176 685.794 84.52 685.282 83.672C684.77 82.824 684.514 81.84 684.514 80.72V80.48H687.634V80.696C687.634 81.496 687.898 82.184 688.426 82.76C688.97 83.32 689.77 83.6 690.826 83.6C691.882 83.6 692.69 83.32 693.25 82.76C693.826 82.184 694.114 81.44 694.114 80.528V80.288C694.114 79.392 693.826 78.68 693.25 78.152C692.69 77.624 691.986 77.36 691.138 77.36C690.674 77.36 690.29 77.424 689.986 77.552C689.682 77.68 689.434 77.84 689.242 78.032C689.05 78.224 688.89 78.416 688.762 78.608H685.042V69.2H696.514V71.984H688.114V76.088H688.546C688.706 75.88 688.922 75.68 689.194 75.488C689.466 75.296 689.818 75.136 690.25 75.008C690.682 74.88 691.194 74.816 691.786 74.816C692.778 74.816 693.682 75.024 694.498 75.44C695.314 75.856 695.962 76.472 696.442 77.288C696.938 78.088 697.186 79.08 697.186 80.264V80.552C697.186 81.736 696.93 82.76 696.418 83.624C695.922 84.488 695.202 85.16 694.258 85.64C693.314 86.104 692.186 86.336 690.874 86.336ZM701.544 86.312L699.72 84.848L712.632 68.888L714.456 70.352L701.544 86.312ZM711.672 86.24C710.456 86.24 709.504 85.92 708.816 85.28C708.128 84.624 707.784 83.736 707.784 82.616V82.448C707.784 81.312 708.128 80.424 708.816 79.784C709.504 79.128 710.456 78.8 711.672 78.8C712.856 78.8 713.8 79.128 714.504 79.784C715.208 80.424 715.56 81.312 715.56 82.448V82.616C715.56 83.736 715.216 84.624 714.528 85.28C713.84 85.92 712.888 86.24 711.672 86.24ZM711.672 84.272C712.136 84.272 712.496 84.128 712.752 83.84C713.024 83.552 713.16 83.176 713.16 82.712V82.328C713.16 81.864 713.024 81.488 712.752 81.2C712.496 80.912 712.136 80.768 711.672 80.768C711.208 80.768 710.84 80.912 710.568 81.2C710.312 81.488 710.184 81.864 710.184 82.328V82.712C710.184 83.176 710.312 83.552 710.568 83.84C710.84 84.128 711.208 84.272 711.672 84.272ZM702.504 76.4C701.288 76.4 700.336 76.08 699.648 75.44C698.96 74.784 698.616 73.896 698.616 72.776V72.608C698.616 71.472 698.96 70.584 699.648 69.944C700.336 69.288 701.288 68.96 702.504 68.96C703.688 68.96 704.632 69.288 705.336 69.944C706.04 70.584 706.392 71.472 706.392 72.608V72.776C706.392 73.896 706.048 74.784 705.36 75.44C704.672 76.08 703.72 76.4 702.504 76.4ZM702.504 74.432C702.968 74.432 703.328 74.288 703.584 74C703.856 73.712 703.992 73.336 703.992 72.872V72.488C703.992 72.024 703.856 71.648 703.584 71.36C703.328 71.072 702.968 70.928 702.504 70.928C702.04 70.928 701.672 71.072 701.4 71.36C701.144 71.648 701.016 72.024 701.016 72.488V72.872C701.016 73.336 701.144 73.712 701.4 74C701.672 74.288 702.04 74.432 702.504 74.432Z" fill="#12976B"/>
<path d="M677.88 648L677.88 644.592L669.624 644.592L669.624 641.04L675.432 631.2L680.952 631.2L680.952 641.856L683.736 641.856L683.736 644.592L680.952 644.592L680.952 648L677.88 648ZM672.552 641.856L677.88 641.856L677.88 633.168L677.448 633.168L672.552 641.472L672.552 641.856ZM691.554 648.336C690.29 648.336 689.17 648.112 688.194 647.664C687.218 647.216 686.45 646.576 685.89 645.744C685.346 644.896 685.074 643.896 685.074 642.744L685.074 642.312L688.146 642.312L688.146 642.648C688.146 643.544 688.458 644.264 689.082 644.808C689.706 645.336 690.53 645.6 691.554 645.6C692.594 645.6 693.394 645.352 693.954 644.856C694.53 644.36 694.818 643.736 694.818 642.984L694.818 642.744C694.818 642.232 694.69 641.816 694.434 641.496C694.178 641.176 693.834 640.944 693.402 640.8C692.97 640.64 692.482 640.56 691.938 640.56L688.578 640.56L688.578 637.2L694.002 634.32L694.002 633.936L685.506 633.936L685.506 631.2L697.41 631.2L697.41 635.28L692.346 637.968L692.346 638.352L693.234 638.352C693.986 638.352 694.714 638.504 695.418 638.808C696.138 639.112 696.73 639.584 697.194 640.224C697.658 640.848 697.89 641.664 697.89 642.672L697.89 642.96C697.89 644.048 697.626 645 697.098 645.816C696.57 646.616 695.826 647.24 694.866 647.688C693.922 648.12 692.818 648.336 691.554 648.336ZM702.411 648.312L700.587 646.848L713.499 630.888L715.323 632.352L702.411 648.312ZM712.539 648.24C711.323 648.24 710.371 647.92 709.683 647.28C708.995 646.624 708.651 645.736 708.651 644.616L708.651 644.448C708.651 643.312 708.995 642.424 709.683 641.784C710.371 641.128 711.323 640.8 712.539 640.8C713.723 640.8 714.667 641.128 715.371 641.784C716.075 642.424 716.427 643.312 716.427 644.448L716.427 644.616C716.427 645.736 716.083 646.624 715.395 647.28C714.707 647.92 713.755 648.24 712.539 648.24ZM712.539 646.272C713.003 646.272 713.363 646.128 713.619 645.84C713.891 645.552 714.027 645.176 714.027 644.712L714.027 644.328C714.027 643.864 713.891 643.488 713.619 643.2C713.363 642.912 713.003 642.768 712.539 642.768C712.075 642.768 711.707 642.912 711.435 643.2C711.179 643.488 711.051 643.864 711.051 644.328L711.051 644.712C711.051 645.176 711.179 645.552 711.435 645.84C711.707 646.128 712.075 646.272 712.539 646.272ZM703.371 638.4C702.155 638.4 701.203 638.08 700.515 637.44C699.827 636.784 699.483 635.896 699.483 634.776L699.483 634.608C699.483 633.472 699.827 632.584 700.515 631.944C701.203 631.288 702.155 630.96 703.371 630.96C704.555 630.96 705.499 631.288 706.203 631.944C706.907 632.584 707.259 633.472 707.259 634.608L707.259 634.776C707.259 635.896 706.915 636.784 706.227 637.44C705.539 638.08 704.587 638.4 703.371 638.4ZM703.371 636.432C703.835 636.432 704.195 636.288 704.451 636C704.723 635.712 704.859 635.336 704.859 634.872L704.859 634.488C704.859 634.024 704.723 633.648 704.451 633.36C704.195 633.072 703.835 632.928 703.371 632.928C702.907 632.928 702.539 633.072 702.267 633.36C702.011 633.648 701.883 634.024 701.883 634.488L701.883 634.872C701.883 635.336 702.011 635.712 702.267 636C702.539 636.288 702.907 636.432 703.371 636.432Z" fill="black"/>
<path d="M676.296 312.336C675.032 312.336 673.912 312.112 672.936 311.664C671.96 311.216 671.192 310.576 670.632 309.744C670.088 308.896 669.816 307.896 669.816 306.744L669.816 306.312L672.888 306.312L672.888 306.648C672.888 307.544 673.2 308.264 673.824 308.808C674.448 309.336 675.272 309.6 676.296 309.6C677.336 309.6 678.136 309.352 678.696 308.856C679.272 308.36 679.56 307.736 679.56 306.984L679.56 306.744C679.56 306.232 679.432 305.816 679.176 305.496C678.92 305.176 678.576 304.944 678.144 304.8C677.712 304.64 677.224 304.56 676.68 304.56L673.32 304.56L673.32 301.2L678.744 298.32L678.744 297.936L670.248 297.936L670.248 295.2L682.152 295.2L682.152 299.28L677.088 301.968L677.088 302.352L677.976 302.352C678.728 302.352 679.456 302.504 680.16 302.808C680.88 303.112 681.472 303.584 681.936 304.224C682.4 304.848 682.632 305.664 682.632 306.672L682.632 306.96C682.632 308.048 682.368 309 681.84 309.816C681.312 310.616 680.568 311.24 679.608 311.688C678.664 312.12 677.56 312.336 676.296 312.336ZM687.154 312.312L685.33 310.848L698.242 294.888L700.066 296.352L687.154 312.312ZM697.282 312.24C696.066 312.24 695.114 311.92 694.426 311.28C693.738 310.624 693.394 309.736 693.394 308.616L693.394 308.448C693.394 307.312 693.738 306.424 694.426 305.784C695.114 305.128 696.066 304.8 697.282 304.8C698.466 304.8 699.41 305.128 700.114 305.784C700.818 306.424 701.17 307.312 701.17 308.448L701.17 308.616C701.17 309.736 700.826 310.624 700.138 311.28C699.45 311.92 698.498 312.24 697.282 312.24ZM697.282 310.272C697.746 310.272 698.106 310.128 698.362 309.84C698.634 309.552 698.77 309.176 698.77 308.712L698.77 308.328C698.77 307.864 698.634 307.488 698.362 307.2C698.106 306.912 697.746 306.768 697.282 306.768C696.818 306.768 696.45 306.912 696.178 307.2C695.922 307.488 695.794 307.864 695.794 308.328L695.794 308.712C695.794 309.176 695.922 309.552 696.178 309.84C696.45 310.128 696.818 310.272 697.282 310.272ZM688.114 302.4C686.898 302.4 685.946 302.08 685.258 301.44C684.57 300.784 684.226 299.896 684.226 298.776L684.226 298.608C684.226 297.472 684.57 296.584 685.258 295.944C685.946 295.288 686.898 294.96 688.114 294.96C689.298 294.96 690.242 295.288 690.946 295.944C691.65 296.584 692.002 297.472 692.002 298.608L692.002 298.776C692.002 299.896 691.658 300.784 690.97 301.44C690.282 302.08 689.33 302.4 688.114 302.4ZM688.114 300.432C688.578 300.432 688.938 300.288 689.194 300C689.466 299.712 689.602 299.336 689.602 298.872L689.602 298.488C689.602 298.024 689.466 297.648 689.194 297.36C688.938 297.072 688.578 296.928 688.114 296.928C687.65 296.928 687.282 297.072 687.01 297.36C686.754 297.648 686.626 298.024 686.626 298.488L686.626 298.872C686.626 299.336 686.754 299.712 687.01 300C687.282 300.288 687.65 300.432 688.114 300.432Z" fill="black"/>
<path d="M670.008 541L670.008 538.984C670.008 537.816 670.2 536.848 670.584 536.08C670.968 535.296 671.52 534.656 672.24 534.16C672.976 533.648 673.872 533.232 674.928 532.912L676.536 532.408C677.128 532.216 677.624 531.984 678.024 531.712C678.424 531.424 678.728 531.08 678.936 530.68C679.16 530.28 679.272 529.824 679.272 529.312L679.272 529.216C679.272 528.416 679 527.784 678.456 527.32C677.912 526.84 677.168 526.6 676.224 526.6C675.296 526.6 674.544 526.856 673.968 527.368C673.408 527.864 673.128 528.584 673.128 529.528L673.128 529.96L670.056 529.96L670.056 529.576C670.056 528.36 670.328 527.328 670.872 526.48C671.416 525.632 672.152 524.984 673.08 524.536C674.024 524.088 675.072 523.864 676.224 523.864C677.376 523.864 678.416 524.088 679.344 524.536C680.272 524.968 681 525.584 681.528 526.384C682.072 527.168 682.344 528.096 682.344 529.168L682.344 529.408C682.344 530.48 682.12 531.392 681.672 532.144C681.24 532.88 680.648 533.488 679.896 533.968C679.144 534.432 678.288 534.816 677.328 535.12L675.792 535.6C675.104 535.808 674.568 536.04 674.184 536.296C673.8 536.536 673.528 536.808 673.368 537.112C673.224 537.4 673.152 537.752 673.152 538.168L673.152 538.264L682.2 538.264L682.2 541L670.008 541ZM690.45 541.336C689.17 541.336 688.034 541.144 687.042 540.76C686.066 540.376 685.298 539.824 684.738 539.104C684.194 538.368 683.922 537.504 683.922 536.512L683.922 536.224C683.922 535.456 684.058 534.824 684.33 534.328C684.602 533.816 684.938 533.416 685.338 533.128C685.754 532.84 686.146 532.64 686.514 532.528L686.514 532.096C686.146 531.968 685.778 531.76 685.41 531.472C685.042 531.184 684.738 530.8 684.498 530.32C684.274 529.84 684.162 529.264 684.162 528.592L684.162 528.304C684.162 527.424 684.418 526.656 684.93 526C685.458 525.328 686.194 524.808 687.138 524.44C688.082 524.056 689.186 523.864 690.45 523.864C691.714 523.864 692.818 524.056 693.762 524.44C694.706 524.808 695.434 525.328 695.946 526C696.474 526.656 696.738 527.424 696.738 528.304L696.738 528.592C696.738 529.264 696.618 529.84 696.378 530.32C696.154 530.8 695.858 531.184 695.49 531.472C695.138 531.76 694.77 531.968 694.386 532.096L694.386 532.528C694.77 532.64 695.162 532.84 695.562 533.128C695.962 533.416 696.298 533.816 696.57 534.328C696.842 534.824 696.978 535.456 696.978 536.224L696.978 536.512C696.978 537.504 696.698 538.368 696.138 539.104C695.594 539.824 694.826 540.376 693.834 540.76C692.858 541.144 691.73 541.336 690.45 541.336ZM690.45 538.6C691.554 538.6 692.402 538.392 692.994 537.976C693.602 537.544 693.906 536.976 693.906 536.272L693.906 536.08C693.906 535.376 693.61 534.816 693.018 534.4C692.442 533.968 691.586 533.752 690.45 533.752C689.33 533.752 688.474 533.968 687.882 534.4C687.29 534.816 686.994 535.376 686.994 536.08L686.994 536.272C686.994 536.976 687.29 537.544 687.882 537.976C688.49 538.392 689.346 538.6 690.45 538.6ZM690.45 531.016C691.474 531.016 692.266 530.832 692.826 530.464C693.386 530.096 693.666 529.576 693.666 528.904L693.666 528.712C693.666 528.04 693.378 527.52 692.802 527.152C692.226 526.784 691.442 526.6 690.45 526.6C689.458 526.6 688.674 526.784 688.098 527.152C687.522 527.52 687.234 528.04 687.234 528.712L687.234 528.904C687.234 529.576 687.514 530.096 688.074 530.464C688.634 530.832 689.426 531.016 690.45 531.016ZM701.193 541.312L699.369 539.848L712.281 523.888L714.105 525.352L701.193 541.312ZM711.321 541.24C710.105 541.24 709.153 540.92 708.465 540.28C707.777 539.624 707.433 538.736 707.433 537.616L707.433 537.448C707.433 536.312 707.777 535.424 708.465 534.784C709.153 534.128 710.105 533.8 711.321 533.8C712.505 533.8 713.449 534.128 714.153 534.784C714.857 535.424 715.209 536.312 715.209 537.448L715.209 537.616C715.209 538.736 714.865 539.624 714.177 540.28C713.489 540.92 712.537 541.24 711.321 541.24ZM711.321 539.272C711.785 539.272 712.145 539.128 712.401 538.84C712.673 538.552 712.809 538.176 712.809 537.712L712.809 537.328C712.809 536.864 712.673 536.488 712.401 536.2C712.145 535.912 711.785 535.768 711.321 535.768C710.857 535.768 710.489 535.912 710.217 536.2C709.961 536.488 709.833 536.864 709.833 537.328L709.833 537.712C709.833 538.176 709.961 538.552 710.217 538.84C710.489 539.128 710.857 539.272 711.321 539.272ZM702.153 531.4C700.937 531.4 699.985 531.08 699.297 530.44C698.609 529.784 698.265 528.896 698.265 527.776L698.265 527.608C698.265 526.472 698.609 525.584 699.297 524.944C699.985 524.288 700.937 523.96 702.153 523.96C703.337 523.96 704.281 524.288 704.985 524.944C705.689 525.584 706.041 526.472 706.041 527.608L706.041 527.776C706.041 528.896 705.697 529.784 705.009 530.44C704.321 531.08 703.369 531.4 702.153 531.4ZM702.153 529.432C702.617 529.432 702.977 529.288 703.233 529C703.505 528.712 703.641 528.336 703.641 527.872L703.641 527.488C703.641 527.024 703.505 526.648 703.233 526.36C702.977 526.072 702.617 525.928 702.153 525.928C701.689 525.928 701.321 526.072 701.049 526.36C700.793 526.648 700.665 527.024 700.665 527.488L700.665 527.872C700.665 528.336 700.793 528.712 701.049 529C701.321 529.288 701.689 529.432 702.153 529.432Z" fill="black"/>
<path d="M676.296 260.336C675.032 260.336 673.912 260.112 672.936 259.664C671.96 259.216 671.192 258.576 670.632 257.744C670.088 256.896 669.816 255.896 669.816 254.744L669.816 254.312L672.888 254.312L672.888 254.648C672.888 255.544 673.2 256.264 673.824 256.808C674.448 257.336 675.272 257.6 676.296 257.6C677.336 257.6 678.136 257.352 678.696 256.856C679.272 256.36 679.56 255.736 679.56 254.984L679.56 254.744C679.56 254.232 679.432 253.816 679.176 253.496C678.92 253.176 678.576 252.944 678.144 252.8C677.712 252.64 677.224 252.56 676.68 252.56L673.32 252.56L673.32 249.2L678.744 246.32L678.744 245.936L670.248 245.936L670.248 243.2L682.152 243.2L682.152 247.28L677.088 249.968L677.088 250.352L677.976 250.352C678.728 250.352 679.456 250.504 680.16 250.808C680.88 251.112 681.472 251.584 681.936 252.224C682.4 252.848 682.632 253.664 682.632 254.672L682.632 254.96C682.632 256.048 682.368 257 681.84 257.816C681.312 258.616 680.568 259.24 679.608 259.688C678.664 260.12 677.56 260.336 676.296 260.336ZM684.61 260L684.61 257.984C684.61 256.816 684.802 255.848 685.186 255.08C685.57 254.296 686.122 253.656 686.842 253.16C687.578 252.648 688.474 252.232 689.53 251.912L691.138 251.408C691.73 251.216 692.226 250.984 692.626 250.712C693.026 250.424 693.33 250.08 693.538 249.68C693.762 249.28 693.874 248.824 693.874 248.312L693.874 248.216C693.874 247.416 693.602 246.784 693.058 246.32C692.514 245.84 691.77 245.6 690.826 245.6C689.898 245.6 689.146 245.856 688.57 246.368C688.01 246.864 687.73 247.584 687.73 248.528L687.73 248.96L684.658 248.96L684.658 248.576C684.658 247.36 684.93 246.328 685.474 245.48C686.018 244.632 686.754 243.984 687.682 243.536C688.626 243.088 689.674 242.864 690.826 242.864C691.978 242.864 693.018 243.088 693.946 243.536C694.874 243.968 695.602 244.584 696.13 245.384C696.674 246.168 696.946 247.096 696.946 248.168L696.946 248.408C696.946 249.48 696.722 250.392 696.274 251.144C695.842 251.88 695.25 252.488 694.498 252.968C693.746 253.432 692.89 253.816 691.93 254.12L690.394 254.6C689.706 254.808 689.17 255.04 688.786 255.296C688.402 255.536 688.13 255.808 687.97 256.112C687.826 256.4 687.754 256.752 687.754 257.168L687.754 257.264L696.802 257.264L696.802 260L684.61 260ZM701.404 260.312L699.58 258.848L712.492 242.888L714.316 244.352L701.404 260.312ZM711.532 260.24C710.316 260.24 709.364 259.92 708.676 259.28C707.988 258.624 707.644 257.736 707.644 256.616L707.644 256.448C707.644 255.312 707.988 254.424 708.676 253.784C709.364 253.128 710.316 252.8 711.532 252.8C712.716 252.8 713.66 253.128 714.364 253.784C715.068 254.424 715.42 255.312 715.42 256.448L715.42 256.616C715.42 257.736 715.076 258.624 714.388 259.28C713.7 259.92 712.748 260.24 711.532 260.24ZM711.532 258.272C711.996 258.272 712.356 258.128 712.612 257.84C712.884 257.552 713.02 257.176 713.02 256.712L713.02 256.328C713.02 255.864 712.884 255.488 712.612 255.2C712.356 254.912 711.996 254.768 711.532 254.768C711.068 254.768 710.7 254.912 710.428 255.2C710.172 255.488 710.044 255.864 710.044 256.328L710.044 256.712C710.044 257.176 710.172 257.552 710.428 257.84C710.7 258.128 711.068 258.272 711.532 258.272ZM702.364 250.4C701.148 250.4 700.196 250.08 699.508 249.44C698.82 248.784 698.476 247.896 698.476 246.776L698.476 246.608C698.476 245.472 698.82 244.584 699.508 243.944C700.196 243.288 701.148 242.96 702.364 242.96C703.548 242.96 704.492 243.288 705.196 243.944C705.9 244.584 706.252 245.472 706.252 246.608L706.252 246.776C706.252 247.896 705.908 248.784 705.22 249.44C704.532 250.08 703.58 250.4 702.364 250.4ZM702.364 248.432C702.828 248.432 703.188 248.288 703.444 248C703.716 247.712 703.852 247.336 703.852 246.872L703.852 246.488C703.852 246.024 703.716 245.648 703.444 245.36C703.188 245.072 702.828 244.928 702.364 244.928C701.9 244.928 701.532 245.072 701.26 245.36C701.004 245.648 700.876 246.024 700.876 246.488L700.876 246.872C700.876 247.336 701.004 247.712 701.26 248C701.532 248.288 701.9 248.432 702.364 248.432Z" fill="black"/>
<path d="M675.192 470L675.192 455.456L674.76 455.456L672.504 460.784L669.288 460.784L672.72 453.2L678.264 453.2L678.264 470L675.192 470ZM687.052 470.336C685.772 470.336 684.636 470.144 683.644 469.76C682.668 469.376 681.9 468.824 681.34 468.104C680.796 467.368 680.524 466.504 680.524 465.512L680.524 465.224C680.524 464.456 680.66 463.824 680.932 463.328C681.204 462.816 681.54 462.416 681.94 462.128C682.356 461.84 682.748 461.64 683.116 461.528L683.116 461.096C682.748 460.968 682.38 460.76 682.012 460.472C681.644 460.184 681.34 459.8 681.1 459.32C680.876 458.84 680.764 458.264 680.764 457.592L680.764 457.304C680.764 456.424 681.02 455.656 681.532 455C682.06 454.328 682.796 453.808 683.74 453.44C684.684 453.056 685.788 452.864 687.052 452.864C688.316 452.864 689.42 453.056 690.364 453.44C691.308 453.808 692.036 454.328 692.548 455C693.076 455.656 693.34 456.424 693.34 457.304L693.34 457.592C693.34 458.264 693.22 458.84 692.98 459.32C692.756 459.8 692.46 460.184 692.092 460.472C691.74 460.76 691.372 460.968 690.988 461.096L690.988 461.528C691.372 461.64 691.764 461.84 692.164 462.128C692.564 462.416 692.9 462.816 693.172 463.328C693.444 463.824 693.58 464.456 693.58 465.224L693.58 465.512C693.58 466.504 693.3 467.368 692.74 468.104C692.196 468.824 691.428 469.376 690.436 469.76C689.46 470.144 688.332 470.336 687.052 470.336ZM687.052 467.6C688.156 467.6 689.004 467.392 689.596 466.976C690.204 466.544 690.508 465.976 690.508 465.272L690.508 465.08C690.508 464.376 690.212 463.816 689.62 463.4C689.044 462.968 688.188 462.752 687.052 462.752C685.932 462.752 685.076 462.968 684.484 463.4C683.892 463.816 683.596 464.376 683.596 465.08L683.596 465.272C683.596 465.976 683.892 466.544 684.484 466.976C685.092 467.392 685.948 467.6 687.052 467.6ZM687.052 460.016C688.076 460.016 688.868 459.832 689.428 459.464C689.988 459.096 690.268 458.576 690.268 457.904L690.268 457.712C690.268 457.04 689.98 456.52 689.404 456.152C688.828 455.784 688.044 455.6 687.052 455.6C686.06 455.6 685.276 455.784 684.7 456.152C684.124 456.52 683.836 457.04 683.836 457.712L683.836 457.904C683.836 458.576 684.116 459.096 684.676 459.464C685.236 459.832 686.028 460.016 687.052 460.016ZM697.794 470.312L695.97 468.848L708.882 452.888L710.706 454.352L697.794 470.312ZM707.922 470.24C706.706 470.24 705.754 469.92 705.066 469.28C704.378 468.624 704.034 467.736 704.034 466.616L704.034 466.448C704.034 465.312 704.378 464.424 705.066 463.784C705.754 463.128 706.706 462.8 707.922 462.8C709.106 462.8 710.05 463.128 710.754 463.784C711.458 464.424 711.81 465.312 711.81 466.448L711.81 466.616C711.81 467.736 711.466 468.624 710.778 469.28C710.09 469.92 709.138 470.24 707.922 470.24ZM707.922 468.272C708.386 468.272 708.746 468.128 709.002 467.84C709.274 467.552 709.41 467.176 709.41 466.712L709.41 466.328C709.41 465.864 709.274 465.488 709.002 465.2C708.746 464.912 708.386 464.768 707.922 464.768C707.458 464.768 707.09 464.912 706.818 465.2C706.562 465.488 706.434 465.864 706.434 466.328L706.434 466.712C706.434 467.176 706.562 467.552 706.818 467.84C707.09 468.128 707.458 468.272 707.922 468.272ZM698.754 460.4C697.538 460.4 696.586 460.08 695.898 459.44C695.21 458.784 694.866 457.896 694.866 456.776L694.866 456.608C694.866 455.472 695.21 454.584 695.898 453.944C696.586 453.288 697.538 452.96 698.754 452.96C699.938 452.96 700.882 453.288 701.586 453.944C702.29 454.584 702.642 455.472 702.642 456.608L702.642 456.776C702.642 457.896 702.298 458.784 701.61 459.44C700.922 460.08 699.97 460.4 698.754 460.4ZM698.754 458.432C699.218 458.432 699.578 458.288 699.834 458C700.106 457.712 700.242 457.336 700.242 456.872L700.242 456.488C700.242 456.024 700.106 455.648 699.834 455.36C699.578 455.072 699.218 454.928 698.754 454.928C698.29 454.928 697.922 455.072 697.65 455.36C697.394 455.648 697.266 456.024 697.266 456.488L697.266 456.872C697.266 457.336 697.394 457.712 697.65 458C697.922 458.288 698.29 458.432 698.754 458.432Z" fill="black"/>
<path d="M676.296 176.336C675.032 176.336 673.912 176.112 672.936 175.664C671.96 175.216 671.192 174.576 670.632 173.744C670.088 172.896 669.816 171.896 669.816 170.744L669.816 170.312L672.888 170.312L672.888 170.648C672.888 171.544 673.2 172.264 673.824 172.808C674.448 173.336 675.272 173.6 676.296 173.6C677.336 173.6 678.136 173.352 678.696 172.856C679.272 172.36 679.56 171.736 679.56 170.984L679.56 170.744C679.56 170.232 679.432 169.816 679.176 169.496C678.92 169.176 678.576 168.944 678.144 168.8C677.712 168.64 677.224 168.56 676.68 168.56L673.32 168.56L673.32 165.2L678.744 162.32L678.744 161.936L670.248 161.936L670.248 159.2L682.152 159.2L682.152 163.28L677.088 165.968L677.088 166.352L677.976 166.352C678.728 166.352 679.456 166.504 680.16 166.808C680.88 167.112 681.472 167.584 681.936 168.224C682.4 168.848 682.632 169.664 682.632 170.672L682.632 170.96C682.632 172.048 682.368 173 681.84 173.816C681.312 174.616 680.568 175.24 679.608 175.688C678.664 176.12 677.56 176.336 676.296 176.336ZM691.378 176.336C689.394 176.336 687.802 175.792 686.602 174.704C685.402 173.6 684.802 171.936 684.802 169.712L684.802 165.488C684.802 163.328 685.402 161.688 686.602 160.568C687.802 159.432 689.394 158.864 691.378 158.864C693.378 158.864 694.97 159.432 696.154 160.568C697.354 161.688 697.954 163.328 697.954 165.488L697.954 169.712C697.954 171.936 697.354 173.6 696.154 174.704C694.97 175.792 693.378 176.336 691.378 176.336ZM691.378 173.6C692.578 173.6 693.458 173.272 694.018 172.616C694.594 171.96 694.882 171.024 694.882 169.808L694.882 165.344C694.882 164.112 694.562 163.184 693.922 162.56C693.298 161.92 692.45 161.6 691.378 161.6C690.274 161.6 689.41 161.928 688.786 162.584C688.178 163.24 687.874 164.16 687.874 165.344L687.874 169.808C687.874 171.072 688.162 172.024 688.738 172.664C689.33 173.288 690.21 173.6 691.378 173.6ZM702.716 176.312L700.892 174.848L713.804 158.888L715.628 160.352L702.716 176.312ZM712.844 176.24C711.628 176.24 710.676 175.92 709.988 175.28C709.3 174.624 708.956 173.736 708.956 172.616L708.956 172.448C708.956 171.312 709.3 170.424 709.988 169.784C710.676 169.128 711.628 168.8 712.844 168.8C714.028 168.8 714.972 169.128 715.676 169.784C716.38 170.424 716.732 171.312 716.732 172.448L716.732 172.616C716.732 173.736 716.388 174.624 715.7 175.28C715.012 175.92 714.06 176.24 712.844 176.24ZM712.844 174.272C713.308 174.272 713.668 174.128 713.924 173.84C714.196 173.552 714.332 173.176 714.332 172.712L714.332 172.328C714.332 171.864 714.196 171.488 713.924 171.2C713.668 170.912 713.308 170.768 712.844 170.768C712.38 170.768 712.012 170.912 711.74 171.2C711.484 171.488 711.356 171.864 711.356 172.328L711.356 172.712C711.356 173.176 711.484 173.552 711.74 173.84C712.012 174.128 712.38 174.272 712.844 174.272ZM703.676 166.4C702.46 166.4 701.508 166.08 700.82 165.44C700.132 164.784 699.788 163.896 699.788 162.776L699.788 162.608C699.788 161.472 700.132 160.584 700.82 159.944C701.508 159.288 702.46 158.96 703.676 158.96C704.86 158.96 705.804 159.288 706.508 159.944C707.212 160.584 707.564 161.472 707.564 162.608L707.564 162.776C707.564 163.896 707.22 164.784 706.532 165.44C705.844 166.08 704.892 166.4 703.676 166.4ZM703.676 164.432C704.14 164.432 704.5 164.288 704.756 164C705.028 163.712 705.164 163.336 705.164 162.872L705.164 162.488C705.164 162.024 705.028 161.648 704.756 161.36C704.5 161.072 704.14 160.928 703.676 160.928C703.212 160.928 702.844 161.072 702.572 161.36C702.316 161.648 702.188 162.024 702.188 162.488L702.188 162.872C702.188 163.336 702.316 163.712 702.572 164C702.844 164.288 703.212 164.432 703.676 164.432Z" fill="black"/>
<path d="M731.7 77.736L743.138 77.736L743.138 78.674L731.7 78.674L731.7 77.736ZM736.838 75.566L738 75.566L738 78.114L736.838 78.114L736.838 75.566ZM732.974 79.906L741.738 79.906L741.738 84.19L740.59 84.19L740.59 80.844L732.974 80.844L732.974 79.906ZM733.142 75.272L741.836 75.272L741.836 76.224L733.142 76.224L733.142 75.272ZM733.142 71.94L741.724 71.94L741.724 72.878L734.304 72.878L734.304 75.762L733.142 75.762L733.142 71.94ZM753.791 71.436L754.953 71.436L754.953 78.394L753.791 78.394L753.791 71.436ZM745.237 77.162L746.259 77.162C747.024 77.162 747.734 77.1527 748.387 77.134C749.05 77.1153 749.694 77.078 750.319 77.022C750.944 76.9567 751.593 76.8727 752.265 76.77L752.405 77.722C751.705 77.834 751.033 77.918 750.389 77.974C749.754 78.03 749.101 78.072 748.429 78.1C747.766 78.1187 747.043 78.128 746.259 78.128L745.237 78.128L745.237 77.162ZM745.209 72.038L750.949 72.038L750.949 75.482L746.371 75.482L746.371 77.792L745.237 77.792L745.237 74.572L749.815 74.572L749.815 72.99L745.209 72.99L745.209 72.038ZM746.777 79.024L747.925 79.024L747.925 80.508L753.805 80.508L753.805 79.024L754.953 79.024L754.953 83.924L746.777 83.924L746.777 79.024ZM747.925 81.432L747.925 82.972L753.805 82.972L753.805 81.432L747.925 81.432ZM761.808 72.22L767.408 72.22L767.408 73.172L761.808 73.172L761.808 72.22ZM763.712 74.964L764.86 74.964L764.86 77.988L763.712 77.988L763.712 74.964ZM766.932 72.22L768.08 72.22L768.08 72.906C768.08 73.298 768.066 73.7787 768.038 74.348C768.01 74.9173 767.912 75.5753 767.744 76.322L766.61 76.224C766.769 75.4867 766.862 74.8473 766.89 74.306C766.918 73.7647 766.932 73.298 766.932 72.906L766.932 72.22ZM769.802 71.422L770.978 71.422L770.978 79.318L769.802 79.318L769.802 71.422ZM770.432 74.866L772.784 74.866L772.784 75.846L770.432 75.846L770.432 74.866ZM761.164 78.464L761.038 77.498C761.803 77.498 762.634 77.4887 763.53 77.47C764.435 77.4513 765.355 77.4187 766.288 77.372C767.221 77.316 768.113 77.232 768.962 77.12L769.032 77.96C768.164 78.1 767.268 78.2073 766.344 78.282C765.42 78.3567 764.515 78.408 763.628 78.436C762.741 78.4547 761.92 78.464 761.164 78.464ZM766.89 79.486C767.758 79.486 768.505 79.5747 769.13 79.752C769.765 79.9293 770.25 80.1907 770.586 80.536C770.922 80.872 771.09 81.278 771.09 81.754C771.09 82.2393 770.922 82.6547 770.586 83C770.25 83.336 769.765 83.5927 769.13 83.77C768.505 83.9567 767.758 84.05 766.89 84.05C766.022 84.05 765.275 83.9567 764.65 83.77C764.025 83.5927 763.539 83.336 763.194 83C762.858 82.6547 762.69 82.2393 762.69 81.754C762.69 81.278 762.858 80.872 763.194 80.536C763.539 80.1907 764.025 79.9293 764.65 79.752C765.275 79.5747 766.022 79.486 766.89 79.486ZM766.89 80.396C765.947 80.396 765.205 80.5173 764.664 80.76C764.123 80.9933 763.852 81.3247 763.852 81.754C763.852 82.1927 764.123 82.5333 764.664 82.776C765.205 83.0093 765.947 83.126 766.89 83.126C767.833 83.126 768.57 83.0093 769.102 82.776C769.643 82.5333 769.914 82.1927 769.914 81.754C769.914 81.3247 769.643 80.9933 769.102 80.76C768.57 80.5173 767.833 80.396 766.89 80.396ZM775.219 72.696L783.367 72.696L783.367 73.648L775.219 73.648L775.219 72.696ZM774.001 81.348L785.439 81.348L785.439 82.314L774.001 82.314L774.001 81.348ZM778.453 76.826L779.601 76.826L779.601 81.838L778.453 81.838L778.453 76.826ZM782.919 72.696L784.081 72.696L784.081 73.942C784.081 74.4647 784.071 75.0153 784.053 75.594C784.043 76.1727 784.006 76.8073 783.941 77.498C783.885 78.1887 783.777 78.9587 783.619 79.808L782.443 79.668C782.685 78.4547 782.825 77.3907 782.863 76.476C782.9 75.552 782.919 74.7073 782.919 73.942L782.919 72.696ZM793.19 72.22L794.114 72.22L794.114 73.914C794.114 74.5393 793.997 75.16 793.764 75.776C793.53 76.392 793.194 76.9473 792.756 77.442C792.326 77.9367 791.799 78.324 791.174 78.604L790.544 77.708C791.094 77.4653 791.566 77.1387 791.958 76.728C792.359 76.308 792.662 75.8507 792.868 75.356C793.082 74.8613 793.19 74.3807 793.19 73.914L793.19 72.22ZM793.386 72.22L794.31 72.22L794.31 73.914C794.31 74.3713 794.408 74.8287 794.604 75.286C794.809 75.734 795.103 76.14 795.486 76.504C795.878 76.8587 796.34 77.1433 796.872 77.358L796.256 78.254C795.649 78.0113 795.131 77.666 794.702 77.218C794.272 76.77 793.946 76.2613 793.722 75.692C793.498 75.1227 793.386 74.53 793.386 73.914L793.386 72.22ZM800.106 71.436L801.212 71.436L801.212 79.248L800.106 79.248L800.106 71.436ZM798.09 74.824L800.47 74.824L800.47 75.776L798.09 75.776L798.09 74.824ZM797.39 71.674L798.482 71.674L798.482 78.842L797.39 78.842L797.39 71.674ZM797.054 79.528C797.922 79.528 798.668 79.6167 799.294 79.794C799.928 79.9713 800.418 80.2327 800.764 80.578C801.109 80.914 801.282 81.32 801.282 81.796C801.282 82.272 801.109 82.678 800.764 83.014C800.418 83.3593 799.928 83.6207 799.294 83.798C798.668 83.9753 797.922 84.064 797.054 84.064C796.186 84.064 795.434 83.9753 794.8 83.798C794.165 83.6207 793.675 83.3593 793.33 83.014C792.994 82.678 792.826 82.272 792.826 81.796C792.826 81.32 792.994 80.914 793.33 80.578C793.675 80.2327 794.165 79.9713 794.8 79.794C795.434 79.6167 796.186 79.528 797.054 79.528ZM797.054 80.424C796.102 80.424 795.35 80.5453 794.8 80.788C794.249 81.0307 793.974 81.3667 793.974 81.796C793.974 82.2253 794.249 82.5613 794.8 82.804C795.35 83.0467 796.102 83.168 797.054 83.168C797.688 83.168 798.234 83.112 798.692 83C799.149 82.8973 799.499 82.7433 799.742 82.538C799.994 82.3327 800.12 82.0853 800.12 81.796C800.12 81.3667 799.844 81.0307 799.294 80.788C798.752 80.5453 798.006 80.424 797.054 80.424ZM803.927 79.99L804.739 79.99C805.411 79.99 806.003 79.9853 806.517 79.976C807.03 79.9573 807.511 79.9247 807.959 79.878C808.416 79.822 808.883 79.752 809.359 79.668L809.471 80.634C808.985 80.718 808.509 80.788 808.043 80.844C807.576 80.8907 807.077 80.9233 806.545 80.942C806.022 80.9607 805.42 80.97 804.739 80.97L803.927 80.97L803.927 79.99ZM803.927 72.878L808.911 72.878L808.911 73.83L805.033 73.83L805.033 80.354L803.927 80.354L803.927 72.878ZM804.697 76.224L808.715 76.224L808.715 77.148L804.697 77.148L804.697 76.224ZM813.069 71.422L814.189 71.422L814.189 84.092L813.069 84.092L813.069 71.422ZM811.053 76.504L813.489 76.504L813.489 77.456L811.053 77.456L811.053 76.504ZM810.283 71.688L811.389 71.688L811.389 83.448L810.283 83.448L810.283 71.688ZM821.216 74.936L824.016 74.936L824.016 75.888L821.216 75.888L821.216 74.936ZM821.118 78.114L823.988 78.114L823.988 79.066L821.118 79.066L821.118 78.114ZM825.948 71.422L827.068 71.422L827.068 84.092L825.948 84.092L825.948 71.422ZM823.4 71.758L824.506 71.758L824.506 83.448L823.4 83.448L823.4 71.758ZM820.586 73.032L821.706 73.032C821.706 74.1333 821.547 75.1927 821.23 76.21C820.912 77.218 820.404 78.1607 819.704 79.038C819.013 79.906 818.103 80.6807 816.974 81.362L816.288 80.522C817.277 79.9247 818.089 79.2527 818.724 78.506C819.358 77.75 819.825 76.9333 820.124 76.056C820.432 75.1693 820.586 74.2313 820.586 73.242L820.586 73.032ZM816.848 73.032L821.034 73.032L821.034 73.984L816.848 73.984L816.848 73.032Z" fill="#12976B"/>
<path d="M731.7 410.736L743.138 410.736L743.138 411.674L731.7 411.674L731.7 410.736ZM736.838 408.566L738 408.566L738 411.114L736.838 411.114L736.838 408.566ZM732.974 412.906L741.738 412.906L741.738 417.19L740.59 417.19L740.59 413.844L732.974 413.844L732.974 412.906ZM733.142 408.272L741.836 408.272L741.836 409.224L733.142 409.224L733.142 408.272ZM733.142 404.94L741.724 404.94L741.724 405.878L734.304 405.878L734.304 408.762L733.142 408.762L733.142 404.94ZM753.791 404.436L754.953 404.436L754.953 411.394L753.791 411.394L753.791 404.436ZM745.237 410.162L746.259 410.162C747.024 410.162 747.734 410.153 748.387 410.134C749.05 410.115 749.694 410.078 750.319 410.022C750.944 409.957 751.593 409.873 752.265 409.77L752.405 410.722C751.705 410.834 751.033 410.918 750.389 410.974C749.754 411.03 749.101 411.072 748.429 411.1C747.766 411.119 747.043 411.128 746.259 411.128L745.237 411.128L745.237 410.162ZM745.209 405.038L750.949 405.038L750.949 408.482L746.371 408.482L746.371 410.792L745.237 410.792L745.237 407.572L749.815 407.572L749.815 405.99L745.209 405.99L745.209 405.038ZM746.777 412.024L747.925 412.024L747.925 413.508L753.805 413.508L753.805 412.024L754.953 412.024L754.953 416.924L746.777 416.924L746.777 412.024ZM747.925 414.432L747.925 415.972L753.805 415.972L753.805 414.432L747.925 414.432ZM761.808 405.22L767.408 405.22L767.408 406.172L761.808 406.172L761.808 405.22ZM763.712 407.964L764.86 407.964L764.86 410.988L763.712 410.988L763.712 407.964ZM766.932 405.22L768.08 405.22L768.08 405.906C768.08 406.298 768.066 406.779 768.038 407.348C768.01 407.917 767.912 408.575 767.744 409.322L766.61 409.224C766.769 408.487 766.862 407.847 766.89 407.306C766.918 406.765 766.932 406.298 766.932 405.906L766.932 405.22ZM769.802 404.422L770.978 404.422L770.978 412.318L769.802 412.318L769.802 404.422ZM770.432 407.866L772.784 407.866L772.784 408.846L770.432 408.846L770.432 407.866ZM761.164 411.464L761.038 410.498C761.803 410.498 762.634 410.489 763.53 410.47C764.435 410.451 765.355 410.419 766.288 410.372C767.221 410.316 768.113 410.232 768.962 410.12L769.032 410.96C768.164 411.1 767.268 411.207 766.344 411.282C765.42 411.357 764.515 411.408 763.628 411.436C762.741 411.455 761.92 411.464 761.164 411.464ZM766.89 412.486C767.758 412.486 768.505 412.575 769.13 412.752C769.765 412.929 770.25 413.191 770.586 413.536C770.922 413.872 771.09 414.278 771.09 414.754C771.09 415.239 770.922 415.655 770.586 416C770.25 416.336 769.765 416.593 769.13 416.77C768.505 416.957 767.758 417.05 766.89 417.05C766.022 417.05 765.275 416.957 764.65 416.77C764.025 416.593 763.539 416.336 763.194 416C762.858 415.655 762.69 415.239 762.69 414.754C762.69 414.278 762.858 413.872 763.194 413.536C763.539 413.191 764.025 412.929 764.65 412.752C765.275 412.575 766.022 412.486 766.89 412.486ZM766.89 413.396C765.947 413.396 765.205 413.517 764.664 413.76C764.123 413.993 763.852 414.325 763.852 414.754C763.852 415.193 764.123 415.533 764.664 415.776C765.205 416.009 765.947 416.126 766.89 416.126C767.833 416.126 768.57 416.009 769.102 415.776C769.643 415.533 769.914 415.193 769.914 414.754C769.914 414.325 769.643 413.993 769.102 413.76C768.57 413.517 767.833 413.396 766.89 413.396ZM775.219 405.696L783.367 405.696L783.367 406.648L775.219 406.648L775.219 405.696ZM774.001 414.348L785.439 414.348L785.439 415.314L774.001 415.314L774.001 414.348ZM778.453 409.826L779.601 409.826L779.601 414.838L778.453 414.838L778.453 409.826ZM782.919 405.696L784.081 405.696L784.081 406.942C784.081 407.465 784.071 408.015 784.053 408.594C784.043 409.173 784.006 409.807 783.941 410.498C783.885 411.189 783.777 411.959 783.619 412.808L782.443 412.668C782.685 411.455 782.825 410.391 782.863 409.476C782.9 408.552 782.919 407.707 782.919 406.942L782.919 405.696ZM793.19 405.22L794.114 405.22L794.114 406.914C794.114 407.539 793.997 408.16 793.764 408.776C793.53 409.392 793.194 409.947 792.756 410.442C792.326 410.937 791.799 411.324 791.174 411.604L790.544 410.708C791.094 410.465 791.566 410.139 791.958 409.728C792.359 409.308 792.662 408.851 792.868 408.356C793.082 407.861 793.19 407.381 793.19 406.914L793.19 405.22ZM793.386 405.22L794.31 405.22L794.31 406.914C794.31 407.371 794.408 407.829 794.604 408.286C794.809 408.734 795.103 409.14 795.486 409.504C795.878 409.859 796.34 410.143 796.872 410.358L796.256 411.254C795.649 411.011 795.131 410.666 794.702 410.218C794.272 409.77 793.946 409.261 793.722 408.692C793.498 408.123 793.386 407.53 793.386 406.914L793.386 405.22ZM800.106 404.436L801.212 404.436L801.212 412.248L800.106 412.248L800.106 404.436ZM798.09 407.824L800.47 407.824L800.47 408.776L798.09 408.776L798.09 407.824ZM797.39 404.674L798.482 404.674L798.482 411.842L797.39 411.842L797.39 404.674ZM797.054 412.528C797.922 412.528 798.668 412.617 799.294 412.794C799.928 412.971 800.418 413.233 800.764 413.578C801.109 413.914 801.282 414.32 801.282 414.796C801.282 415.272 801.109 415.678 800.764 416.014C800.418 416.359 799.928 416.621 799.294 416.798C798.668 416.975 797.922 417.064 797.054 417.064C796.186 417.064 795.434 416.975 794.8 416.798C794.165 416.621 793.675 416.359 793.33 416.014C792.994 415.678 792.826 415.272 792.826 414.796C792.826 414.32 792.994 413.914 793.33 413.578C793.675 413.233 794.165 412.971 794.8 412.794C795.434 412.617 796.186 412.528 797.054 412.528ZM797.054 413.424C796.102 413.424 795.35 413.545 794.8 413.788C794.249 414.031 793.974 414.367 793.974 414.796C793.974 415.225 794.249 415.561 794.8 415.804C795.35 416.047 796.102 416.168 797.054 416.168C797.688 416.168 798.234 416.112 798.692 416C799.149 415.897 799.499 415.743 799.742 415.538C799.994 415.333 800.12 415.085 800.12 414.796C800.12 414.367 799.844 414.031 799.294 413.788C798.752 413.545 798.006 413.424 797.054 413.424ZM803.927 412.99L804.739 412.99C805.411 412.99 806.003 412.985 806.517 412.976C807.03 412.957 807.511 412.925 807.959 412.878C808.416 412.822 808.883 412.752 809.359 412.668L809.471 413.634C808.985 413.718 808.509 413.788 808.043 413.844C807.576 413.891 807.077 413.923 806.545 413.942C806.022 413.961 805.42 413.97 804.739 413.97L803.927 413.97L803.927 412.99ZM803.927 405.878L808.911 405.878L808.911 406.83L805.033 406.83L805.033 413.354L803.927 413.354L803.927 405.878ZM804.697 409.224L808.715 409.224L808.715 410.148L804.697 410.148L804.697 409.224ZM813.069 404.422L814.189 404.422L814.189 417.092L813.069 417.092L813.069 404.422ZM811.053 409.504L813.489 409.504L813.489 410.456L811.053 410.456L811.053 409.504ZM810.283 404.688L811.389 404.688L811.389 416.448L810.283 416.448L810.283 404.688ZM821.216 407.936L824.016 407.936L824.016 408.888L821.216 408.888L821.216 407.936ZM821.118 411.114L823.988 411.114L823.988 412.066L821.118 412.066L821.118 411.114ZM825.948 404.422L827.068 404.422L827.068 417.092L825.948 417.092L825.948 404.422ZM823.4 404.758L824.506 404.758L824.506 416.448L823.4 416.448L823.4 404.758ZM820.586 406.032L821.706 406.032C821.706 407.133 821.547 408.193 821.23 409.21C820.912 410.218 820.404 411.161 819.704 412.038C819.013 412.906 818.103 413.681 816.974 414.362L816.288 413.522C817.277 412.925 818.089 412.253 818.724 411.506C819.358 410.75 819.825 409.933 820.124 409.056C820.432 408.169 820.586 407.231 820.586 406.242L820.586 406.032ZM816.848 406.032L821.034 406.032L821.034 406.984L816.848 406.984L816.848 406.032Z" fill="#12976B"/>
<path d="M7.53977 364.202L10.0318 364.202L10.0318 365.7L7.53977 365.7L7.53977 364.202ZM5.70577 361.248L7.62377 361.248C7.62377 362.471 7.4371 363.558 7.06377 364.51C6.69043 365.462 6.07443 366.293 5.21577 367.002C4.3571 367.702 3.19977 368.285 1.74377 368.752L1.01577 367.31C1.93043 367.021 2.6911 366.694 3.29777 366.33C3.90443 365.966 4.38043 365.565 4.72577 365.126C5.08043 364.678 5.33243 364.197 5.48177 363.684C5.6311 363.161 5.70577 362.601 5.70577 362.004L5.70577 361.248ZM1.70177 361.248L6.90977 361.248L6.90977 362.746L1.70177 362.746L1.70177 361.248ZM5.91577 363.782L5.91577 365.056L1.29577 365.392L1.04377 363.95L5.91577 363.782ZM9.80777 360.268L11.6838 360.268L11.6838 369.844L9.80777 369.844L9.80777 360.268ZM3.19977 371.524L12.0198 371.524L12.0198 373.022L3.19977 373.022L3.19977 371.524ZM3.19977 368.92L5.07577 368.92L5.07577 372.504L3.19977 372.504L3.19977 368.92ZM16.3867 367.87L18.2487 367.87L18.2487 373.274L16.3867 373.274L16.3867 367.87ZM20.9507 367.87L22.8127 367.87L22.8127 373.274L20.9507 373.274L20.9507 367.87ZM13.7127 367.422L25.4447 367.422L25.4447 368.906L13.7127 368.906L13.7127 367.422ZM18.5987 360.646L20.2227 360.646L20.2227 361.262C20.2227 361.766 20.148 362.251 19.9987 362.718C19.8493 363.175 19.6207 363.605 19.3127 364.006C19.014 364.407 18.65 364.771 18.2207 365.098C17.7913 365.425 17.2967 365.705 16.7367 365.938C16.1767 366.162 15.556 366.325 14.8747 366.428L14.1467 364.93C14.7347 364.837 15.2667 364.701 15.7427 364.524C16.2187 364.347 16.634 364.137 16.9887 363.894C17.3527 363.651 17.6513 363.385 17.8847 363.096C18.118 362.807 18.2953 362.508 18.4167 362.2C18.538 361.883 18.5987 361.57 18.5987 361.262L18.5987 360.646ZM18.9487 360.646L20.5727 360.646L20.5727 361.262C20.5727 361.57 20.6333 361.878 20.7547 362.186C20.876 362.494 21.0533 362.797 21.2867 363.096C21.52 363.385 21.814 363.651 22.1687 363.894C22.5327 364.137 22.9527 364.347 23.4287 364.524C23.9047 364.701 24.432 364.837 25.0107 364.93L24.2967 366.428C23.6153 366.325 22.9947 366.162 22.4347 365.938C21.8747 365.705 21.38 365.425 20.9507 365.098C20.5213 364.771 20.1527 364.407 19.8447 364.006C19.546 363.595 19.322 363.161 19.1727 362.704C19.0233 362.247 18.9487 361.766 18.9487 361.262L18.9487 360.646ZM27.0676 361.402L33.2416 361.402L33.2416 370.082L27.0676 370.082L27.0676 361.402ZM31.4076 362.872L28.9016 362.872L28.9016 368.626L31.4076 368.626L31.4076 362.872ZM35.6076 360.254L37.4696 360.254L37.4696 373.26L35.6076 373.26L35.6076 360.254ZM32.9056 364.734L36.3636 364.734L36.3636 366.232L32.9056 366.232L32.9056 364.734ZM46.4313 360.982C47.01 360.982 47.5233 361.108 47.9713 361.36C48.4193 361.612 48.7693 361.967 49.0213 362.424C49.2733 362.872 49.3993 363.39 49.3993 363.978C49.3993 364.575 49.2733 365.103 49.0213 365.56C48.7693 366.008 48.4193 366.363 47.9713 366.624C47.5233 366.876 47.01 367.002 46.4313 367.002C45.862 367.002 45.3533 366.876 44.9053 366.624C44.4573 366.363 44.1073 366.008 43.8553 365.56C43.6033 365.103 43.4773 364.575 43.4773 363.978C43.4773 363.381 43.6033 362.863 43.8553 362.424C44.1073 361.976 44.4573 361.626 44.9053 361.374C45.3533 361.113 45.862 360.982 46.4313 360.982ZM46.4313 362.48C46.1793 362.48 45.9553 362.541 45.7593 362.662C45.5633 362.774 45.414 362.942 45.3113 363.166C45.2087 363.39 45.1573 363.661 45.1573 363.978C45.1573 364.305 45.2087 364.58 45.3113 364.804C45.414 365.019 45.5633 365.187 45.7593 365.308C45.9553 365.429 46.1793 365.49 46.4313 365.49C46.6833 365.49 46.9073 365.429 47.1033 365.308C47.2993 365.187 47.4487 365.019 47.5513 364.804C47.6633 364.58 47.7193 364.305 47.7193 363.978C47.7193 363.661 47.6633 363.39 47.5513 363.166C47.4487 362.942 47.2993 362.774 47.1033 362.662C46.9073 362.541 46.6833 362.48 46.4313 362.48ZM52.7033 360.282L54.4813 360.282L54.4813 367.324L52.7033 367.324L52.7033 360.282ZM51.2053 362.984L53.2493 362.984L53.2493 364.482L51.2053 364.482L51.2053 362.984ZM49.9733 360.52L51.7093 360.52L51.7093 367.24L49.9733 367.24L49.9733 360.52ZM45.6753 367.87L47.5093 367.87L47.5093 369.032L52.6473 369.032L52.6473 367.87L54.4813 367.87L54.4813 373.106L45.6753 373.106L45.6753 367.87ZM47.5093 370.474L47.5093 371.608L52.6473 371.608L52.6473 370.474L47.5093 370.474Z" fill="black"/>
<path d="M10.1532 2.268L11.9312 2.268L11.9312 15.232L10.1532 15.232L10.1532 2.268ZM5.02922 7.238L7.78722 7.238L7.78722 8.722L5.02922 8.722L5.02922 7.238ZM7.42322 2.548L9.15922 2.548L9.15922 14.658L7.42322 14.658L7.42322 2.548ZM4.60922 3.794L6.40122 3.794C6.40122 5.026 6.25655 6.174 5.96722 7.238C5.67789 8.302 5.18789 9.27733 4.49722 10.164C3.81589 11.0507 2.86855 11.844 1.65522 12.544L0.605218 11.242C1.58522 10.654 2.36455 10.0147 2.94322 9.324C3.53122 8.624 3.95589 7.854 4.21722 7.014C4.47855 6.16467 4.60922 5.21733 4.60922 4.172L4.60922 3.794ZM1.31922 3.794L5.18322 3.794L5.18322 5.292L1.31922 5.292L1.31922 3.794ZM22.5561 2.282L24.4181 2.282L24.4181 9.618L22.5561 9.618L22.5561 2.282ZM15.7941 10.192L24.4181 10.192L24.4181 15.106L15.7941 15.106L15.7941 10.192ZM22.5981 11.662L17.6281 11.662L17.6281 13.636L22.5981 13.636L22.5981 11.662ZM17.3621 2.87C18.0341 2.87 18.6361 3.00533 19.1681 3.276C19.7001 3.53733 20.1201 3.90133 20.4281 4.368C20.7361 4.83467 20.8901 5.37133 20.8901 5.978C20.8901 6.58467 20.7361 7.126 20.4281 7.602C20.1201 8.06867 19.7001 8.43733 19.1681 8.708C18.6361 8.96933 18.0341 9.1 17.3621 9.1C16.6901 9.1 16.0881 8.96933 15.5561 8.708C15.0241 8.43733 14.6041 8.06867 14.2961 7.602C13.9881 7.126 13.8341 6.58467 13.8341 5.978C13.8341 5.37133 13.9881 4.83467 14.2961 4.368C14.6041 3.90133 15.0241 3.53733 15.5561 3.276C16.0881 3.00533 16.6901 2.87 17.3621 2.87ZM17.3621 4.41C17.0448 4.41 16.7555 4.47533 16.4941 4.606C16.2328 4.72733 16.0275 4.90467 15.8781 5.138C15.7288 5.362 15.6541 5.642 15.6541 5.978C15.6541 6.30467 15.7288 6.58933 15.8781 6.832C16.0275 7.06533 16.2328 7.24267 16.4941 7.364C16.7555 7.48533 17.0448 7.546 17.3621 7.546C17.6888 7.546 17.9781 7.48533 18.2301 7.364C18.4915 7.24267 18.6968 7.06533 18.8461 6.832C18.9955 6.58933 19.0701 6.30467 19.0701 5.978C19.0701 5.642 18.9955 5.362 18.8461 5.138C18.6968 4.90467 18.4915 4.72733 18.2301 4.606C17.9781 4.47533 17.6888 4.41 17.3621 4.41ZM33.4919 2.982C34.0705 2.982 34.5839 3.108 35.0319 3.36C35.4799 3.612 35.8299 3.96667 36.0819 4.424C36.3339 4.872 36.4599 5.39 36.4599 5.978C36.4599 6.57533 36.3339 7.10267 36.0819 7.56C35.8299 8.008 35.4799 8.36267 35.0319 8.624C34.5839 8.876 34.0705 9.002 33.4919 9.002C32.9225 9.002 32.4139 8.876 31.9659 8.624C31.5179 8.36267 31.1679 8.008 30.9159 7.56C30.6639 7.10267 30.5379 6.57533 30.5379 5.978C30.5379 5.38067 30.6639 4.86267 30.9159 4.424C31.1679 3.976 31.5179 3.626 31.9659 3.374C32.4139 3.11267 32.9225 2.982 33.4919 2.982ZM33.4919 4.48C33.2399 4.48 33.0159 4.54067 32.8199 4.662C32.6239 4.774 32.4745 4.942 32.3719 5.166C32.2692 5.39 32.2179 5.66067 32.2179 5.978C32.2179 6.30467 32.2692 6.58 32.3719 6.804C32.4745 7.01867 32.6239 7.18667 32.8199 7.308C33.0159 7.42933 33.2399 7.49 33.4919 7.49C33.7439 7.49 33.9679 7.42933 34.1639 7.308C34.3599 7.18667 34.5092 7.01867 34.6119 6.804C34.7239 6.58 34.7799 6.30467 34.7799 5.978C34.7799 5.66067 34.7239 5.39 34.6119 5.166C34.5092 4.942 34.3599 4.774 34.1639 4.662C33.9679 4.54067 33.7439 4.48 33.4919 4.48ZM39.7639 2.282L41.5419 2.282L41.5419 9.324L39.7639 9.324L39.7639 2.282ZM38.2659 4.984L40.3099 4.984L40.3099 6.482L38.2659 6.482L38.2659 4.984ZM37.0339 2.52L38.7699 2.52L38.7699 9.24L37.0339 9.24L37.0339 2.52ZM32.7359 9.87L34.5699 9.87L34.5699 11.032L39.7079 11.032L39.7079 9.87L41.5419 9.87L41.5419 15.106L32.7359 15.106L32.7359 9.87ZM34.5699 12.474L34.5699 13.608L39.7079 13.608L39.7079 12.474L34.5699 12.474Z" fill="black"/>
<path d="M46.5371 573.008C42.6491 573.008 39.2171 572.312 36.2411 570.92C33.2651 569.528 30.9371 567.536 29.2571 564.944C27.5771 562.352 26.7371 559.232 26.7371 555.584L26.7371 553.568L36.0971 553.568L36.0971 555.584C36.0971 558.608 37.0331 560.888 38.9051 562.424C40.7771 563.912 43.3211 564.656 46.5371 564.656C49.8011 564.656 52.2251 564.008 53.8091 562.712C55.4411 561.416 56.2571 559.76 56.2571 557.744C56.2571 556.352 55.8731 555.224 55.1051 554.36C54.3371 553.496 53.2091 552.8 51.7211 552.272C50.2331 551.696 48.4091 551.168 46.2491 550.688L44.5931 550.328C41.1371 549.56 38.1611 548.6 35.6651 547.448C33.2171 546.248 31.3211 544.688 29.9771 542.768C28.6811 540.848 28.0331 538.352 28.0331 535.28C28.0331 532.208 28.7531 529.592 30.1931 527.432C31.6811 525.224 33.7451 523.544 36.3851 522.392C39.0731 521.192 42.2171 520.592 45.8171 520.592C49.4171 520.592 52.6091 521.216 55.3931 522.464C58.2251 523.664 60.4331 525.488 62.0171 527.936C63.6491 530.336 64.4651 533.36 64.4651 537.008L64.4651 539.168L55.1051 539.168L55.1051 537.008C55.1051 535.088 54.7211 533.552 53.9531 532.4C53.2331 531.2 52.1771 530.336 50.7851 529.808C49.3931 529.232 47.7371 528.944 45.8171 528.944C42.9371 528.944 40.8011 529.496 39.4091 530.6C38.0651 531.656 37.3931 533.12 37.3931 534.992C37.3931 536.24 37.7051 537.296 38.3291 538.16C39.0011 539.024 39.9851 539.744 41.2811 540.32C42.5771 540.896 44.2331 541.4 46.2491 541.832L47.9051 542.192C51.5051 542.96 54.6251 543.944 57.2651 545.144C59.9051 546.344 61.9451 547.928 63.3851 549.896C64.8731 551.864 65.6171 554.384 65.6171 557.456C65.6171 560.528 64.8251 563.24 63.2411 565.592C61.7051 567.896 59.4971 569.72 56.6171 571.064C53.7851 572.36 50.4251 573.008 46.5371 573.008ZM42.1451 580.352L42.1451 513.248L50.7851 513.248L50.7851 580.352L42.1451 580.352ZM94.5931 572L94.5931 561.776L69.8251 561.776L69.8251 551.12L87.2491 521.6L103.809 521.6L103.809 553.568L112.161 553.568L112.161 561.776L103.809 561.776L103.809 572L94.5931 572ZM78.6091 553.568L94.5931 553.568L94.5931 527.504L93.2971 527.504L78.6091 552.416L78.6091 553.568ZM135.543 573.008C131.607 573.008 128.199 572.312 125.319 570.92C122.487 569.528 120.303 567.56 118.767 565.016C117.231 562.472 116.463 559.52 116.463 556.16L116.463 555.44L125.823 555.44L125.823 556.088C125.823 558.488 126.615 560.552 128.199 562.28C129.831 563.96 132.231 564.8 135.399 564.8C138.567 564.8 140.991 563.96 142.671 562.28C144.399 560.552 145.263 558.32 145.263 555.584L145.263 554.864C145.263 552.176 144.399 550.04 142.671 548.456C140.991 546.872 138.879 546.08 136.335 546.08C134.943 546.08 133.791 546.272 132.879 546.656C131.967 547.04 131.223 547.52 130.647 548.096C130.071 548.672 129.591 549.248 129.207 549.824L118.047 549.824L118.047 521.6L152.463 521.6L152.463 529.952L127.263 529.952L127.263 542.264L128.559 542.264C129.039 541.64 129.687 541.04 130.503 540.464C131.319 539.888 132.375 539.408 133.671 539.024C134.967 538.64 136.503 538.448 138.279 538.448C141.255 538.448 143.967 539.072 146.415 540.32C148.863 541.568 150.807 543.416 152.247 545.864C153.735 548.264 154.479 551.24 154.479 554.792L154.479 555.656C154.479 559.208 153.711 562.28 152.175 564.872C150.687 567.464 148.527 569.48 145.695 570.92C142.863 572.312 139.479 573.008 135.543 573.008ZM160.21 572L160.21 563.648L166.834 563.648L166.834 529.952L160.21 529.952L160.21 521.6L186.13 521.6C189.202 521.6 191.866 522.128 194.122 523.184C196.426 524.192 198.202 525.656 199.45 527.576C200.746 529.448 201.394 531.704 201.394 534.344L201.394 535.064C201.394 537.368 200.962 539.264 200.098 540.752C199.234 542.192 198.202 543.32 197.002 544.136C195.85 544.904 194.746 545.456 193.69 545.792L193.69 547.088C194.746 547.376 195.898 547.928 197.146 548.744C198.394 549.512 199.45 550.64 200.314 552.128C201.226 553.616 201.682 555.56 201.682 557.96L201.682 558.68C201.682 561.464 201.034 563.864 199.738 565.88C198.442 567.848 196.642 569.36 194.338 570.416C192.082 571.472 189.442 572 186.418 572L160.21 572ZM176.338 563.36L185.266 563.36C187.33 563.36 188.986 562.856 190.234 561.848C191.53 560.84 192.178 559.4 192.178 557.528L192.178 556.808C192.178 554.936 191.554 553.496 190.306 552.488C189.058 551.48 187.378 550.976 185.266 550.976L176.338 550.976L176.338 563.36ZM176.338 542.336L185.122 542.336C187.09 542.336 188.698 541.832 189.946 540.824C191.242 539.816 191.89 538.424 191.89 536.648L191.89 535.928C191.89 534.104 191.266 532.712 190.018 531.752C188.77 530.744 187.138 530.24 185.122 530.24L176.338 530.24L176.338 542.336Z" fill="white"/>
<path d="M45.2792 196.008C41.3912 196.008 37.9592 195.312 34.9832 193.92C32.0072 192.528 29.6792 190.536 27.9992 187.944C26.3192 185.352 25.4792 182.232 25.4792 178.584L25.4792 176.568L34.8392 176.568L34.8392 178.584C34.8392 181.608 35.7752 183.888 37.6472 185.424C39.5192 186.912 42.0632 187.656 45.2792 187.656C48.5432 187.656 50.9672 187.008 52.5513 185.712C54.1833 184.416 54.9993 182.76 54.9993 180.744C54.9993 179.352 54.6153 178.224 53.8473 177.36C53.0793 176.496 51.9513 175.8 50.4632 175.272C48.9753 174.696 47.1513 174.168 44.9912 173.688L43.3352 173.328C39.8792 172.56 36.9032 171.6 34.4072 170.448C31.9592 169.248 30.0632 167.688 28.7192 165.768C27.4232 163.848 26.7752 161.352 26.7752 158.28C26.7752 155.208 27.4952 152.592 28.9352 150.432C30.4232 148.224 32.4873 146.544 35.1273 145.392C37.8153 144.192 40.9593 143.592 44.5593 143.592C48.1593 143.592 51.3513 144.216 54.1353 145.464C56.9673 146.664 59.1753 148.488 60.7593 150.936C62.3913 153.336 63.2073 156.36 63.2073 160.008L63.2073 162.168L53.8473 162.168L53.8473 160.008C53.8473 158.088 53.4633 156.552 52.6953 155.4C51.9753 154.2 50.9193 153.336 49.5273 152.808C48.1353 152.232 46.4793 151.944 44.5593 151.944C41.6793 151.944 39.5433 152.496 38.1513 153.6C36.8073 154.656 36.1353 156.12 36.1353 157.992C36.1353 159.24 36.4473 160.296 37.0712 161.16C37.7432 162.024 38.7273 162.744 40.0233 163.32C41.3193 163.896 42.9753 164.4 44.9912 164.832L46.6472 165.192C50.2473 165.96 53.3673 166.944 56.0073 168.144C58.6473 169.344 60.6873 170.928 62.1273 172.896C63.6153 174.864 64.3592 177.384 64.3592 180.456C64.3592 183.528 63.5672 186.24 61.9832 188.592C60.4472 190.896 58.2392 192.72 55.3593 194.064C52.5273 195.36 49.1672 196.008 45.2792 196.008ZM40.8872 203.352L40.8873 136.248L49.5273 136.248L49.5273 203.352L40.8872 203.352ZM93.3353 195L93.3353 184.776L68.5673 184.776L68.5673 174.12L85.9913 144.6L102.551 144.6L102.551 176.568L110.903 176.568L110.903 184.776L102.551 184.776L102.551 195L93.3353 195ZM77.3513 176.568L93.3353 176.568L93.3353 150.504L92.0393 150.504L77.3513 175.416L77.3513 176.568ZM135.797 196.008C129.845 196.008 125.069 194.376 121.469 191.112C117.869 187.8 116.069 182.808 116.069 176.136L116.069 163.464C116.069 156.984 117.869 152.064 121.469 148.704C125.069 145.296 129.845 143.592 135.797 143.592C141.797 143.592 146.573 145.296 150.125 148.704C153.725 152.064 155.525 156.984 155.525 163.464L155.525 176.136C155.525 182.808 153.725 187.8 150.125 191.112C146.573 194.376 141.797 196.008 135.797 196.008ZM135.797 187.8C139.397 187.8 142.037 186.816 143.717 184.848C145.445 182.88 146.309 180.072 146.309 176.424L146.309 163.032C146.309 159.336 145.349 156.552 143.429 154.68C141.557 152.76 139.013 151.8 135.797 151.8C132.485 151.8 129.893 152.784 128.021 154.752C126.197 156.72 125.285 159.48 125.285 163.032L125.285 176.424C125.285 180.216 126.149 183.072 127.877 184.992C129.653 186.864 132.293 187.8 135.797 187.8ZM162.468 195L162.468 186.648L169.092 186.648L169.092 152.952L162.468 152.952L162.468 144.6L188.388 144.6C191.46 144.6 194.124 145.128 196.38 146.184C198.684 147.192 200.46 148.656 201.708 150.576C203.004 152.448 203.652 154.704 203.652 157.344L203.652 158.064C203.652 160.368 203.22 162.264 202.356 163.752C201.492 165.192 200.46 166.32 199.26 167.136C198.108 167.904 197.004 168.456 195.948 168.792L195.948 170.088C197.004 170.376 198.156 170.928 199.404 171.744C200.652 172.512 201.708 173.64 202.572 175.128C203.484 176.616 203.94 178.56 203.94 180.96L203.94 181.68C203.94 184.464 203.292 186.864 201.996 188.88C200.7 190.848 198.9 192.36 196.596 193.416C194.34 194.472 191.7 195 188.676 195L162.468 195ZM178.596 186.36L187.524 186.36C189.588 186.36 191.244 185.856 192.492 184.848C193.788 183.84 194.436 182.4 194.436 180.528L194.436 179.808C194.436 177.936 193.812 176.496 192.564 175.488C191.316 174.48 189.636 173.976 187.524 173.976L178.596 173.976L178.596 186.36ZM178.596 165.336L187.38 165.336C189.348 165.336 190.956 164.832 192.204 163.824C193.5 162.816 194.148 161.424 194.148 159.648L194.148 158.928C194.148 157.104 193.524 155.712 192.276 154.752C191.028 153.744 189.396 153.24 187.38 153.24L178.596 153.24L178.596 165.336Z" fill="white"/>
<path d="M229 690.999L229 403.999" stroke="white" stroke-width="2" stroke-linecap="round" stroke-dasharray="0.1 5"/>
<path d="M229 293.28L229 46.2803" stroke="white" stroke-width="2" stroke-linecap="round" stroke-dasharray="0.1 5"/>
<path d="M612 589.981L612 690.811C612 696.333 616.477 700.811 622 700.811L632 700.811C637.523 700.811 642 696.333 642 690.811L642 589.981C642 584.458 637.523 579.981 632 579.981L622 579.981C616.477 579.981 612 584.458 612 589.981Z" fill="#040078"/>
<path d="M569 589.981L569 690.811C569 696.333 573.477 700.811 579 700.811L589 700.811C594.523 700.811 599 696.333 599 690.811L599 589.981C599 584.458 594.523 579.981 589 579.981L579 579.981C573.477 579.981 569 584.458 569 589.981Z" fill="#040078"/>
<path d="M612 503.3L612 561.98C612 567.503 616.477 571.98 622 571.98L632 571.98C637.523 571.98 642 567.503 642 561.98L642 503.3C642 497.778 637.523 493.3 632 493.3L622 493.3C616.477 493.3 612 497.778 612 503.3Z" fill="#040078"/>
<path d="M569 503.3L569 561.98C569 567.503 573.477 571.98 579 571.98L589 571.98C594.523 571.98 599 567.503 599 561.98L599 503.3C599 497.778 594.523 493.3 589 493.3L579 493.3C573.477 493.3 569 497.778 569 503.3Z" fill="#040078"/>
<path d="M612 444.72L612 475.3C612 480.823 616.477 485.3 622 485.3L632 485.3C637.523 485.3 642 480.823 642 475.3L642 444.72C642 439.197 637.523 434.72 632 434.72L622 434.72C616.477 434.72 612 439.197 612 444.72Z" fill="#040078"/>
<path d="M569 444.721L569 475.301C569 480.824 573.477 485.301 579 485.301L589 485.301C594.523 485.301 599 480.824 599 475.301L599 444.721C599 439.198 594.523 434.721 589 434.721L579 434.721C573.477 434.721 569 439.198 569 444.721Z" fill="#040078"/>
<path d="M612 403L612 416.72C612 422.243 616.477 426.72 622 426.72L632 426.72C637.523 426.72 642 422.243 642 416.72L642 403C642 397.477 637.523 393 632 393L622 393C616.477 393 612 397.477 612 403Z" fill="#60E2B7"/>
<path d="M569 403.001L569 416.721C569 422.244 573.477 426.721 579 426.721L589 426.721C594.523 426.721 599 422.244 599 416.721L599 403.001C599 397.478 594.523 393.001 589 393.001L579 393.001C573.477 393.001 569 397.478 569 403.001Z" fill="#60E2B7"/>
<path d="M638.25 300.5L615.75 300.5C613.679 300.5 612 302.179 612 304.25C612 306.321 613.679 308 615.75 308L638.25 308C640.321 308 642 306.321 642 304.25C642 302.179 640.321 300.5 638.25 300.5Z" fill="#040078"/>
<path d="M612 222.5L612 282.5C612 288.023 616.477 292.5 622 292.5L632 292.5C637.523 292.5 642 288.023 642 282.5L642 222.5C642 216.977 637.523 212.5 632 212.5L622 212.5C616.477 212.5 612 216.977 612 222.5Z" fill="#040078"/>
<path d="M612 139.5L612 194.5C612 200.023 616.477 204.5 622 204.5L632 204.5C637.523 204.5 642 200.023 642 194.5L642 139.5C642 133.977 637.523 129.5 632 129.5L622 129.5C616.477 129.5 612 133.977 612 139.5Z" fill="#040078"/>
<path d="M612 44L612 111.5C612 117.023 616.477 121.5 622 121.5L632 121.5C637.523 121.5 642 117.023 642 111.5L642 44C642 38.4772 637.523 34 632 34L622 34C616.477 34 612 38.4772 612 44Z" fill="#60E2B7"/>
<path d="M595.25 300.5L572.75 300.5C570.679 300.5 569 302.179 569 304.25C569 306.321 570.679 308 572.75 308L595.25 308C597.321 308 599 306.321 599 304.25C599 302.179 597.321 300.5 595.25 300.5Z" fill="#040078"/>
<path d="M569 222.5L569 282.5C569 288.023 573.477 292.5 579 292.5L589 292.5C594.523 292.5 599 288.023 599 282.5L599 222.5C599 216.977 594.523 212.5 589 212.5L579 212.5C573.477 212.5 569 216.977 569 222.5Z" fill="#040078"/>
<path d="M569 139.5L569 194.5C569 200.023 573.477 204.5 579 204.5L589 204.5C594.523 204.5 599 200.023 599 194.5L599 139.5C599 133.977 594.523 129.5 589 129.5L579 129.5C573.477 129.5 569 133.977 569 139.5Z" fill="#040078"/>
<path d="M569 44L569 111.5C569 117.023 573.477 121.5 579 121.5L589 121.5C594.523 121.5 599 117.023 599 111.5L599 44C599 38.4772 594.523 34 589 34L579 34C573.477 34 569 38.4772 569 44Z" fill="#60E2B7"/>
</svg>
